%TF.GenerationSoftware,KiCad,Pcbnew,9.0.2*%
%TF.CreationDate,2025-07-07T09:36:44+02:00*%
%TF.ProjectId,luaos,6c75616f-732e-46b6-9963-61645f706362,rev?*%
%TF.SameCoordinates,Original*%
%TF.FileFunction,Copper,L2,Bot*%
%TF.FilePolarity,Positive*%
%FSLAX46Y46*%
G04 Gerber Fmt 4.6, Leading zero omitted, Abs format (unit mm)*
G04 Created by KiCad (PCBNEW 9.0.2) date 2025-07-07 09:36:44*
%MOMM*%
%LPD*%
G01*
G04 APERTURE LIST*
G04 Aperture macros list*
%AMRoundRect*
0 Rectangle with rounded corners*
0 $1 Rounding radius*
0 $2 $3 $4 $5 $6 $7 $8 $9 X,Y pos of 4 corners*
0 Add a 4 corners polygon primitive as box body*
4,1,4,$2,$3,$4,$5,$6,$7,$8,$9,$2,$3,0*
0 Add four circle primitives for the rounded corners*
1,1,$1+$1,$2,$3*
1,1,$1+$1,$4,$5*
1,1,$1+$1,$6,$7*
1,1,$1+$1,$8,$9*
0 Add four rect primitives between the rounded corners*
20,1,$1+$1,$2,$3,$4,$5,0*
20,1,$1+$1,$4,$5,$6,$7,0*
20,1,$1+$1,$6,$7,$8,$9,0*
20,1,$1+$1,$8,$9,$2,$3,0*%
G04 Aperture macros list end*
%TA.AperFunction,ComponentPad*%
%ADD10R,1.500000X1.500000*%
%TD*%
%TA.AperFunction,ComponentPad*%
%ADD11C,1.500000*%
%TD*%
%TA.AperFunction,ComponentPad*%
%ADD12O,2.000000X1.700000*%
%TD*%
%TA.AperFunction,ComponentPad*%
%ADD13C,2.800000*%
%TD*%
%TA.AperFunction,ComponentPad*%
%ADD14RoundRect,0.250001X-1.149999X-1.149999X1.149999X-1.149999X1.149999X1.149999X-1.149999X1.149999X0*%
%TD*%
%TA.AperFunction,ComponentPad*%
%ADD15C,1.700000*%
%TD*%
%TA.AperFunction,ComponentPad*%
%ADD16R,1.700000X1.700000*%
%TD*%
%TA.AperFunction,ComponentPad*%
%ADD17O,2.000000X1.600000*%
%TD*%
%TA.AperFunction,ComponentPad*%
%ADD18R,2.000000X2.000000*%
%TD*%
%TA.AperFunction,Conductor*%
%ADD19C,0.500000*%
%TD*%
%TA.AperFunction,Conductor*%
%ADD20C,0.200000*%
%TD*%
G04 APERTURE END LIST*
D10*
%TO.P,U1,1,GND*%
%TO.N,GND*%
X96520000Y-88900000D03*
D11*
%TO.P,U1,2,GPIO0*%
%TO.N,unconnected-(U1-GPIO0-Pad2)*%
X96520000Y-91440000D03*
%TO.P,U1,3,GPIO1*%
%TO.N,unconnected-(U1-GPIO1-Pad3)*%
X96520000Y-93980000D03*
%TO.P,U1,4,GPIO12*%
%TO.N,Net-(U1-GPIO12)*%
X96520000Y-96520000D03*
%TO.P,U1,5,GPIO18*%
%TO.N,Net-(J2-Pin_2)*%
X96520000Y-99060000D03*
%TO.P,U1,6,GPIO19*%
%TO.N,unconnected-(U1-GPIO19-Pad6)*%
X96520000Y-101600000D03*
%TO.P,U1,7,GND*%
%TO.N,GND*%
X96520000Y-104140000D03*
%TO.P,U1,8,U0RXD*%
%TO.N,unconnected-(U1-U0RXD-Pad8)*%
X96520000Y-106680000D03*
%TO.P,U1,9,U0TXD*%
%TO.N,unconnected-(U1-U0TXD-Pad9)*%
X96520000Y-109220000D03*
%TO.P,U1,10,GPIO13*%
%TO.N,unconnected-(U1-GPIO13-Pad10)*%
X96520000Y-111760000D03*
%TO.P,U1,11*%
%TO.N,N/C*%
X96520000Y-114300000D03*
%TO.P,U1,12,REST*%
%TO.N,unconnected-(U1-REST-Pad12)*%
X96520000Y-116840000D03*
%TO.P,U1,13,VDD3P3*%
%TO.N,+3.3V*%
X96520000Y-119380000D03*
%TO.P,U1,14,GND*%
%TO.N,GND*%
X96520000Y-121920000D03*
%TO.P,U1,15,PWB*%
%TO.N,unconnected-(U1-PWB-Pad15)*%
X96520000Y-124460000D03*
%TO.P,U1,16,VDD5*%
%TO.N,+5V*%
X96520000Y-127000000D03*
%TO.P,U1,17,GND*%
%TO.N,GND*%
X114300000Y-88900000D03*
%TO.P,U1,18,VDD3P3*%
%TO.N,Net-(J4-Pin_1)*%
X114300000Y-91440000D03*
%TO.P,U1,19,SPI_CK*%
%TO.N,Net-(J4-Pin_4)*%
X114300000Y-93980000D03*
%TO.P,U1,20,SPI_MOSI*%
%TO.N,Net-(J4-Pin_3)*%
X114300000Y-96520000D03*
%TO.P,U1,21,SPI_MISO*%
%TO.N,Net-(J4-Pin_5)*%
X114300000Y-99060000D03*
%TO.P,U1,22,GPIO6*%
%TO.N,Net-(J4-Pin_7)*%
X114300000Y-101600000D03*
%TO.P,U1,23,GPIO7*%
%TO.N,Net-(J4-Pin_6)*%
X114300000Y-104140000D03*
%TO.P,U1,24,GPIO11*%
%TO.N,Net-(J4-Pin_8)*%
X114300000Y-106680000D03*
%TO.P,U1,25,GND*%
%TO.N,GND*%
X114300000Y-109220000D03*
%TO.P,U1,26,VDD3P3*%
%TO.N,Net-(J3-Pin_1)*%
X114300000Y-111760000D03*
%TO.P,U1,27,I2C_SCL*%
%TO.N,Net-(J3-Pin_3)*%
X114300000Y-114300000D03*
%TO.P,U1,28,I2C_SDA*%
%TO.N,Net-(J3-Pin_4)*%
X114300000Y-116840000D03*
%TO.P,U1,29,GPIO8*%
%TO.N,unconnected-(U1-GPIO8-Pad29)*%
X114300000Y-119380000D03*
%TO.P,U1,30,GPIO9*%
%TO.N,unconnected-(U1-GPIO9-Pad30)*%
X114300000Y-121920000D03*
%TO.P,U1,31,VDD5*%
%TO.N,+5V*%
X114300000Y-124460000D03*
%TO.P,U1,32,GND*%
%TO.N,GND*%
X114300000Y-127000000D03*
%TD*%
D12*
%TO.P,J5,2,Pin_2*%
%TO.N,GND*%
X63025000Y-129540000D03*
%TO.P,J5,1*%
%TO.N,+5V*%
X78025000Y-129540000D03*
%TD*%
D13*
%TO.P,J1,2,Pin_2*%
%TO.N,+5V*%
X71965000Y-118712500D03*
D14*
%TO.P,J1,1,Pin_1*%
%TO.N,GND*%
X66965000Y-118712500D03*
%TD*%
D15*
%TO.P,J2,3,Pin_3*%
%TO.N,GND*%
X88900000Y-99060000D03*
%TO.P,J2,2,Pin_2*%
%TO.N,Net-(J2-Pin_2)*%
X86360000Y-99060000D03*
D16*
%TO.P,J2,1,Pin_1*%
%TO.N,+3.3V*%
X83820000Y-99060000D03*
%TD*%
D17*
%TO.P,U2,16,TX*%
%TO.N,unconnected-(U2-TX-Pad16)*%
X77955000Y-87630000D03*
%TO.P,U2,15,RX*%
%TO.N,unconnected-(U2-RX-Pad15)*%
X77955000Y-90170000D03*
%TO.P,U2,14,SCL/D1*%
%TO.N,Net-(U1-GPIO12)*%
X77955000Y-92710000D03*
%TO.P,U2,13,SDA/D2*%
%TO.N,unconnected-(U2-SDA{slash}D2-Pad13)*%
X77955000Y-95250000D03*
%TO.P,U2,12,D3*%
%TO.N,unconnected-(U2-D3-Pad12)*%
X77955000Y-97790000D03*
%TO.P,U2,11,D4*%
%TO.N,unconnected-(U2-D4-Pad11)*%
X77955000Y-100330000D03*
%TO.P,U2,10,GND*%
%TO.N,GND*%
X77955000Y-102870000D03*
%TO.P,U2,9,5V*%
%TO.N,+5V*%
X77955000Y-105410000D03*
%TO.P,U2,8,3V3*%
%TO.N,+3.3V*%
X55095000Y-105410000D03*
%TO.P,U2,7,CS/D8*%
%TO.N,unconnected-(U2-CS{slash}D8-Pad7)*%
X55095000Y-102870000D03*
%TO.P,U2,6,MOSI/D7*%
%TO.N,unconnected-(U2-MOSI{slash}D7-Pad6)*%
X55095000Y-100330000D03*
%TO.P,U2,5,MISO/D6*%
%TO.N,unconnected-(U2-MISO{slash}D6-Pad5)*%
X55095000Y-97790000D03*
%TO.P,U2,4,SCK/D5*%
%TO.N,unconnected-(U2-SCK{slash}D5-Pad4)*%
X55095000Y-95250000D03*
%TO.P,U2,3,D0*%
%TO.N,unconnected-(U2-D0-Pad3)*%
X55095000Y-92710000D03*
%TO.P,U2,2,A0*%
%TO.N,unconnected-(U2-A0-Pad2)*%
X55095000Y-90170000D03*
D18*
%TO.P,U2,1,~{RST}*%
%TO.N,unconnected-(U2-~{RST}-Pad1)*%
X55095000Y-87630000D03*
%TD*%
D15*
%TO.P,J4,8,Pin_8*%
%TO.N,Net-(J4-Pin_8)*%
X132080000Y-104140000D03*
%TO.P,J4,7,Pin_7*%
%TO.N,Net-(J4-Pin_7)*%
X132080000Y-101600000D03*
%TO.P,J4,6,Pin_6*%
%TO.N,Net-(J4-Pin_6)*%
X132080000Y-99060000D03*
%TO.P,J4,5,Pin_5*%
%TO.N,Net-(J4-Pin_5)*%
X132080000Y-96520000D03*
%TO.P,J4,4,Pin_4*%
%TO.N,Net-(J4-Pin_4)*%
X132080000Y-93980000D03*
%TO.P,J4,3,Pin_3*%
%TO.N,Net-(J4-Pin_3)*%
X132080000Y-91440000D03*
%TO.P,J4,2,Pin_2*%
%TO.N,GND*%
X132080000Y-88900000D03*
D16*
%TO.P,J4,1,Pin_1*%
%TO.N,Net-(J4-Pin_1)*%
X132080000Y-86360000D03*
%TD*%
D15*
%TO.P,J3,4,Pin_4*%
%TO.N,Net-(J3-Pin_4)*%
X132080000Y-121920000D03*
%TO.P,J3,3,Pin_3*%
%TO.N,Net-(J3-Pin_3)*%
X132080000Y-119380000D03*
%TO.P,J3,2,Pin_2*%
%TO.N,GND*%
X132080000Y-116840000D03*
D16*
%TO.P,J3,1,Pin_1*%
%TO.N,Net-(J3-Pin_1)*%
X132080000Y-114300000D03*
%TD*%
D19*
%TO.N,+5V*%
X77955000Y-105410000D02*
X77955000Y-118745000D01*
X77955000Y-118745000D02*
X77955000Y-127000000D01*
X96520000Y-127000000D02*
X77955000Y-127000000D01*
X71965000Y-118712500D02*
X77922500Y-118712500D01*
D20*
X77922500Y-118712500D02*
X77955000Y-118745000D01*
D19*
X77955000Y-127000000D02*
X77955000Y-129470000D01*
D20*
X77955000Y-129470000D02*
X78025000Y-129540000D01*
X77955000Y-129500000D02*
X77985000Y-129500000D01*
X77985000Y-129500000D02*
X78025000Y-129540000D01*
X77955000Y-129500000D02*
X78022500Y-129567500D01*
D19*
X96520000Y-127000000D02*
X111760000Y-127000000D01*
D20*
%TO.N,Net-(J4-Pin_7)*%
X114300000Y-101600000D02*
X132080000Y-101600000D01*
%TO.N,Net-(J4-Pin_4)*%
X114300000Y-93980000D02*
X132080000Y-93980000D01*
D19*
%TO.N,+5V*%
X111760000Y-127000000D02*
X114300000Y-124460000D01*
%TD*%
%TA.AperFunction,Conductor*%
%TO.N,GND*%
G36*
X113606782Y-87649685D02*
G01*
X113652537Y-87702489D01*
X113662481Y-87771647D01*
X113633456Y-87835203D01*
X113612626Y-87854320D01*
X113609873Y-87856320D01*
X113609872Y-87856320D01*
X114211415Y-88457861D01*
X114126306Y-88480667D01*
X114023694Y-88539910D01*
X113939910Y-88623694D01*
X113880667Y-88726306D01*
X113857861Y-88811414D01*
X113256320Y-88209872D01*
X113256320Y-88209873D01*
X113230902Y-88244859D01*
X113230899Y-88244863D01*
X113141582Y-88420161D01*
X113080778Y-88607294D01*
X113050000Y-88801617D01*
X113050000Y-88998382D01*
X113080778Y-89192705D01*
X113141581Y-89379835D01*
X113230905Y-89555145D01*
X113256319Y-89590125D01*
X113256320Y-89590125D01*
X113857861Y-88988584D01*
X113880667Y-89073694D01*
X113939910Y-89176306D01*
X114023694Y-89260090D01*
X114126306Y-89319333D01*
X114211414Y-89342137D01*
X113609873Y-89943677D01*
X113609873Y-89943678D01*
X113644858Y-89969096D01*
X113821764Y-90059234D01*
X113872560Y-90107209D01*
X113889355Y-90175030D01*
X113866818Y-90241164D01*
X113821764Y-90280204D01*
X113644594Y-90370476D01*
X113590338Y-90409896D01*
X113485354Y-90486172D01*
X113485352Y-90486174D01*
X113485351Y-90486174D01*
X113346174Y-90625351D01*
X113346174Y-90625352D01*
X113346172Y-90625354D01*
X113314302Y-90669219D01*
X113230476Y-90784594D01*
X113141117Y-90959970D01*
X113080290Y-91147173D01*
X113049500Y-91341577D01*
X113049500Y-91538422D01*
X113080290Y-91732826D01*
X113141117Y-91920029D01*
X113196328Y-92028386D01*
X113230476Y-92095405D01*
X113346172Y-92254646D01*
X113485354Y-92393828D01*
X113644595Y-92509524D01*
X113767992Y-92572397D01*
X113821213Y-92599515D01*
X113872009Y-92647489D01*
X113888804Y-92715310D01*
X113866267Y-92781445D01*
X113821213Y-92820485D01*
X113644594Y-92910476D01*
X113590338Y-92949896D01*
X113485354Y-93026172D01*
X113485352Y-93026174D01*
X113485351Y-93026174D01*
X113346174Y-93165351D01*
X113346174Y-93165352D01*
X113346172Y-93165354D01*
X113314302Y-93209219D01*
X113230476Y-93324594D01*
X113141117Y-93499970D01*
X113080290Y-93687173D01*
X113049500Y-93881577D01*
X113049500Y-94078422D01*
X113080290Y-94272826D01*
X113141117Y-94460029D01*
X113228544Y-94631614D01*
X113230476Y-94635405D01*
X113346172Y-94794646D01*
X113485354Y-94933828D01*
X113644595Y-95049524D01*
X113767992Y-95112397D01*
X113821213Y-95139515D01*
X113872009Y-95187489D01*
X113888804Y-95255310D01*
X113866267Y-95321445D01*
X113821213Y-95360485D01*
X113644594Y-95450476D01*
X113590338Y-95489896D01*
X113485354Y-95566172D01*
X113485352Y-95566174D01*
X113485351Y-95566174D01*
X113346174Y-95705351D01*
X113346174Y-95705352D01*
X113346172Y-95705354D01*
X113314302Y-95749219D01*
X113230476Y-95864594D01*
X113141117Y-96039970D01*
X113080290Y-96227173D01*
X113049500Y-96421577D01*
X113049500Y-96618422D01*
X113080290Y-96812826D01*
X113141117Y-97000029D01*
X113196328Y-97108386D01*
X113230476Y-97175405D01*
X113346172Y-97334646D01*
X113485354Y-97473828D01*
X113644595Y-97589524D01*
X113767992Y-97652397D01*
X113821213Y-97679515D01*
X113872009Y-97727489D01*
X113888804Y-97795310D01*
X113866267Y-97861445D01*
X113821213Y-97900485D01*
X113644594Y-97990476D01*
X113590338Y-98029896D01*
X113485354Y-98106172D01*
X113485352Y-98106174D01*
X113485351Y-98106174D01*
X113346174Y-98245351D01*
X113346174Y-98245352D01*
X113346172Y-98245354D01*
X113314302Y-98289219D01*
X113230476Y-98404594D01*
X113141117Y-98579970D01*
X113080290Y-98767173D01*
X113049500Y-98961577D01*
X113049500Y-99158422D01*
X113080290Y-99352826D01*
X113141117Y-99540029D01*
X113196328Y-99648386D01*
X113230476Y-99715405D01*
X113346172Y-99874646D01*
X113485354Y-100013828D01*
X113644595Y-100129524D01*
X113734375Y-100175269D01*
X113821213Y-100219515D01*
X113872009Y-100267489D01*
X113888804Y-100335310D01*
X113866267Y-100401445D01*
X113821213Y-100440485D01*
X113644594Y-100530476D01*
X113590338Y-100569896D01*
X113485354Y-100646172D01*
X113485352Y-100646174D01*
X113485351Y-100646174D01*
X113346174Y-100785351D01*
X113346174Y-100785352D01*
X113346172Y-100785354D01*
X113314302Y-100829219D01*
X113230476Y-100944594D01*
X113141117Y-101119970D01*
X113080290Y-101307173D01*
X113049500Y-101501577D01*
X113049500Y-101698422D01*
X113080290Y-101892826D01*
X113141117Y-102080029D01*
X113228544Y-102251614D01*
X113230476Y-102255405D01*
X113346172Y-102414646D01*
X113485354Y-102553828D01*
X113644595Y-102669524D01*
X113767992Y-102732397D01*
X113821213Y-102759515D01*
X113872009Y-102807489D01*
X113888804Y-102875310D01*
X113866267Y-102941445D01*
X113821213Y-102980485D01*
X113644594Y-103070476D01*
X113590338Y-103109896D01*
X113485354Y-103186172D01*
X113485352Y-103186174D01*
X113485351Y-103186174D01*
X113346174Y-103325351D01*
X113346174Y-103325352D01*
X113346172Y-103325354D01*
X113314440Y-103369029D01*
X113230476Y-103484594D01*
X113141117Y-103659970D01*
X113080290Y-103847173D01*
X113049500Y-104041577D01*
X113049500Y-104238422D01*
X113080290Y-104432826D01*
X113141117Y-104620029D01*
X113196328Y-104728386D01*
X113230476Y-104795405D01*
X113346172Y-104954646D01*
X113485354Y-105093828D01*
X113644595Y-105209524D01*
X113767992Y-105272397D01*
X113821213Y-105299515D01*
X113872009Y-105347489D01*
X113888804Y-105415310D01*
X113866267Y-105481445D01*
X113821213Y-105520485D01*
X113644594Y-105610476D01*
X113553741Y-105676485D01*
X113485354Y-105726172D01*
X113485352Y-105726174D01*
X113485351Y-105726174D01*
X113346174Y-105865351D01*
X113346174Y-105865352D01*
X113346172Y-105865354D01*
X113314302Y-105909219D01*
X113230476Y-106024594D01*
X113141117Y-106199970D01*
X113080290Y-106387173D01*
X113049500Y-106581577D01*
X113049500Y-106778422D01*
X113080290Y-106972826D01*
X113141117Y-107160029D01*
X113230476Y-107335405D01*
X113346172Y-107494646D01*
X113485354Y-107633828D01*
X113604784Y-107720600D01*
X113644596Y-107749525D01*
X113821763Y-107839795D01*
X113872560Y-107887769D01*
X113889355Y-107955590D01*
X113866818Y-108021725D01*
X113821764Y-108060765D01*
X113644859Y-108150902D01*
X113609873Y-108176320D01*
X113609872Y-108176320D01*
X114211415Y-108777861D01*
X114126306Y-108800667D01*
X114023694Y-108859910D01*
X113939910Y-108943694D01*
X113880667Y-109046306D01*
X113857861Y-109131414D01*
X113256320Y-108529872D01*
X113256320Y-108529873D01*
X113230902Y-108564859D01*
X113230899Y-108564863D01*
X113141582Y-108740161D01*
X113080778Y-108927294D01*
X113050000Y-109121617D01*
X113050000Y-109318382D01*
X113080778Y-109512705D01*
X113141581Y-109699835D01*
X113230905Y-109875145D01*
X113256319Y-109910125D01*
X113256320Y-109910125D01*
X113857861Y-109308584D01*
X113880667Y-109393694D01*
X113939910Y-109496306D01*
X114023694Y-109580090D01*
X114126306Y-109639333D01*
X114211414Y-109662137D01*
X113609873Y-110263677D01*
X113609873Y-110263678D01*
X113644858Y-110289096D01*
X113821764Y-110379234D01*
X113872560Y-110427209D01*
X113889355Y-110495030D01*
X113866818Y-110561164D01*
X113821764Y-110600204D01*
X113644594Y-110690476D01*
X113553741Y-110756485D01*
X113485354Y-110806172D01*
X113485352Y-110806174D01*
X113485351Y-110806174D01*
X113346174Y-110945351D01*
X113346174Y-110945352D01*
X113346172Y-110945354D01*
X113296485Y-111013741D01*
X113230476Y-111104594D01*
X113141117Y-111279970D01*
X113080290Y-111467173D01*
X113049500Y-111661577D01*
X113049500Y-111858422D01*
X113080290Y-112052826D01*
X113141117Y-112240029D01*
X113230476Y-112415405D01*
X113346172Y-112574646D01*
X113485354Y-112713828D01*
X113644595Y-112829524D01*
X113767992Y-112892397D01*
X113821213Y-112919515D01*
X113872009Y-112967489D01*
X113888804Y-113035310D01*
X113866267Y-113101445D01*
X113821213Y-113140485D01*
X113644594Y-113230476D01*
X113553741Y-113296485D01*
X113485354Y-113346172D01*
X113485352Y-113346174D01*
X113485351Y-113346174D01*
X113346174Y-113485351D01*
X113346174Y-113485352D01*
X113346172Y-113485354D01*
X113296485Y-113553741D01*
X113230476Y-113644594D01*
X113141117Y-113819970D01*
X113080290Y-114007173D01*
X113049500Y-114201577D01*
X113049500Y-114398422D01*
X113080290Y-114592826D01*
X113141117Y-114780029D01*
X113230476Y-114955405D01*
X113346172Y-115114646D01*
X113485354Y-115253828D01*
X113644595Y-115369524D01*
X113767992Y-115432397D01*
X113821213Y-115459515D01*
X113872009Y-115507489D01*
X113888804Y-115575310D01*
X113866267Y-115641445D01*
X113821213Y-115680485D01*
X113644594Y-115770476D01*
X113553741Y-115836485D01*
X113485354Y-115886172D01*
X113485352Y-115886174D01*
X113485351Y-115886174D01*
X113346174Y-116025351D01*
X113346174Y-116025352D01*
X113346172Y-116025354D01*
X113307717Y-116078282D01*
X113230476Y-116184594D01*
X113141117Y-116359970D01*
X113080290Y-116547173D01*
X113049500Y-116741577D01*
X113049500Y-116938422D01*
X113080290Y-117132826D01*
X113141117Y-117320029D01*
X113230476Y-117495405D01*
X113346172Y-117654646D01*
X113485354Y-117793828D01*
X113644595Y-117909524D01*
X113734375Y-117955269D01*
X113821213Y-117999515D01*
X113872009Y-118047489D01*
X113888804Y-118115310D01*
X113866267Y-118181445D01*
X113821213Y-118220485D01*
X113644594Y-118310476D01*
X113590338Y-118349896D01*
X113485354Y-118426172D01*
X113485352Y-118426174D01*
X113485351Y-118426174D01*
X113346174Y-118565351D01*
X113346174Y-118565352D01*
X113346172Y-118565354D01*
X113296485Y-118633741D01*
X113230476Y-118724594D01*
X113141117Y-118899970D01*
X113080290Y-119087173D01*
X113049500Y-119281577D01*
X113049500Y-119478422D01*
X113080290Y-119672826D01*
X113141117Y-119860029D01*
X113220175Y-120015189D01*
X113230476Y-120035405D01*
X113346172Y-120194646D01*
X113485354Y-120333828D01*
X113644595Y-120449524D01*
X113767992Y-120512397D01*
X113821213Y-120539515D01*
X113872009Y-120587489D01*
X113888804Y-120655310D01*
X113866267Y-120721445D01*
X113821213Y-120760485D01*
X113644594Y-120850476D01*
X113590338Y-120889896D01*
X113485354Y-120966172D01*
X113485352Y-120966174D01*
X113485351Y-120966174D01*
X113346174Y-121105351D01*
X113346174Y-121105352D01*
X113346172Y-121105354D01*
X113296485Y-121173741D01*
X113230476Y-121264594D01*
X113141117Y-121439970D01*
X113080290Y-121627173D01*
X113049500Y-121821577D01*
X113049500Y-122018422D01*
X113080290Y-122212826D01*
X113141117Y-122400029D01*
X113230343Y-122575143D01*
X113230476Y-122575405D01*
X113346172Y-122734646D01*
X113485354Y-122873828D01*
X113644595Y-122989524D01*
X113767992Y-123052397D01*
X113821213Y-123079515D01*
X113872009Y-123127489D01*
X113888804Y-123195310D01*
X113866267Y-123261445D01*
X113821213Y-123300485D01*
X113644594Y-123390476D01*
X113553741Y-123456485D01*
X113485354Y-123506172D01*
X113485352Y-123506174D01*
X113485351Y-123506174D01*
X113346174Y-123645351D01*
X113346174Y-123645352D01*
X113346172Y-123645354D01*
X113296485Y-123713741D01*
X113230476Y-123804594D01*
X113141117Y-123979970D01*
X113080290Y-124167173D01*
X113049500Y-124361577D01*
X113049500Y-124558420D01*
X113052019Y-124574324D01*
X113043065Y-124643618D01*
X113017227Y-124681404D01*
X111485451Y-126213181D01*
X111424128Y-126246666D01*
X111397770Y-126249500D01*
X97583614Y-126249500D01*
X97516575Y-126229815D01*
X97483297Y-126198387D01*
X97473828Y-126185354D01*
X97334648Y-126046174D01*
X97334646Y-126046172D01*
X97210975Y-125956319D01*
X97175403Y-125930474D01*
X96998787Y-125840485D01*
X96947990Y-125792511D01*
X96931195Y-125724690D01*
X96953732Y-125658555D01*
X96998787Y-125619515D01*
X97175403Y-125529525D01*
X97175402Y-125529525D01*
X97175405Y-125529524D01*
X97334646Y-125413828D01*
X97473828Y-125274646D01*
X97589524Y-125115405D01*
X97678884Y-124940025D01*
X97739709Y-124752826D01*
X97767981Y-124574324D01*
X97770500Y-124558422D01*
X97770500Y-124361577D01*
X97739709Y-124167173D01*
X97678882Y-123979970D01*
X97589523Y-123804594D01*
X97473828Y-123645354D01*
X97334646Y-123506172D01*
X97175405Y-123390476D01*
X97000025Y-123301116D01*
X97000024Y-123301115D01*
X96998235Y-123300204D01*
X96947439Y-123252230D01*
X96930644Y-123184409D01*
X96953181Y-123118274D01*
X96998236Y-123079234D01*
X97175141Y-122989097D01*
X97210125Y-122963678D01*
X97210126Y-122963678D01*
X96608585Y-122362137D01*
X96693694Y-122339333D01*
X96796306Y-122280090D01*
X96880090Y-122196306D01*
X96939333Y-122093694D01*
X96962137Y-122008585D01*
X97563678Y-122610126D01*
X97563678Y-122610125D01*
X97589095Y-122575143D01*
X97678418Y-122399835D01*
X97739221Y-122212705D01*
X97770000Y-122018382D01*
X97770000Y-121821617D01*
X97739221Y-121627294D01*
X97678418Y-121440164D01*
X97589096Y-121264858D01*
X97563678Y-121229873D01*
X97563677Y-121229873D01*
X96962137Y-121831413D01*
X96939333Y-121746306D01*
X96880090Y-121643694D01*
X96796306Y-121559910D01*
X96693694Y-121500667D01*
X96608584Y-121477861D01*
X97210125Y-120876320D01*
X97210125Y-120876319D01*
X97175145Y-120850905D01*
X96998235Y-120760765D01*
X96947439Y-120712790D01*
X96930644Y-120644969D01*
X96953182Y-120578834D01*
X96998236Y-120539795D01*
X97000022Y-120538884D01*
X97000025Y-120538884D01*
X97175405Y-120449524D01*
X97334646Y-120333828D01*
X97473828Y-120194646D01*
X97589524Y-120035405D01*
X97678884Y-119860025D01*
X97739709Y-119672826D01*
X97770500Y-119478422D01*
X97770500Y-119281577D01*
X97739709Y-119087173D01*
X97699200Y-118962500D01*
X97678884Y-118899975D01*
X97678882Y-118899972D01*
X97678882Y-118899970D01*
X97589523Y-118724594D01*
X97473828Y-118565354D01*
X97334646Y-118426172D01*
X97229662Y-118349896D01*
X97175403Y-118310474D01*
X96998787Y-118220485D01*
X96947990Y-118172511D01*
X96931195Y-118104690D01*
X96953732Y-118038555D01*
X96998787Y-117999515D01*
X97175403Y-117909525D01*
X97175402Y-117909525D01*
X97175405Y-117909524D01*
X97334646Y-117793828D01*
X97473828Y-117654646D01*
X97589524Y-117495405D01*
X97678884Y-117320025D01*
X97739709Y-117132826D01*
X97755521Y-117032993D01*
X97770500Y-116938422D01*
X97770500Y-116741577D01*
X97739709Y-116547173D01*
X97678882Y-116359970D01*
X97589523Y-116184594D01*
X97473828Y-116025354D01*
X97334646Y-115886172D01*
X97255025Y-115828324D01*
X97175403Y-115770474D01*
X96998787Y-115680485D01*
X96947990Y-115632511D01*
X96931195Y-115564690D01*
X96953732Y-115498555D01*
X96998787Y-115459515D01*
X97175403Y-115369525D01*
X97175402Y-115369525D01*
X97175405Y-115369524D01*
X97334646Y-115253828D01*
X97473828Y-115114646D01*
X97589524Y-114955405D01*
X97678884Y-114780025D01*
X97739709Y-114592826D01*
X97770500Y-114398422D01*
X97770500Y-114201577D01*
X97739709Y-114007173D01*
X97678882Y-113819970D01*
X97589523Y-113644594D01*
X97473828Y-113485354D01*
X97334646Y-113346172D01*
X97255025Y-113288324D01*
X97175403Y-113230474D01*
X96998787Y-113140485D01*
X96947990Y-113092511D01*
X96931195Y-113024690D01*
X96953732Y-112958555D01*
X96998787Y-112919515D01*
X97175403Y-112829525D01*
X97175402Y-112829525D01*
X97175405Y-112829524D01*
X97334646Y-112713828D01*
X97473828Y-112574646D01*
X97589524Y-112415405D01*
X97678884Y-112240025D01*
X97739709Y-112052826D01*
X97770500Y-111858422D01*
X97770500Y-111661577D01*
X97739709Y-111467173D01*
X97678882Y-111279970D01*
X97589523Y-111104594D01*
X97473828Y-110945354D01*
X97334646Y-110806172D01*
X97255025Y-110748324D01*
X97175403Y-110690474D01*
X96998787Y-110600485D01*
X96947990Y-110552511D01*
X96931195Y-110484690D01*
X96953732Y-110418555D01*
X96998787Y-110379515D01*
X97175403Y-110289525D01*
X97175402Y-110289525D01*
X97175405Y-110289524D01*
X97334646Y-110173828D01*
X97473828Y-110034646D01*
X97589524Y-109875405D01*
X97678884Y-109700025D01*
X97739709Y-109512826D01*
X97739728Y-109512705D01*
X97770500Y-109318422D01*
X97770500Y-109121577D01*
X97739709Y-108927173D01*
X97678882Y-108739970D01*
X97631743Y-108647455D01*
X97589524Y-108564595D01*
X97473828Y-108405354D01*
X97334646Y-108266172D01*
X97210975Y-108176319D01*
X97175403Y-108150474D01*
X96998787Y-108060485D01*
X96947990Y-108012511D01*
X96931195Y-107944690D01*
X96953732Y-107878555D01*
X96998787Y-107839515D01*
X97175403Y-107749525D01*
X97175402Y-107749525D01*
X97175405Y-107749524D01*
X97334646Y-107633828D01*
X97473828Y-107494646D01*
X97589524Y-107335405D01*
X97678884Y-107160025D01*
X97739709Y-106972826D01*
X97770500Y-106778422D01*
X97770500Y-106581577D01*
X97739709Y-106387173D01*
X97678882Y-106199970D01*
X97589523Y-106024594D01*
X97473828Y-105865354D01*
X97334646Y-105726172D01*
X97175405Y-105610476D01*
X97000025Y-105521116D01*
X97000024Y-105521115D01*
X96998235Y-105520204D01*
X96947439Y-105472230D01*
X96930644Y-105404409D01*
X96953181Y-105338274D01*
X96998236Y-105299234D01*
X97175141Y-105209097D01*
X97210125Y-105183678D01*
X97210126Y-105183678D01*
X96608585Y-104582137D01*
X96693694Y-104559333D01*
X96796306Y-104500090D01*
X96880090Y-104416306D01*
X96939333Y-104313694D01*
X96962137Y-104228585D01*
X97563678Y-104830126D01*
X97563678Y-104830125D01*
X97589095Y-104795143D01*
X97678418Y-104619835D01*
X97739221Y-104432705D01*
X97770000Y-104238382D01*
X97770000Y-104041617D01*
X97739221Y-103847294D01*
X97678418Y-103660164D01*
X97589096Y-103484858D01*
X97563678Y-103449873D01*
X97563677Y-103449873D01*
X96962137Y-104051413D01*
X96939333Y-103966306D01*
X96880090Y-103863694D01*
X96796306Y-103779910D01*
X96693694Y-103720667D01*
X96608584Y-103697861D01*
X97210125Y-103096320D01*
X97210125Y-103096319D01*
X97175145Y-103070905D01*
X96998235Y-102980765D01*
X96947439Y-102932790D01*
X96930644Y-102864969D01*
X96953182Y-102798834D01*
X96998236Y-102759795D01*
X97000022Y-102758884D01*
X97000025Y-102758884D01*
X97175405Y-102669524D01*
X97334646Y-102553828D01*
X97473828Y-102414646D01*
X97589524Y-102255405D01*
X97678884Y-102080025D01*
X97739709Y-101892826D01*
X97761041Y-101758140D01*
X97770500Y-101698422D01*
X97770500Y-101501577D01*
X97739709Y-101307173D01*
X97678882Y-101119970D01*
X97607469Y-100979815D01*
X97589524Y-100944595D01*
X97473828Y-100785354D01*
X97334646Y-100646172D01*
X97229662Y-100569896D01*
X97175403Y-100530474D01*
X96998787Y-100440485D01*
X96947990Y-100392511D01*
X96931195Y-100324690D01*
X96953732Y-100258555D01*
X96998787Y-100219515D01*
X97175403Y-100129525D01*
X97175402Y-100129525D01*
X97175405Y-100129524D01*
X97334646Y-100013828D01*
X97473828Y-99874646D01*
X97589524Y-99715405D01*
X97678884Y-99540025D01*
X97739709Y-99352826D01*
X97755521Y-99252993D01*
X97770500Y-99158422D01*
X97770500Y-98961577D01*
X97739709Y-98767173D01*
X97678882Y-98579970D01*
X97602003Y-98429087D01*
X97589524Y-98404595D01*
X97473828Y-98245354D01*
X97334646Y-98106172D01*
X97229662Y-98029896D01*
X97175403Y-97990474D01*
X96998787Y-97900485D01*
X96947990Y-97852511D01*
X96931195Y-97784690D01*
X96953732Y-97718555D01*
X96998787Y-97679515D01*
X97175403Y-97589525D01*
X97175402Y-97589525D01*
X97175405Y-97589524D01*
X97334646Y-97473828D01*
X97473828Y-97334646D01*
X97589524Y-97175405D01*
X97678884Y-97000025D01*
X97739709Y-96812826D01*
X97742053Y-96798028D01*
X97770500Y-96618422D01*
X97770500Y-96421577D01*
X97739709Y-96227173D01*
X97678882Y-96039970D01*
X97589523Y-95864594D01*
X97473828Y-95705354D01*
X97334646Y-95566172D01*
X97229662Y-95489896D01*
X97175403Y-95450474D01*
X96998787Y-95360485D01*
X96947990Y-95312511D01*
X96931195Y-95244690D01*
X96953732Y-95178555D01*
X96998787Y-95139515D01*
X97175403Y-95049525D01*
X97175402Y-95049525D01*
X97175405Y-95049524D01*
X97334646Y-94933828D01*
X97473828Y-94794646D01*
X97589524Y-94635405D01*
X97678884Y-94460025D01*
X97739709Y-94272826D01*
X97742053Y-94258028D01*
X97770500Y-94078422D01*
X97770500Y-93881577D01*
X97739709Y-93687173D01*
X97678882Y-93499970D01*
X97607469Y-93359815D01*
X97589524Y-93324595D01*
X97473828Y-93165354D01*
X97334646Y-93026172D01*
X97229662Y-92949896D01*
X97175403Y-92910474D01*
X96998787Y-92820485D01*
X96947990Y-92772511D01*
X96931195Y-92704690D01*
X96953732Y-92638555D01*
X96998787Y-92599515D01*
X97175403Y-92509525D01*
X97175402Y-92509525D01*
X97175405Y-92509524D01*
X97334646Y-92393828D01*
X97473828Y-92254646D01*
X97589524Y-92095405D01*
X97678884Y-91920025D01*
X97739709Y-91732826D01*
X97742053Y-91718028D01*
X97770500Y-91538422D01*
X97770500Y-91341577D01*
X97739709Y-91147173D01*
X97678882Y-90959970D01*
X97589523Y-90784594D01*
X97473828Y-90625354D01*
X97334646Y-90486172D01*
X97180692Y-90374317D01*
X97138028Y-90318988D01*
X97132049Y-90249374D01*
X97164655Y-90187579D01*
X97225494Y-90153222D01*
X97253579Y-90150000D01*
X97317828Y-90150000D01*
X97317844Y-90149999D01*
X97377372Y-90143598D01*
X97377379Y-90143596D01*
X97512086Y-90093354D01*
X97512093Y-90093350D01*
X97627187Y-90007190D01*
X97627190Y-90007187D01*
X97713350Y-89892093D01*
X97713354Y-89892086D01*
X97763596Y-89757379D01*
X97763598Y-89757372D01*
X97769999Y-89697844D01*
X97770000Y-89697827D01*
X97770000Y-89150000D01*
X96895278Y-89150000D01*
X96939333Y-89073694D01*
X96970000Y-88959244D01*
X96970000Y-88840756D01*
X96939333Y-88726306D01*
X96895278Y-88650000D01*
X97770000Y-88650000D01*
X97770000Y-88102172D01*
X97769999Y-88102155D01*
X97763598Y-88042627D01*
X97763596Y-88042620D01*
X97713354Y-87907913D01*
X97713350Y-87907906D01*
X97653765Y-87828311D01*
X97629347Y-87762847D01*
X97644198Y-87694574D01*
X97693603Y-87645168D01*
X97753031Y-87630000D01*
X113539743Y-87630000D01*
X113606782Y-87649685D01*
G37*
%TD.AperFunction*%
%TA.AperFunction,Conductor*%
G36*
X135833039Y-76219685D02*
G01*
X135878794Y-76272489D01*
X135890000Y-76324000D01*
X135890000Y-134496000D01*
X135870315Y-134563039D01*
X135817511Y-134608794D01*
X135766000Y-134620000D01*
X52194000Y-134620000D01*
X52126961Y-134600315D01*
X52081206Y-134547511D01*
X52070000Y-134496000D01*
X52070000Y-129290000D01*
X61547769Y-129290000D01*
X62591988Y-129290000D01*
X62559075Y-129347007D01*
X62525000Y-129474174D01*
X62525000Y-129605826D01*
X62559075Y-129732993D01*
X62591988Y-129790000D01*
X61547769Y-129790000D01*
X61558242Y-129856126D01*
X61558242Y-129856129D01*
X61623904Y-130058217D01*
X61720379Y-130247557D01*
X61845272Y-130419459D01*
X61845276Y-130419464D01*
X61995535Y-130569723D01*
X61995540Y-130569727D01*
X62167442Y-130694620D01*
X62356782Y-130791095D01*
X62558870Y-130856757D01*
X62768754Y-130890000D01*
X62775000Y-130890000D01*
X62775000Y-129973012D01*
X62832007Y-130005925D01*
X62959174Y-130040000D01*
X63090826Y-130040000D01*
X63217993Y-130005925D01*
X63275000Y-129973012D01*
X63275000Y-130890000D01*
X63281246Y-130890000D01*
X63491127Y-130856757D01*
X63491130Y-130856757D01*
X63693217Y-130791095D01*
X63882557Y-130694620D01*
X64054459Y-130569727D01*
X64054464Y-130569723D01*
X64204723Y-130419464D01*
X64204727Y-130419459D01*
X64329620Y-130247557D01*
X64426095Y-130058217D01*
X64491757Y-129856129D01*
X64491757Y-129856126D01*
X64502231Y-129790000D01*
X63458012Y-129790000D01*
X63490925Y-129732993D01*
X63525000Y-129605826D01*
X63525000Y-129474174D01*
X63490925Y-129347007D01*
X63458012Y-129290000D01*
X64502231Y-129290000D01*
X64491757Y-129223873D01*
X64491757Y-129223870D01*
X64426095Y-129021782D01*
X64329620Y-128832442D01*
X64204727Y-128660540D01*
X64204723Y-128660535D01*
X64054464Y-128510276D01*
X64054459Y-128510272D01*
X63882557Y-128385379D01*
X63693217Y-128288904D01*
X63491129Y-128223242D01*
X63281246Y-128190000D01*
X63275000Y-128190000D01*
X63275000Y-129106988D01*
X63217993Y-129074075D01*
X63090826Y-129040000D01*
X62959174Y-129040000D01*
X62832007Y-129074075D01*
X62775000Y-129106988D01*
X62775000Y-128190000D01*
X62768754Y-128190000D01*
X62558872Y-128223242D01*
X62558869Y-128223242D01*
X62356782Y-128288904D01*
X62167442Y-128385379D01*
X61995540Y-128510272D01*
X61995535Y-128510276D01*
X61845276Y-128660535D01*
X61845272Y-128660540D01*
X61720379Y-128832442D01*
X61623904Y-129021782D01*
X61558242Y-129223870D01*
X61558242Y-129223873D01*
X61547769Y-129290000D01*
X52070000Y-129290000D01*
X52070000Y-117512514D01*
X65065000Y-117512514D01*
X65065000Y-118462500D01*
X66364999Y-118462500D01*
X66339979Y-118522902D01*
X66315000Y-118648481D01*
X66315000Y-118776519D01*
X66339979Y-118902098D01*
X66364999Y-118962500D01*
X65065000Y-118962500D01*
X65065000Y-119912485D01*
X65075493Y-120015189D01*
X65075494Y-120015196D01*
X65130641Y-120181618D01*
X65130643Y-120181623D01*
X65222684Y-120330844D01*
X65346655Y-120454815D01*
X65495876Y-120546856D01*
X65495881Y-120546858D01*
X65662303Y-120602005D01*
X65662310Y-120602006D01*
X65765014Y-120612499D01*
X65765027Y-120612500D01*
X66715000Y-120612500D01*
X66715000Y-119312501D01*
X66775402Y-119337521D01*
X66900981Y-119362500D01*
X67029019Y-119362500D01*
X67154598Y-119337521D01*
X67215000Y-119312501D01*
X67215000Y-120612500D01*
X68164973Y-120612500D01*
X68164985Y-120612499D01*
X68267689Y-120602006D01*
X68267696Y-120602005D01*
X68434118Y-120546858D01*
X68434123Y-120546856D01*
X68583344Y-120454815D01*
X68707315Y-120330844D01*
X68799356Y-120181623D01*
X68799358Y-120181618D01*
X68854505Y-120015196D01*
X68854506Y-120015189D01*
X68864999Y-119912485D01*
X68865000Y-119912472D01*
X68865000Y-118962500D01*
X67565001Y-118962500D01*
X67590021Y-118902098D01*
X67615000Y-118776519D01*
X67615000Y-118648481D01*
X67590021Y-118522902D01*
X67565001Y-118462500D01*
X68865000Y-118462500D01*
X68865000Y-117512527D01*
X68864999Y-117512514D01*
X68854506Y-117409810D01*
X68854505Y-117409803D01*
X68799358Y-117243381D01*
X68799356Y-117243376D01*
X68707315Y-117094155D01*
X68583344Y-116970184D01*
X68434123Y-116878143D01*
X68434118Y-116878141D01*
X68267696Y-116822994D01*
X68267689Y-116822993D01*
X68164985Y-116812500D01*
X67215000Y-116812500D01*
X67215000Y-118112498D01*
X67154598Y-118087479D01*
X67029019Y-118062500D01*
X66900981Y-118062500D01*
X66775402Y-118087479D01*
X66715000Y-118112498D01*
X66715000Y-116812500D01*
X65765014Y-116812500D01*
X65662310Y-116822993D01*
X65662303Y-116822994D01*
X65495881Y-116878141D01*
X65495876Y-116878143D01*
X65346655Y-116970184D01*
X65222684Y-117094155D01*
X65130643Y-117243376D01*
X65130641Y-117243381D01*
X65075494Y-117409803D01*
X65075493Y-117409810D01*
X65065000Y-117512514D01*
X52070000Y-117512514D01*
X52070000Y-86582135D01*
X53594500Y-86582135D01*
X53594500Y-88677870D01*
X53594501Y-88677876D01*
X53600908Y-88737483D01*
X53651202Y-88872328D01*
X53651206Y-88872335D01*
X53737452Y-88987544D01*
X53737455Y-88987547D01*
X53852664Y-89073793D01*
X53852673Y-89073798D01*
X53889914Y-89087688D01*
X53945848Y-89129559D01*
X53970266Y-89195023D01*
X53955415Y-89263296D01*
X53934265Y-89291550D01*
X53903027Y-89322787D01*
X53782715Y-89488386D01*
X53689781Y-89670776D01*
X53626522Y-89865465D01*
X53594500Y-90067648D01*
X53594500Y-90272351D01*
X53626522Y-90474534D01*
X53689781Y-90669223D01*
X53782715Y-90851613D01*
X53903028Y-91017213D01*
X54047786Y-91161971D01*
X54202749Y-91274556D01*
X54213390Y-91282287D01*
X54304840Y-91328883D01*
X54306080Y-91329515D01*
X54356876Y-91377490D01*
X54373671Y-91445311D01*
X54351134Y-91511446D01*
X54306080Y-91550485D01*
X54213386Y-91597715D01*
X54047786Y-91718028D01*
X53903028Y-91862786D01*
X53782715Y-92028386D01*
X53689781Y-92210776D01*
X53626522Y-92405465D01*
X53594500Y-92607648D01*
X53594500Y-92812351D01*
X53626522Y-93014534D01*
X53689781Y-93209223D01*
X53782715Y-93391613D01*
X53903028Y-93557213D01*
X54047786Y-93701971D01*
X54202749Y-93814556D01*
X54213390Y-93822287D01*
X54304840Y-93868883D01*
X54306080Y-93869515D01*
X54356876Y-93917490D01*
X54373671Y-93985311D01*
X54351134Y-94051446D01*
X54306080Y-94090485D01*
X54213386Y-94137715D01*
X54047786Y-94258028D01*
X53903028Y-94402786D01*
X53782715Y-94568386D01*
X53689781Y-94750776D01*
X53626522Y-94945465D01*
X53594500Y-95147648D01*
X53594500Y-95352351D01*
X53626522Y-95554534D01*
X53689781Y-95749223D01*
X53782715Y-95931613D01*
X53903028Y-96097213D01*
X54047786Y-96241971D01*
X54202749Y-96354556D01*
X54213390Y-96362287D01*
X54304840Y-96408883D01*
X54306080Y-96409515D01*
X54356876Y-96457490D01*
X54373671Y-96525311D01*
X54351134Y-96591446D01*
X54306080Y-96630485D01*
X54213386Y-96677715D01*
X54047786Y-96798028D01*
X53903028Y-96942786D01*
X53782715Y-97108386D01*
X53689781Y-97290776D01*
X53626522Y-97485465D01*
X53610041Y-97589525D01*
X53594500Y-97687648D01*
X53594500Y-97892352D01*
X53598878Y-97919995D01*
X53626522Y-98094534D01*
X53689781Y-98289223D01*
X53748567Y-98404594D01*
X53761046Y-98429087D01*
X53782715Y-98471613D01*
X53903028Y-98637213D01*
X54047786Y-98781971D01*
X54202749Y-98894556D01*
X54213390Y-98902287D01*
X54304840Y-98948883D01*
X54306080Y-98949515D01*
X54356876Y-98997490D01*
X54373671Y-99065311D01*
X54351134Y-99131446D01*
X54306080Y-99170485D01*
X54213386Y-99217715D01*
X54047786Y-99338028D01*
X53903028Y-99482786D01*
X53782715Y-99648386D01*
X53689781Y-99830776D01*
X53626522Y-100025465D01*
X53594500Y-100227648D01*
X53594500Y-100432351D01*
X53626522Y-100634534D01*
X53689781Y-100829223D01*
X53782715Y-101011613D01*
X53903028Y-101177213D01*
X54047786Y-101321971D01*
X54202749Y-101434556D01*
X54213390Y-101442287D01*
X54304840Y-101488883D01*
X54306080Y-101489515D01*
X54356876Y-101537490D01*
X54373671Y-101605311D01*
X54351134Y-101671446D01*
X54306080Y-101710485D01*
X54213386Y-101757715D01*
X54047786Y-101878028D01*
X53903028Y-102022786D01*
X53782715Y-102188386D01*
X53689781Y-102370776D01*
X53626522Y-102565465D01*
X53594500Y-102767648D01*
X53594500Y-102972351D01*
X53626522Y-103174534D01*
X53689781Y-103369223D01*
X53782715Y-103551613D01*
X53903028Y-103717213D01*
X54047786Y-103861971D01*
X54191394Y-103966306D01*
X54213390Y-103982287D01*
X54304840Y-104028883D01*
X54306080Y-104029515D01*
X54356876Y-104077490D01*
X54373671Y-104145311D01*
X54351134Y-104211446D01*
X54306080Y-104250485D01*
X54213386Y-104297715D01*
X54047786Y-104418028D01*
X53903028Y-104562786D01*
X53782715Y-104728386D01*
X53689781Y-104910776D01*
X53626522Y-105105465D01*
X53594500Y-105307648D01*
X53594500Y-105512351D01*
X53626522Y-105714534D01*
X53689781Y-105909223D01*
X53782715Y-106091613D01*
X53903028Y-106257213D01*
X54047786Y-106401971D01*
X54202749Y-106514556D01*
X54213390Y-106522287D01*
X54329607Y-106581503D01*
X54395776Y-106615218D01*
X54395778Y-106615218D01*
X54395781Y-106615220D01*
X54488047Y-106645199D01*
X54590465Y-106678477D01*
X54691557Y-106694488D01*
X54792648Y-106710500D01*
X54792649Y-106710500D01*
X55397351Y-106710500D01*
X55397352Y-106710500D01*
X55599534Y-106678477D01*
X55794219Y-106615220D01*
X55976610Y-106522287D01*
X56069590Y-106454732D01*
X56142213Y-106401971D01*
X56142215Y-106401968D01*
X56142219Y-106401966D01*
X56286966Y-106257219D01*
X56286968Y-106257215D01*
X56286971Y-106257213D01*
X56339732Y-106184590D01*
X56407287Y-106091610D01*
X56500220Y-105909219D01*
X56563477Y-105714534D01*
X56595500Y-105512352D01*
X56595500Y-105307648D01*
X56579959Y-105209525D01*
X56563477Y-105105465D01*
X56514473Y-104954647D01*
X56500220Y-104910781D01*
X56500218Y-104910778D01*
X56500218Y-104910776D01*
X56459124Y-104830125D01*
X56407287Y-104728390D01*
X56356447Y-104658414D01*
X56286971Y-104562786D01*
X56142213Y-104418028D01*
X55976614Y-104297715D01*
X55970006Y-104294348D01*
X55883917Y-104250483D01*
X55833123Y-104202511D01*
X55816328Y-104134690D01*
X55838865Y-104068555D01*
X55883917Y-104029516D01*
X55976610Y-103982287D01*
X55998606Y-103966306D01*
X56142213Y-103861971D01*
X56142215Y-103861968D01*
X56142219Y-103861966D01*
X56286966Y-103717219D01*
X56286968Y-103717215D01*
X56286971Y-103717213D01*
X56356445Y-103621588D01*
X56407287Y-103551610D01*
X56500220Y-103369219D01*
X56563477Y-103174534D01*
X56595500Y-102972352D01*
X56595500Y-102767648D01*
X56579959Y-102669525D01*
X56563477Y-102565465D01*
X56534127Y-102475137D01*
X56500220Y-102370781D01*
X56500218Y-102370778D01*
X56500218Y-102370776D01*
X56447955Y-102268205D01*
X56407287Y-102188390D01*
X56356447Y-102118414D01*
X56286971Y-102022786D01*
X56142213Y-101878028D01*
X55976614Y-101757715D01*
X55970006Y-101754348D01*
X55883917Y-101710483D01*
X55833123Y-101662511D01*
X55816328Y-101594690D01*
X55838865Y-101528555D01*
X55883917Y-101489516D01*
X55976610Y-101442287D01*
X55997770Y-101426913D01*
X56142213Y-101321971D01*
X56142215Y-101321968D01*
X56142219Y-101321966D01*
X56286966Y-101177219D01*
X56286968Y-101177215D01*
X56286971Y-101177213D01*
X56356445Y-101081588D01*
X56407287Y-101011610D01*
X56500220Y-100829219D01*
X56563477Y-100634534D01*
X56595500Y-100432352D01*
X56595500Y-100227648D01*
X56579959Y-100129525D01*
X56563477Y-100025465D01*
X56514473Y-99874647D01*
X56500220Y-99830781D01*
X56500218Y-99830778D01*
X56500218Y-99830776D01*
X56463391Y-99758500D01*
X56407287Y-99648390D01*
X56356447Y-99578414D01*
X56286971Y-99482786D01*
X56142213Y-99338028D01*
X55976614Y-99217715D01*
X55970006Y-99214348D01*
X55883917Y-99170483D01*
X55833123Y-99122511D01*
X55816328Y-99054690D01*
X55838865Y-98988555D01*
X55883917Y-98949516D01*
X55976610Y-98902287D01*
X56025169Y-98867007D01*
X56142213Y-98781971D01*
X56142215Y-98781968D01*
X56142219Y-98781966D01*
X56286966Y-98637219D01*
X56286968Y-98637215D01*
X56286971Y-98637213D01*
X56356445Y-98541588D01*
X56407287Y-98471610D01*
X56500220Y-98289219D01*
X56563477Y-98094534D01*
X56595500Y-97892352D01*
X56595500Y-97687648D01*
X56579959Y-97589525D01*
X56563477Y-97485465D01*
X56514473Y-97334647D01*
X56500220Y-97290781D01*
X56500218Y-97290778D01*
X56500218Y-97290776D01*
X56466503Y-97224607D01*
X56407287Y-97108390D01*
X56356447Y-97038414D01*
X56286971Y-96942786D01*
X56142213Y-96798028D01*
X55976614Y-96677715D01*
X55970006Y-96674348D01*
X55883917Y-96630483D01*
X55833123Y-96582511D01*
X55816328Y-96514690D01*
X55838865Y-96448555D01*
X55883917Y-96409516D01*
X55976610Y-96362287D01*
X55997770Y-96346913D01*
X56142213Y-96241971D01*
X56142215Y-96241968D01*
X56142219Y-96241966D01*
X56286966Y-96097219D01*
X56286968Y-96097215D01*
X56286971Y-96097213D01*
X56356445Y-96001588D01*
X56407287Y-95931610D01*
X56500220Y-95749219D01*
X56563477Y-95554534D01*
X56595500Y-95352352D01*
X56595500Y-95147648D01*
X56579959Y-95049525D01*
X56563477Y-94945465D01*
X56514473Y-94794647D01*
X56500220Y-94750781D01*
X56500218Y-94750778D01*
X56500218Y-94750776D01*
X56447955Y-94648205D01*
X56407287Y-94568390D01*
X56356447Y-94498414D01*
X56286971Y-94402786D01*
X56142213Y-94258028D01*
X55976614Y-94137715D01*
X55970006Y-94134348D01*
X55883917Y-94090483D01*
X55833123Y-94042511D01*
X55816328Y-93974690D01*
X55838865Y-93908555D01*
X55883917Y-93869516D01*
X55976610Y-93822287D01*
X55997770Y-93806913D01*
X56142213Y-93701971D01*
X56142215Y-93701968D01*
X56142219Y-93701966D01*
X56286966Y-93557219D01*
X56286968Y-93557215D01*
X56286971Y-93557213D01*
X56356445Y-93461588D01*
X56407287Y-93391610D01*
X56500220Y-93209219D01*
X56563477Y-93014534D01*
X56595500Y-92812352D01*
X56595500Y-92607648D01*
X56579959Y-92509525D01*
X56563477Y-92405465D01*
X56514473Y-92254647D01*
X56500220Y-92210781D01*
X56500218Y-92210778D01*
X56500218Y-92210776D01*
X56466503Y-92144607D01*
X56407287Y-92028390D01*
X56356447Y-91958414D01*
X56286971Y-91862786D01*
X56142213Y-91718028D01*
X55976614Y-91597715D01*
X55970006Y-91594348D01*
X55883917Y-91550483D01*
X55833123Y-91502511D01*
X55816328Y-91434690D01*
X55838865Y-91368555D01*
X55883917Y-91329516D01*
X55976610Y-91282287D01*
X56044221Y-91233165D01*
X56142213Y-91161971D01*
X56142215Y-91161968D01*
X56142219Y-91161966D01*
X56286966Y-91017219D01*
X56286968Y-91017215D01*
X56286971Y-91017213D01*
X56356445Y-90921588D01*
X56407287Y-90851610D01*
X56500220Y-90669219D01*
X56563477Y-90474534D01*
X56595500Y-90272352D01*
X56595500Y-90067648D01*
X56575865Y-89943677D01*
X56563477Y-89865465D01*
X56500218Y-89670776D01*
X56441299Y-89555143D01*
X56407287Y-89488390D01*
X56356304Y-89418217D01*
X56286971Y-89322786D01*
X56255736Y-89291551D01*
X56222251Y-89230228D01*
X56227235Y-89160536D01*
X56269107Y-89104603D01*
X56300080Y-89087689D01*
X56337331Y-89073796D01*
X56452546Y-88987546D01*
X56538796Y-88872331D01*
X56589091Y-88737483D01*
X56595500Y-88677873D01*
X56595499Y-86582128D01*
X56589091Y-86522517D01*
X56587300Y-86517715D01*
X56542401Y-86397333D01*
X56537417Y-86327641D01*
X56570902Y-86266318D01*
X56632226Y-86232834D01*
X56658583Y-86230000D01*
X77121561Y-86230000D01*
X77188600Y-86249685D01*
X77234355Y-86302489D01*
X77244299Y-86371647D01*
X77215274Y-86435203D01*
X77177856Y-86464485D01*
X77073385Y-86517715D01*
X76907786Y-86638028D01*
X76763028Y-86782786D01*
X76642715Y-86948386D01*
X76549781Y-87130776D01*
X76486522Y-87325465D01*
X76454500Y-87527648D01*
X76454500Y-87732351D01*
X76486522Y-87934534D01*
X76549781Y-88129223D01*
X76642715Y-88311613D01*
X76763028Y-88477213D01*
X76907786Y-88621971D01*
X77051394Y-88726306D01*
X77073390Y-88742287D01*
X77164840Y-88788883D01*
X77166080Y-88789515D01*
X77216876Y-88837490D01*
X77233671Y-88905311D01*
X77211134Y-88971446D01*
X77166080Y-89010485D01*
X77073386Y-89057715D01*
X76907786Y-89178028D01*
X76763028Y-89322786D01*
X76642715Y-89488386D01*
X76549781Y-89670776D01*
X76486522Y-89865465D01*
X76454500Y-90067648D01*
X76454500Y-90272351D01*
X76486522Y-90474534D01*
X76549781Y-90669223D01*
X76642715Y-90851613D01*
X76763028Y-91017213D01*
X76907786Y-91161971D01*
X77062749Y-91274556D01*
X77073390Y-91282287D01*
X77164840Y-91328883D01*
X77166080Y-91329515D01*
X77216876Y-91377490D01*
X77233671Y-91445311D01*
X77211134Y-91511446D01*
X77166080Y-91550485D01*
X77073386Y-91597715D01*
X76907786Y-91718028D01*
X76763028Y-91862786D01*
X76642715Y-92028386D01*
X76549781Y-92210776D01*
X76486522Y-92405465D01*
X76454500Y-92607648D01*
X76454500Y-92812351D01*
X76486522Y-93014534D01*
X76549781Y-93209223D01*
X76642715Y-93391613D01*
X76763028Y-93557213D01*
X76907786Y-93701971D01*
X77062749Y-93814556D01*
X77073390Y-93822287D01*
X77164840Y-93868883D01*
X77166080Y-93869515D01*
X77216876Y-93917490D01*
X77233671Y-93985311D01*
X77211134Y-94051446D01*
X77166080Y-94090485D01*
X77073386Y-94137715D01*
X76907786Y-94258028D01*
X76763028Y-94402786D01*
X76642715Y-94568386D01*
X76549781Y-94750776D01*
X76486522Y-94945465D01*
X76454500Y-95147648D01*
X76454500Y-95352351D01*
X76486522Y-95554534D01*
X76549781Y-95749223D01*
X76642715Y-95931613D01*
X76763028Y-96097213D01*
X76907786Y-96241971D01*
X77062749Y-96354556D01*
X77073390Y-96362287D01*
X77164840Y-96408883D01*
X77166080Y-96409515D01*
X77216876Y-96457490D01*
X77233671Y-96525311D01*
X77211134Y-96591446D01*
X77166080Y-96630485D01*
X77073386Y-96677715D01*
X76907786Y-96798028D01*
X76763028Y-96942786D01*
X76642715Y-97108386D01*
X76549781Y-97290776D01*
X76486522Y-97485465D01*
X76470041Y-97589525D01*
X76454500Y-97687648D01*
X76454500Y-97892352D01*
X76458878Y-97919995D01*
X76486522Y-98094534D01*
X76549781Y-98289223D01*
X76608567Y-98404594D01*
X76621046Y-98429087D01*
X76642715Y-98471613D01*
X76763028Y-98637213D01*
X76907786Y-98781971D01*
X77062749Y-98894556D01*
X77073390Y-98902287D01*
X77164840Y-98948883D01*
X77166080Y-98949515D01*
X77216876Y-98997490D01*
X77233671Y-99065311D01*
X77211134Y-99131446D01*
X77166080Y-99170485D01*
X77073386Y-99217715D01*
X76907786Y-99338028D01*
X76763028Y-99482786D01*
X76642715Y-99648386D01*
X76549781Y-99830776D01*
X76486522Y-100025465D01*
X76454500Y-100227648D01*
X76454500Y-100432351D01*
X76486522Y-100634534D01*
X76549781Y-100829223D01*
X76642715Y-101011613D01*
X76763028Y-101177213D01*
X76907786Y-101321971D01*
X77062749Y-101434556D01*
X77073390Y-101442287D01*
X77145424Y-101478990D01*
X77166629Y-101489795D01*
X77217425Y-101537770D01*
X77234220Y-101605591D01*
X77211682Y-101671726D01*
X77166629Y-101710765D01*
X77073650Y-101758140D01*
X76908105Y-101878417D01*
X76908104Y-101878417D01*
X76763417Y-102023104D01*
X76763417Y-102023105D01*
X76643140Y-102188650D01*
X76550244Y-102370970D01*
X76487009Y-102565586D01*
X76478391Y-102620000D01*
X77579722Y-102620000D01*
X77535667Y-102696306D01*
X77505000Y-102810756D01*
X77505000Y-102929244D01*
X77535667Y-103043694D01*
X77579722Y-103120000D01*
X76478391Y-103120000D01*
X76487009Y-103174413D01*
X76550244Y-103369029D01*
X76643140Y-103551349D01*
X76763417Y-103716894D01*
X76763417Y-103716895D01*
X76908104Y-103861582D01*
X77073652Y-103981861D01*
X77166628Y-104029234D01*
X77217425Y-104077208D01*
X77234220Y-104145029D01*
X77211683Y-104211164D01*
X77166630Y-104250203D01*
X77073388Y-104297713D01*
X76907786Y-104418028D01*
X76763028Y-104562786D01*
X76642715Y-104728386D01*
X76549781Y-104910776D01*
X76486522Y-105105465D01*
X76454500Y-105307648D01*
X76454500Y-105512351D01*
X76486522Y-105714534D01*
X76549781Y-105909223D01*
X76642715Y-106091613D01*
X76763028Y-106257213D01*
X76763034Y-106257219D01*
X76907781Y-106401966D01*
X77073390Y-106522287D01*
X77136795Y-106554593D01*
X77187590Y-106602566D01*
X77204500Y-106665077D01*
X77204500Y-117838000D01*
X77184815Y-117905039D01*
X77132011Y-117950794D01*
X77080500Y-117962000D01*
X73794073Y-117962000D01*
X73727034Y-117942315D01*
X73681279Y-117889511D01*
X73679511Y-117885450D01*
X73679264Y-117884854D01*
X73673164Y-117870127D01*
X73548599Y-117654373D01*
X73396938Y-117456724D01*
X73396933Y-117456718D01*
X73220781Y-117280566D01*
X73220774Y-117280560D01*
X73023126Y-117128900D01*
X72807376Y-117004337D01*
X72807361Y-117004330D01*
X72577207Y-116908998D01*
X72336561Y-116844517D01*
X72089575Y-116812001D01*
X72089570Y-116812000D01*
X72089565Y-116812000D01*
X71840435Y-116812000D01*
X71840429Y-116812000D01*
X71840424Y-116812001D01*
X71593438Y-116844517D01*
X71352792Y-116908998D01*
X71122638Y-117004330D01*
X71122623Y-117004337D01*
X70906873Y-117128900D01*
X70709225Y-117280560D01*
X70709218Y-117280566D01*
X70533066Y-117456718D01*
X70533060Y-117456725D01*
X70381400Y-117654373D01*
X70256837Y-117870123D01*
X70256830Y-117870138D01*
X70161498Y-118100292D01*
X70097017Y-118340938D01*
X70064501Y-118587924D01*
X70064500Y-118587941D01*
X70064500Y-118837058D01*
X70064501Y-118837075D01*
X70097017Y-119084061D01*
X70161498Y-119324707D01*
X70256830Y-119554861D01*
X70256837Y-119554876D01*
X70381400Y-119770626D01*
X70533060Y-119968274D01*
X70533066Y-119968281D01*
X70709218Y-120144433D01*
X70709225Y-120144439D01*
X70906873Y-120296099D01*
X71122623Y-120420662D01*
X71122638Y-120420669D01*
X71205075Y-120454815D01*
X71352793Y-120516002D01*
X71593435Y-120580482D01*
X71840435Y-120613000D01*
X71840442Y-120613000D01*
X72089558Y-120613000D01*
X72089565Y-120613000D01*
X72336565Y-120580482D01*
X72577207Y-120516002D01*
X72807373Y-120420664D01*
X73023127Y-120296099D01*
X73220776Y-120144438D01*
X73396938Y-119968276D01*
X73548599Y-119770627D01*
X73673164Y-119554873D01*
X73679511Y-119539550D01*
X73723351Y-119485146D01*
X73789644Y-119463079D01*
X73794073Y-119463000D01*
X77080500Y-119463000D01*
X77147539Y-119482685D01*
X77193294Y-119535489D01*
X77204500Y-119587000D01*
X77204500Y-128294655D01*
X77184815Y-128361694D01*
X77153385Y-128394973D01*
X76995214Y-128509890D01*
X76995209Y-128509894D01*
X76844890Y-128660213D01*
X76719951Y-128832179D01*
X76623444Y-129021585D01*
X76557753Y-129223760D01*
X76524500Y-129433713D01*
X76524500Y-129646286D01*
X76557753Y-129856239D01*
X76623444Y-130058414D01*
X76719951Y-130247820D01*
X76844890Y-130419786D01*
X76995213Y-130570109D01*
X77167179Y-130695048D01*
X77167181Y-130695049D01*
X77167184Y-130695051D01*
X77356588Y-130791557D01*
X77558757Y-130857246D01*
X77768713Y-130890500D01*
X77768714Y-130890500D01*
X78281286Y-130890500D01*
X78281287Y-130890500D01*
X78491243Y-130857246D01*
X78693412Y-130791557D01*
X78882816Y-130695051D01*
X78904789Y-130679086D01*
X79054786Y-130570109D01*
X79054788Y-130570106D01*
X79054792Y-130570104D01*
X79205104Y-130419792D01*
X79205106Y-130419788D01*
X79205109Y-130419786D01*
X79330048Y-130247820D01*
X79330047Y-130247820D01*
X79330051Y-130247816D01*
X79426557Y-130058412D01*
X79492246Y-129856243D01*
X79525500Y-129646287D01*
X79525500Y-129433713D01*
X79492246Y-129223757D01*
X79426557Y-129021588D01*
X79330051Y-128832184D01*
X79330049Y-128832181D01*
X79330048Y-128832179D01*
X79205109Y-128660213D01*
X79054786Y-128509890D01*
X78882819Y-128384951D01*
X78882818Y-128384950D01*
X78882816Y-128384949D01*
X78824522Y-128355246D01*
X78773205Y-128329099D01*
X78722409Y-128281124D01*
X78705500Y-128218614D01*
X78705500Y-127874500D01*
X78725185Y-127807461D01*
X78777989Y-127761706D01*
X78829500Y-127750500D01*
X95456386Y-127750500D01*
X95523425Y-127770185D01*
X95556702Y-127801612D01*
X95566172Y-127814646D01*
X95705354Y-127953828D01*
X95864595Y-128069524D01*
X95947455Y-128111743D01*
X96039970Y-128158882D01*
X96039972Y-128158882D01*
X96039975Y-128158884D01*
X96135740Y-128190000D01*
X96227173Y-128219709D01*
X96421578Y-128250500D01*
X96421583Y-128250500D01*
X96618422Y-128250500D01*
X96812826Y-128219709D01*
X96816196Y-128218614D01*
X97000025Y-128158884D01*
X97175405Y-128069524D01*
X97334646Y-127953828D01*
X97473828Y-127814646D01*
X97488152Y-127794930D01*
X97493852Y-127788950D01*
X97517239Y-127775440D01*
X97538628Y-127758948D01*
X97549240Y-127756954D01*
X97554353Y-127754002D01*
X97562826Y-127754403D01*
X97583614Y-127750500D01*
X111833920Y-127750500D01*
X111931462Y-127731096D01*
X111978913Y-127721658D01*
X112115495Y-127665084D01*
X112164729Y-127632186D01*
X112238416Y-127582952D01*
X112838322Y-126983045D01*
X112899642Y-126949562D01*
X112969333Y-126954546D01*
X113025267Y-126996417D01*
X113049684Y-127061882D01*
X113050000Y-127070728D01*
X113050000Y-127098382D01*
X113080778Y-127292705D01*
X113141581Y-127479835D01*
X113230905Y-127655145D01*
X113256319Y-127690125D01*
X113256320Y-127690125D01*
X113857861Y-127088584D01*
X113880667Y-127173694D01*
X113939910Y-127276306D01*
X114023694Y-127360090D01*
X114126306Y-127419333D01*
X114211414Y-127442137D01*
X113609873Y-128043677D01*
X113609873Y-128043678D01*
X113644858Y-128069096D01*
X113820164Y-128158418D01*
X114007294Y-128219221D01*
X114201618Y-128250000D01*
X114398382Y-128250000D01*
X114592705Y-128219221D01*
X114779835Y-128158418D01*
X114955143Y-128069095D01*
X114990125Y-128043678D01*
X114990126Y-128043678D01*
X114388585Y-127442137D01*
X114473694Y-127419333D01*
X114576306Y-127360090D01*
X114660090Y-127276306D01*
X114719333Y-127173694D01*
X114742137Y-127088585D01*
X115343678Y-127690126D01*
X115343678Y-127690125D01*
X115369095Y-127655143D01*
X115458418Y-127479835D01*
X115519221Y-127292705D01*
X115550000Y-127098382D01*
X115550000Y-126901617D01*
X115519221Y-126707294D01*
X115458418Y-126520164D01*
X115369096Y-126344858D01*
X115343678Y-126309873D01*
X115343677Y-126309873D01*
X114742137Y-126911413D01*
X114719333Y-126826306D01*
X114660090Y-126723694D01*
X114576306Y-126639910D01*
X114473694Y-126580667D01*
X114388583Y-126557861D01*
X114990125Y-125956320D01*
X114990125Y-125956319D01*
X114955145Y-125930905D01*
X114778235Y-125840765D01*
X114727439Y-125792790D01*
X114710644Y-125724969D01*
X114733182Y-125658834D01*
X114778236Y-125619795D01*
X114780022Y-125618884D01*
X114780025Y-125618884D01*
X114955405Y-125529524D01*
X115114646Y-125413828D01*
X115253828Y-125274646D01*
X115369524Y-125115405D01*
X115458884Y-124940025D01*
X115519709Y-124752826D01*
X115547981Y-124574324D01*
X115550500Y-124558422D01*
X115550500Y-124361577D01*
X115519709Y-124167173D01*
X115458882Y-123979970D01*
X115369523Y-123804594D01*
X115253828Y-123645354D01*
X115114646Y-123506172D01*
X115035025Y-123448324D01*
X114955403Y-123390474D01*
X114778787Y-123300485D01*
X114727990Y-123252511D01*
X114711195Y-123184690D01*
X114733732Y-123118555D01*
X114778787Y-123079515D01*
X114955403Y-122989525D01*
X114955402Y-122989525D01*
X114955405Y-122989524D01*
X115114646Y-122873828D01*
X115253828Y-122734646D01*
X115369524Y-122575405D01*
X115458884Y-122400025D01*
X115519709Y-122212826D01*
X115519728Y-122212705D01*
X115550500Y-122018422D01*
X115550500Y-121821577D01*
X115519709Y-121627173D01*
X115458882Y-121439970D01*
X115411743Y-121347455D01*
X115369524Y-121264595D01*
X115253828Y-121105354D01*
X115114646Y-120966172D01*
X115009662Y-120889896D01*
X114955403Y-120850474D01*
X114778787Y-120760485D01*
X114727990Y-120712511D01*
X114711195Y-120644690D01*
X114733732Y-120578555D01*
X114778787Y-120539515D01*
X114955403Y-120449525D01*
X114955402Y-120449525D01*
X114955405Y-120449524D01*
X115114646Y-120333828D01*
X115253828Y-120194646D01*
X115369524Y-120035405D01*
X115458884Y-119860025D01*
X115519709Y-119672826D01*
X115550500Y-119478422D01*
X115550500Y-119281577D01*
X115519709Y-119087173D01*
X115479200Y-118962500D01*
X115458884Y-118899975D01*
X115458882Y-118899972D01*
X115458882Y-118899970D01*
X115369523Y-118724594D01*
X115253828Y-118565354D01*
X115114646Y-118426172D01*
X115009662Y-118349896D01*
X114955403Y-118310474D01*
X114778787Y-118220485D01*
X114727990Y-118172511D01*
X114711195Y-118104690D01*
X114733732Y-118038555D01*
X114778787Y-117999515D01*
X114955403Y-117909525D01*
X114955402Y-117909525D01*
X114955405Y-117909524D01*
X115114646Y-117793828D01*
X115253828Y-117654646D01*
X115369524Y-117495405D01*
X115458884Y-117320025D01*
X115519709Y-117132826D01*
X115535521Y-117032993D01*
X115550500Y-116938422D01*
X115550500Y-116741580D01*
X115550499Y-116741574D01*
X115519709Y-116547173D01*
X115458882Y-116359970D01*
X115369523Y-116184594D01*
X115253828Y-116025354D01*
X115114646Y-115886172D01*
X115035025Y-115828324D01*
X114955403Y-115770474D01*
X114778787Y-115680485D01*
X114727990Y-115632511D01*
X114711195Y-115564690D01*
X114733732Y-115498555D01*
X114778787Y-115459515D01*
X114955403Y-115369525D01*
X114955402Y-115369525D01*
X114955405Y-115369524D01*
X115114646Y-115253828D01*
X115253828Y-115114646D01*
X115369524Y-114955405D01*
X115458884Y-114780025D01*
X115519709Y-114592826D01*
X115550500Y-114398422D01*
X115550500Y-114201577D01*
X115519709Y-114007173D01*
X115458882Y-113819970D01*
X115369523Y-113644594D01*
X115253828Y-113485354D01*
X115170609Y-113402135D01*
X130729500Y-113402135D01*
X130729500Y-115197870D01*
X130729501Y-115197876D01*
X130735908Y-115257483D01*
X130786202Y-115392328D01*
X130786206Y-115392335D01*
X130872452Y-115507544D01*
X130872455Y-115507547D01*
X130987664Y-115593793D01*
X130987671Y-115593797D01*
X131032618Y-115610561D01*
X131122517Y-115644091D01*
X131182127Y-115650500D01*
X131192685Y-115650499D01*
X131259723Y-115670179D01*
X131280372Y-115686818D01*
X131950591Y-116357037D01*
X131887007Y-116374075D01*
X131772993Y-116439901D01*
X131679901Y-116532993D01*
X131614075Y-116647007D01*
X131597037Y-116710591D01*
X130964728Y-116078282D01*
X130964727Y-116078282D01*
X130925380Y-116132439D01*
X130828904Y-116321782D01*
X130763242Y-116523869D01*
X130763242Y-116523872D01*
X130730000Y-116733753D01*
X130730000Y-116946246D01*
X130763242Y-117156127D01*
X130763242Y-117156130D01*
X130828904Y-117358217D01*
X130925375Y-117547550D01*
X130964728Y-117601716D01*
X131597037Y-116969408D01*
X131614075Y-117032993D01*
X131679901Y-117147007D01*
X131772993Y-117240099D01*
X131887007Y-117305925D01*
X131950590Y-117322962D01*
X131318282Y-117955269D01*
X131318282Y-117955270D01*
X131372452Y-117994626D01*
X131372451Y-117994626D01*
X131381495Y-117999234D01*
X131432292Y-118047208D01*
X131449087Y-118115029D01*
X131426550Y-118181164D01*
X131381499Y-118220202D01*
X131372182Y-118224949D01*
X131200213Y-118349890D01*
X131049890Y-118500213D01*
X130924951Y-118672179D01*
X130828444Y-118861585D01*
X130762753Y-119063760D01*
X130729500Y-119273713D01*
X130729500Y-119486286D01*
X130740363Y-119554876D01*
X130762754Y-119696243D01*
X130815970Y-119860025D01*
X130828444Y-119898414D01*
X130924951Y-120087820D01*
X131049890Y-120259786D01*
X131200213Y-120410109D01*
X131372182Y-120535050D01*
X131380946Y-120539516D01*
X131431742Y-120587491D01*
X131448536Y-120655312D01*
X131425998Y-120721447D01*
X131380946Y-120760484D01*
X131372182Y-120764949D01*
X131200213Y-120889890D01*
X131049890Y-121040213D01*
X130924951Y-121212179D01*
X130828444Y-121401585D01*
X130762753Y-121603760D01*
X130729500Y-121813713D01*
X130729500Y-122026286D01*
X130756428Y-122196306D01*
X130762754Y-122236243D01*
X130815970Y-122400025D01*
X130828444Y-122438414D01*
X130924951Y-122627820D01*
X131049890Y-122799786D01*
X131200213Y-122950109D01*
X131372179Y-123075048D01*
X131372181Y-123075049D01*
X131372184Y-123075051D01*
X131561588Y-123171557D01*
X131763757Y-123237246D01*
X131973713Y-123270500D01*
X131973714Y-123270500D01*
X132186286Y-123270500D01*
X132186287Y-123270500D01*
X132396243Y-123237246D01*
X132598412Y-123171557D01*
X132787816Y-123075051D01*
X132809789Y-123059086D01*
X132959786Y-122950109D01*
X132959788Y-122950106D01*
X132959792Y-122950104D01*
X133110104Y-122799792D01*
X133110106Y-122799788D01*
X133110109Y-122799786D01*
X133235048Y-122627820D01*
X133235047Y-122627820D01*
X133235051Y-122627816D01*
X133331557Y-122438412D01*
X133397246Y-122236243D01*
X133430500Y-122026287D01*
X133430500Y-121813713D01*
X133397246Y-121603757D01*
X133331557Y-121401588D01*
X133235051Y-121212184D01*
X133235049Y-121212181D01*
X133235048Y-121212179D01*
X133110109Y-121040213D01*
X132959786Y-120889890D01*
X132787820Y-120764951D01*
X132779604Y-120760765D01*
X132779054Y-120760485D01*
X132728259Y-120712512D01*
X132711463Y-120644692D01*
X132733999Y-120578556D01*
X132779054Y-120539515D01*
X132787816Y-120535051D01*
X132814036Y-120516001D01*
X132959786Y-120410109D01*
X132959788Y-120410106D01*
X132959792Y-120410104D01*
X133110104Y-120259792D01*
X133110106Y-120259788D01*
X133110109Y-120259786D01*
X133235048Y-120087820D01*
X133235047Y-120087820D01*
X133235051Y-120087816D01*
X133331557Y-119898412D01*
X133397246Y-119696243D01*
X133430500Y-119486287D01*
X133430500Y-119273713D01*
X133397246Y-119063757D01*
X133331557Y-118861588D01*
X133235051Y-118672184D01*
X133235049Y-118672181D01*
X133235048Y-118672179D01*
X133110109Y-118500213D01*
X132959786Y-118349890D01*
X132787817Y-118224949D01*
X132778504Y-118220204D01*
X132727707Y-118172230D01*
X132710912Y-118104409D01*
X132733449Y-118038274D01*
X132778507Y-117999232D01*
X132787555Y-117994622D01*
X132841716Y-117955270D01*
X132841717Y-117955270D01*
X132209408Y-117322962D01*
X132272993Y-117305925D01*
X132387007Y-117240099D01*
X132480099Y-117147007D01*
X132545925Y-117032993D01*
X132562962Y-116969409D01*
X133195270Y-117601717D01*
X133195270Y-117601716D01*
X133234622Y-117547554D01*
X133331095Y-117358217D01*
X133396757Y-117156130D01*
X133396757Y-117156127D01*
X133430000Y-116946246D01*
X133430000Y-116733753D01*
X133396757Y-116523872D01*
X133396757Y-116523869D01*
X133331095Y-116321782D01*
X133234624Y-116132449D01*
X133195270Y-116078282D01*
X133195269Y-116078282D01*
X132562962Y-116710590D01*
X132545925Y-116647007D01*
X132480099Y-116532993D01*
X132387007Y-116439901D01*
X132272993Y-116374075D01*
X132209409Y-116357037D01*
X132879627Y-115686818D01*
X132940950Y-115653333D01*
X132967307Y-115650499D01*
X132977872Y-115650499D01*
X133037483Y-115644091D01*
X133172331Y-115593796D01*
X133287546Y-115507546D01*
X133373796Y-115392331D01*
X133424091Y-115257483D01*
X133430500Y-115197873D01*
X133430499Y-113402128D01*
X133424091Y-113342517D01*
X133382302Y-113230476D01*
X133373797Y-113207671D01*
X133373793Y-113207664D01*
X133287547Y-113092455D01*
X133287544Y-113092452D01*
X133172335Y-113006206D01*
X133172328Y-113006202D01*
X133037482Y-112955908D01*
X133037483Y-112955908D01*
X132977883Y-112949501D01*
X132977881Y-112949500D01*
X132977873Y-112949500D01*
X132977864Y-112949500D01*
X131182129Y-112949500D01*
X131182123Y-112949501D01*
X131122516Y-112955908D01*
X130987671Y-113006202D01*
X130987664Y-113006206D01*
X130872455Y-113092452D01*
X130872452Y-113092455D01*
X130786206Y-113207664D01*
X130786202Y-113207671D01*
X130735908Y-113342517D01*
X130729501Y-113402116D01*
X130729501Y-113402123D01*
X130729500Y-113402135D01*
X115170609Y-113402135D01*
X115114646Y-113346172D01*
X115035025Y-113288324D01*
X114955403Y-113230474D01*
X114778787Y-113140485D01*
X114727990Y-113092511D01*
X114711195Y-113024690D01*
X114733732Y-112958555D01*
X114778787Y-112919515D01*
X114955403Y-112829525D01*
X114955402Y-112829525D01*
X114955405Y-112829524D01*
X115114646Y-112713828D01*
X115253828Y-112574646D01*
X115369524Y-112415405D01*
X115458884Y-112240025D01*
X115519709Y-112052826D01*
X115550500Y-111858422D01*
X115550500Y-111661577D01*
X115519709Y-111467173D01*
X115458882Y-111279970D01*
X115369523Y-111104594D01*
X115253828Y-110945354D01*
X115114646Y-110806172D01*
X114955405Y-110690476D01*
X114780025Y-110601116D01*
X114780024Y-110601115D01*
X114778235Y-110600204D01*
X114727439Y-110552230D01*
X114710644Y-110484409D01*
X114733181Y-110418274D01*
X114778236Y-110379234D01*
X114955141Y-110289097D01*
X114990125Y-110263678D01*
X114990126Y-110263678D01*
X114388585Y-109662137D01*
X114473694Y-109639333D01*
X114576306Y-109580090D01*
X114660090Y-109496306D01*
X114719333Y-109393694D01*
X114742137Y-109308585D01*
X115343678Y-109910126D01*
X115343678Y-109910125D01*
X115369095Y-109875143D01*
X115458418Y-109699835D01*
X115519221Y-109512705D01*
X115550000Y-109318382D01*
X115550000Y-109121617D01*
X115519221Y-108927294D01*
X115458418Y-108740164D01*
X115369096Y-108564858D01*
X115343678Y-108529873D01*
X115343677Y-108529873D01*
X114742137Y-109131413D01*
X114719333Y-109046306D01*
X114660090Y-108943694D01*
X114576306Y-108859910D01*
X114473694Y-108800667D01*
X114388584Y-108777861D01*
X114990125Y-108176320D01*
X114990125Y-108176319D01*
X114955145Y-108150905D01*
X114778235Y-108060765D01*
X114727439Y-108012790D01*
X114710644Y-107944969D01*
X114733182Y-107878834D01*
X114778236Y-107839795D01*
X114780022Y-107838884D01*
X114780025Y-107838884D01*
X114955405Y-107749524D01*
X115114646Y-107633828D01*
X115253828Y-107494646D01*
X115369524Y-107335405D01*
X115458884Y-107160025D01*
X115519709Y-106972826D01*
X115550500Y-106778422D01*
X115550500Y-106581577D01*
X115519709Y-106387173D01*
X115458882Y-106199970D01*
X115369523Y-106024594D01*
X115253828Y-105865354D01*
X115114646Y-105726172D01*
X115035025Y-105668324D01*
X114955403Y-105610474D01*
X114778787Y-105520485D01*
X114727990Y-105472511D01*
X114711195Y-105404690D01*
X114733732Y-105338555D01*
X114778787Y-105299515D01*
X114955403Y-105209525D01*
X114955402Y-105209525D01*
X114955405Y-105209524D01*
X115114646Y-105093828D01*
X115253828Y-104954646D01*
X115369524Y-104795405D01*
X115458884Y-104620025D01*
X115519709Y-104432826D01*
X115522053Y-104418028D01*
X115550500Y-104238422D01*
X115550500Y-104041577D01*
X115519709Y-103847173D01*
X115477482Y-103717213D01*
X115458884Y-103659975D01*
X115458882Y-103659972D01*
X115458882Y-103659970D01*
X115403537Y-103551349D01*
X115369524Y-103484595D01*
X115253828Y-103325354D01*
X115114646Y-103186172D01*
X115009662Y-103109896D01*
X114955403Y-103070474D01*
X114778787Y-102980485D01*
X114727990Y-102932511D01*
X114711195Y-102864690D01*
X114733732Y-102798555D01*
X114778787Y-102759515D01*
X114955403Y-102669525D01*
X114955402Y-102669525D01*
X114955405Y-102669524D01*
X115114646Y-102553828D01*
X115253828Y-102414646D01*
X115369524Y-102255405D01*
X115369524Y-102255403D01*
X115372278Y-102251614D01*
X115427608Y-102208949D01*
X115472596Y-102200500D01*
X130794281Y-102200500D01*
X130861320Y-102220185D01*
X130904765Y-102268205D01*
X130924947Y-102307814D01*
X130924948Y-102307815D01*
X131049890Y-102479786D01*
X131200213Y-102630109D01*
X131372182Y-102755050D01*
X131380946Y-102759516D01*
X131431742Y-102807491D01*
X131448536Y-102875312D01*
X131425998Y-102941447D01*
X131380946Y-102980484D01*
X131372182Y-102984949D01*
X131200213Y-103109890D01*
X131049890Y-103260213D01*
X130924951Y-103432179D01*
X130828444Y-103621585D01*
X130762753Y-103823760D01*
X130729500Y-104033713D01*
X130729500Y-104246286D01*
X130756428Y-104416306D01*
X130762754Y-104456243D01*
X130815970Y-104620025D01*
X130828444Y-104658414D01*
X130924951Y-104847820D01*
X131049890Y-105019786D01*
X131200213Y-105170109D01*
X131372179Y-105295048D01*
X131372181Y-105295049D01*
X131372184Y-105295051D01*
X131561588Y-105391557D01*
X131763757Y-105457246D01*
X131973713Y-105490500D01*
X131973714Y-105490500D01*
X132186286Y-105490500D01*
X132186287Y-105490500D01*
X132396243Y-105457246D01*
X132598412Y-105391557D01*
X132787816Y-105295051D01*
X132809789Y-105279086D01*
X132959786Y-105170109D01*
X132959788Y-105170106D01*
X132959792Y-105170104D01*
X133110104Y-105019792D01*
X133110106Y-105019788D01*
X133110109Y-105019786D01*
X133235048Y-104847820D01*
X133235047Y-104847820D01*
X133235051Y-104847816D01*
X133331557Y-104658412D01*
X133397246Y-104456243D01*
X133430500Y-104246287D01*
X133430500Y-104033713D01*
X133397246Y-103823757D01*
X133331557Y-103621588D01*
X133235051Y-103432184D01*
X133235049Y-103432181D01*
X133235048Y-103432179D01*
X133110109Y-103260213D01*
X132959786Y-103109890D01*
X132787820Y-102984951D01*
X132779604Y-102980765D01*
X132779054Y-102980485D01*
X132728259Y-102932512D01*
X132711463Y-102864692D01*
X132733999Y-102798556D01*
X132779054Y-102759515D01*
X132787816Y-102755051D01*
X132868672Y-102696306D01*
X132959786Y-102630109D01*
X132959788Y-102630106D01*
X132959792Y-102630104D01*
X133110104Y-102479792D01*
X133110106Y-102479788D01*
X133110109Y-102479786D01*
X133235048Y-102307820D01*
X133235047Y-102307820D01*
X133235051Y-102307816D01*
X133331557Y-102118412D01*
X133397246Y-101916243D01*
X133430500Y-101706287D01*
X133430500Y-101493713D01*
X133397246Y-101283757D01*
X133331557Y-101081588D01*
X133235051Y-100892184D01*
X133235049Y-100892181D01*
X133235048Y-100892179D01*
X133110109Y-100720213D01*
X132959786Y-100569890D01*
X132787820Y-100444951D01*
X132780293Y-100441116D01*
X132779054Y-100440485D01*
X132728259Y-100392512D01*
X132711463Y-100324692D01*
X132733999Y-100258556D01*
X132779054Y-100219515D01*
X132787816Y-100215051D01*
X132874138Y-100152335D01*
X132959786Y-100090109D01*
X132959788Y-100090106D01*
X132959792Y-100090104D01*
X133110104Y-99939792D01*
X133110106Y-99939788D01*
X133110109Y-99939786D01*
X133235048Y-99767820D01*
X133235047Y-99767820D01*
X133235051Y-99767816D01*
X133331557Y-99578412D01*
X133397246Y-99376243D01*
X133430500Y-99166287D01*
X133430500Y-98953713D01*
X133397246Y-98743757D01*
X133331557Y-98541588D01*
X133235051Y-98352184D01*
X133235049Y-98352181D01*
X133235048Y-98352179D01*
X133110109Y-98180213D01*
X132959786Y-98029890D01*
X132787820Y-97904951D01*
X132780293Y-97901116D01*
X132779054Y-97900485D01*
X132728259Y-97852512D01*
X132711463Y-97784692D01*
X132733999Y-97718556D01*
X132779054Y-97679515D01*
X132787816Y-97675051D01*
X132809789Y-97659086D01*
X132959786Y-97550109D01*
X132959788Y-97550106D01*
X132959792Y-97550104D01*
X133110104Y-97399792D01*
X133110106Y-97399788D01*
X133110109Y-97399786D01*
X133235048Y-97227820D01*
X133235047Y-97227820D01*
X133235051Y-97227816D01*
X133331557Y-97038412D01*
X133397246Y-96836243D01*
X133430500Y-96626287D01*
X133430500Y-96413713D01*
X133397246Y-96203757D01*
X133331557Y-96001588D01*
X133235051Y-95812184D01*
X133235049Y-95812181D01*
X133235048Y-95812179D01*
X133110109Y-95640213D01*
X132959786Y-95489890D01*
X132787820Y-95364951D01*
X132780293Y-95361116D01*
X132779054Y-95360485D01*
X132728259Y-95312512D01*
X132711463Y-95244692D01*
X132733999Y-95178556D01*
X132779054Y-95139515D01*
X132787816Y-95135051D01*
X132809789Y-95119086D01*
X132959786Y-95010109D01*
X132959788Y-95010106D01*
X132959792Y-95010104D01*
X133110104Y-94859792D01*
X133110106Y-94859788D01*
X133110109Y-94859786D01*
X133235048Y-94687820D01*
X133235047Y-94687820D01*
X133235051Y-94687816D01*
X133331557Y-94498412D01*
X133397246Y-94296243D01*
X133430500Y-94086287D01*
X133430500Y-93873713D01*
X133397246Y-93663757D01*
X133331557Y-93461588D01*
X133235051Y-93272184D01*
X133235049Y-93272181D01*
X133235048Y-93272179D01*
X133110109Y-93100213D01*
X132959786Y-92949890D01*
X132787820Y-92824951D01*
X132780293Y-92821116D01*
X132779054Y-92820485D01*
X132728259Y-92772512D01*
X132711463Y-92704692D01*
X132733999Y-92638556D01*
X132779054Y-92599515D01*
X132787816Y-92595051D01*
X132809789Y-92579086D01*
X132959786Y-92470109D01*
X132959788Y-92470106D01*
X132959792Y-92470104D01*
X133110104Y-92319792D01*
X133110106Y-92319788D01*
X133110109Y-92319786D01*
X133235048Y-92147820D01*
X133235047Y-92147820D01*
X133235051Y-92147816D01*
X133331557Y-91958412D01*
X133397246Y-91756243D01*
X133430500Y-91546287D01*
X133430500Y-91333713D01*
X133397246Y-91123757D01*
X133331557Y-90921588D01*
X133235051Y-90732184D01*
X133235049Y-90732181D01*
X133235048Y-90732179D01*
X133110109Y-90560213D01*
X132959786Y-90409890D01*
X132787817Y-90284949D01*
X132778504Y-90280204D01*
X132727707Y-90232230D01*
X132710912Y-90164409D01*
X132733449Y-90098274D01*
X132778507Y-90059232D01*
X132787555Y-90054622D01*
X132841716Y-90015270D01*
X132841717Y-90015270D01*
X132209408Y-89382962D01*
X132272993Y-89365925D01*
X132387007Y-89300099D01*
X132480099Y-89207007D01*
X132545925Y-89092993D01*
X132562962Y-89029409D01*
X133195270Y-89661717D01*
X133195270Y-89661716D01*
X133234622Y-89607554D01*
X133331095Y-89418217D01*
X133396757Y-89216130D01*
X133396757Y-89216127D01*
X133430000Y-89006246D01*
X133430000Y-88793753D01*
X133396757Y-88583872D01*
X133396757Y-88583869D01*
X133331095Y-88381782D01*
X133234624Y-88192449D01*
X133195270Y-88138282D01*
X133195269Y-88138282D01*
X132562962Y-88770590D01*
X132545925Y-88707007D01*
X132480099Y-88592993D01*
X132387007Y-88499901D01*
X132272993Y-88434075D01*
X132209409Y-88417037D01*
X132879627Y-87746818D01*
X132940950Y-87713333D01*
X132967307Y-87710499D01*
X132977872Y-87710499D01*
X133037483Y-87704091D01*
X133172331Y-87653796D01*
X133287546Y-87567546D01*
X133373796Y-87452331D01*
X133424091Y-87317483D01*
X133430500Y-87257873D01*
X133430499Y-85462128D01*
X133424091Y-85402517D01*
X133373796Y-85267669D01*
X133373795Y-85267668D01*
X133373793Y-85267664D01*
X133287547Y-85152455D01*
X133287544Y-85152452D01*
X133172335Y-85066206D01*
X133172328Y-85066202D01*
X133037482Y-85015908D01*
X133037483Y-85015908D01*
X132977883Y-85009501D01*
X132977881Y-85009500D01*
X132977873Y-85009500D01*
X132977864Y-85009500D01*
X131182129Y-85009500D01*
X131182123Y-85009501D01*
X131122516Y-85015908D01*
X130987671Y-85066202D01*
X130987664Y-85066206D01*
X130872455Y-85152452D01*
X130872452Y-85152455D01*
X130786206Y-85267664D01*
X130786202Y-85267671D01*
X130735908Y-85402517D01*
X130729501Y-85462116D01*
X130729501Y-85462123D01*
X130729500Y-85462135D01*
X130729500Y-87257870D01*
X130729501Y-87257876D01*
X130735908Y-87317483D01*
X130786202Y-87452328D01*
X130786206Y-87452335D01*
X130872452Y-87567544D01*
X130872455Y-87567547D01*
X130987664Y-87653793D01*
X130987671Y-87653797D01*
X131032618Y-87670561D01*
X131122517Y-87704091D01*
X131182127Y-87710500D01*
X131192685Y-87710499D01*
X131259723Y-87730179D01*
X131280372Y-87746818D01*
X131950591Y-88417037D01*
X131887007Y-88434075D01*
X131772993Y-88499901D01*
X131679901Y-88592993D01*
X131614075Y-88707007D01*
X131597037Y-88770591D01*
X130964728Y-88138282D01*
X130964727Y-88138282D01*
X130925380Y-88192439D01*
X130828904Y-88381782D01*
X130763242Y-88583869D01*
X130763242Y-88583872D01*
X130730000Y-88793753D01*
X130730000Y-89006246D01*
X130763242Y-89216127D01*
X130763242Y-89216130D01*
X130828904Y-89418217D01*
X130925375Y-89607550D01*
X130964728Y-89661716D01*
X131597037Y-89029408D01*
X131614075Y-89092993D01*
X131679901Y-89207007D01*
X131772993Y-89300099D01*
X131887007Y-89365925D01*
X131950590Y-89382962D01*
X131318282Y-90015269D01*
X131318282Y-90015270D01*
X131372452Y-90054626D01*
X131372451Y-90054626D01*
X131381495Y-90059234D01*
X131432292Y-90107208D01*
X131449087Y-90175029D01*
X131426550Y-90241164D01*
X131381499Y-90280202D01*
X131372182Y-90284949D01*
X131200213Y-90409890D01*
X131049890Y-90560213D01*
X130924951Y-90732179D01*
X130828444Y-90921585D01*
X130762753Y-91123760D01*
X130737645Y-91282287D01*
X130729500Y-91333713D01*
X130729500Y-91546287D01*
X130762754Y-91756243D01*
X130815970Y-91920025D01*
X130828444Y-91958414D01*
X130924951Y-92147820D01*
X131049890Y-92319786D01*
X131200213Y-92470109D01*
X131372182Y-92595050D01*
X131380946Y-92599516D01*
X131431742Y-92647491D01*
X131448536Y-92715312D01*
X131425998Y-92781447D01*
X131380946Y-92820484D01*
X131372182Y-92824949D01*
X131200213Y-92949890D01*
X131049890Y-93100213D01*
X130924948Y-93272184D01*
X130924947Y-93272185D01*
X130904765Y-93311795D01*
X130856791Y-93362591D01*
X130794281Y-93379500D01*
X115472596Y-93379500D01*
X115405557Y-93359815D01*
X115372278Y-93328386D01*
X115360224Y-93311795D01*
X115253828Y-93165354D01*
X115114646Y-93026172D01*
X115009662Y-92949896D01*
X114955403Y-92910474D01*
X114778787Y-92820485D01*
X114727990Y-92772511D01*
X114711195Y-92704690D01*
X114733732Y-92638555D01*
X114778787Y-92599515D01*
X114955403Y-92509525D01*
X114955402Y-92509525D01*
X114955405Y-92509524D01*
X115114646Y-92393828D01*
X115253828Y-92254646D01*
X115369524Y-92095405D01*
X115458884Y-91920025D01*
X115519709Y-91732826D01*
X115522053Y-91718028D01*
X115550500Y-91538422D01*
X115550500Y-91341577D01*
X115519709Y-91147173D01*
X115458882Y-90959970D01*
X115369523Y-90784594D01*
X115253828Y-90625354D01*
X115114646Y-90486172D01*
X114955405Y-90370476D01*
X114780025Y-90281116D01*
X114780024Y-90281115D01*
X114778235Y-90280204D01*
X114727439Y-90232230D01*
X114710644Y-90164409D01*
X114733181Y-90098274D01*
X114778236Y-90059234D01*
X114955141Y-89969097D01*
X114990125Y-89943678D01*
X114990126Y-89943678D01*
X114388585Y-89342137D01*
X114473694Y-89319333D01*
X114576306Y-89260090D01*
X114660090Y-89176306D01*
X114719333Y-89073694D01*
X114742137Y-88988585D01*
X115343678Y-89590126D01*
X115343678Y-89590125D01*
X115369095Y-89555143D01*
X115458418Y-89379835D01*
X115519221Y-89192705D01*
X115550000Y-88998382D01*
X115550000Y-88801617D01*
X115519221Y-88607294D01*
X115458418Y-88420164D01*
X115369096Y-88244858D01*
X115343678Y-88209873D01*
X115343677Y-88209873D01*
X114742137Y-88811413D01*
X114719333Y-88726306D01*
X114660090Y-88623694D01*
X114576306Y-88539910D01*
X114473694Y-88480667D01*
X114388584Y-88457861D01*
X114990125Y-87856320D01*
X114990125Y-87856319D01*
X114987372Y-87854319D01*
X114944705Y-87798990D01*
X114938725Y-87729376D01*
X114971330Y-87667581D01*
X115032169Y-87633223D01*
X115060256Y-87630000D01*
X116840000Y-87630000D01*
X116840000Y-78740000D01*
X93980000Y-78740000D01*
X93980000Y-87630000D01*
X95286969Y-87630000D01*
X95354008Y-87649685D01*
X95399763Y-87702489D01*
X95409707Y-87771647D01*
X95386235Y-87828311D01*
X95326649Y-87907906D01*
X95326645Y-87907913D01*
X95276403Y-88042620D01*
X95276401Y-88042627D01*
X95270000Y-88102155D01*
X95270000Y-88650000D01*
X96144722Y-88650000D01*
X96100667Y-88726306D01*
X96070000Y-88840756D01*
X96070000Y-88959244D01*
X96100667Y-89073694D01*
X96144722Y-89150000D01*
X95270000Y-89150000D01*
X95270000Y-89697844D01*
X95276401Y-89757372D01*
X95276403Y-89757379D01*
X95326645Y-89892086D01*
X95326649Y-89892093D01*
X95412809Y-90007187D01*
X95412812Y-90007190D01*
X95527906Y-90093350D01*
X95527913Y-90093354D01*
X95662620Y-90143596D01*
X95662627Y-90143598D01*
X95722155Y-90149999D01*
X95722172Y-90150000D01*
X95786421Y-90150000D01*
X95853460Y-90169685D01*
X95899215Y-90222489D01*
X95909159Y-90291647D01*
X95880134Y-90355203D01*
X95859307Y-90374317D01*
X95705354Y-90486172D01*
X95705352Y-90486174D01*
X95705351Y-90486174D01*
X95566174Y-90625351D01*
X95566174Y-90625352D01*
X95566172Y-90625354D01*
X95534302Y-90669219D01*
X95450476Y-90784594D01*
X95361117Y-90959970D01*
X95300290Y-91147173D01*
X95269500Y-91341577D01*
X95269500Y-91538422D01*
X95300290Y-91732826D01*
X95361117Y-91920029D01*
X95416328Y-92028386D01*
X95450476Y-92095405D01*
X95566172Y-92254646D01*
X95705354Y-92393828D01*
X95864595Y-92509524D01*
X95987992Y-92572397D01*
X96041213Y-92599515D01*
X96092009Y-92647489D01*
X96108804Y-92715310D01*
X96086267Y-92781445D01*
X96041213Y-92820485D01*
X95864594Y-92910476D01*
X95810338Y-92949896D01*
X95705354Y-93026172D01*
X95705352Y-93026174D01*
X95705351Y-93026174D01*
X95566174Y-93165351D01*
X95566174Y-93165352D01*
X95566172Y-93165354D01*
X95534302Y-93209219D01*
X95450476Y-93324594D01*
X95361117Y-93499970D01*
X95300290Y-93687173D01*
X95269500Y-93881577D01*
X95269500Y-94078422D01*
X95300290Y-94272826D01*
X95361117Y-94460029D01*
X95448544Y-94631614D01*
X95450476Y-94635405D01*
X95566172Y-94794646D01*
X95705354Y-94933828D01*
X95864595Y-95049524D01*
X95987992Y-95112397D01*
X96041213Y-95139515D01*
X96092009Y-95187489D01*
X96108804Y-95255310D01*
X96086267Y-95321445D01*
X96041213Y-95360485D01*
X95864594Y-95450476D01*
X95810338Y-95489896D01*
X95705354Y-95566172D01*
X95705352Y-95566174D01*
X95705351Y-95566174D01*
X95566174Y-95705351D01*
X95566174Y-95705352D01*
X95566172Y-95705354D01*
X95534302Y-95749219D01*
X95450476Y-95864594D01*
X95361117Y-96039970D01*
X95300290Y-96227173D01*
X95269500Y-96421577D01*
X95269500Y-96618422D01*
X95300290Y-96812826D01*
X95361117Y-97000029D01*
X95416328Y-97108386D01*
X95450476Y-97175405D01*
X95566172Y-97334646D01*
X95705354Y-97473828D01*
X95864595Y-97589524D01*
X95987992Y-97652397D01*
X96041213Y-97679515D01*
X96092009Y-97727489D01*
X96108804Y-97795310D01*
X96086267Y-97861445D01*
X96041213Y-97900485D01*
X95864594Y-97990476D01*
X95810338Y-98029896D01*
X95705354Y-98106172D01*
X95705352Y-98106174D01*
X95705351Y-98106174D01*
X95566174Y-98245351D01*
X95566174Y-98245352D01*
X95566172Y-98245354D01*
X95534302Y-98289219D01*
X95450476Y-98404594D01*
X95361117Y-98579970D01*
X95300290Y-98767173D01*
X95269500Y-98961577D01*
X95269500Y-99158422D01*
X95300290Y-99352826D01*
X95361117Y-99540029D01*
X95416328Y-99648386D01*
X95450476Y-99715405D01*
X95566172Y-99874646D01*
X95705354Y-100013828D01*
X95864595Y-100129524D01*
X95954375Y-100175269D01*
X96041213Y-100219515D01*
X96092009Y-100267489D01*
X96108804Y-100335310D01*
X96086267Y-100401445D01*
X96041213Y-100440485D01*
X95864594Y-100530476D01*
X95810338Y-100569896D01*
X95705354Y-100646172D01*
X95705352Y-100646174D01*
X95705351Y-100646174D01*
X95566174Y-100785351D01*
X95566174Y-100785352D01*
X95566172Y-100785354D01*
X95534302Y-100829219D01*
X95450476Y-100944594D01*
X95361117Y-101119970D01*
X95300290Y-101307173D01*
X95269500Y-101501577D01*
X95269500Y-101698422D01*
X95300290Y-101892826D01*
X95361117Y-102080029D01*
X95448544Y-102251614D01*
X95450476Y-102255405D01*
X95566172Y-102414646D01*
X95705354Y-102553828D01*
X95810338Y-102630104D01*
X95864596Y-102669525D01*
X96041763Y-102759795D01*
X96092560Y-102807769D01*
X96109355Y-102875590D01*
X96086818Y-102941725D01*
X96041764Y-102980765D01*
X95864859Y-103070902D01*
X95829873Y-103096320D01*
X95829872Y-103096320D01*
X96431415Y-103697861D01*
X96346306Y-103720667D01*
X96243694Y-103779910D01*
X96159910Y-103863694D01*
X96100667Y-103966306D01*
X96077861Y-104051414D01*
X95476320Y-103449872D01*
X95476320Y-103449873D01*
X95450902Y-103484859D01*
X95450899Y-103484863D01*
X95361582Y-103660161D01*
X95300778Y-103847294D01*
X95270000Y-104041617D01*
X95270000Y-104238382D01*
X95300778Y-104432705D01*
X95361581Y-104619835D01*
X95450905Y-104795145D01*
X95476319Y-104830125D01*
X95476320Y-104830125D01*
X96077861Y-104228584D01*
X96100667Y-104313694D01*
X96159910Y-104416306D01*
X96243694Y-104500090D01*
X96346306Y-104559333D01*
X96431414Y-104582137D01*
X95829873Y-105183677D01*
X95829873Y-105183678D01*
X95864858Y-105209096D01*
X96041764Y-105299234D01*
X96092560Y-105347209D01*
X96109355Y-105415030D01*
X96086818Y-105481164D01*
X96041764Y-105520204D01*
X95864594Y-105610476D01*
X95773741Y-105676485D01*
X95705354Y-105726172D01*
X95705352Y-105726174D01*
X95705351Y-105726174D01*
X95566174Y-105865351D01*
X95566174Y-105865352D01*
X95566172Y-105865354D01*
X95534302Y-105909219D01*
X95450476Y-106024594D01*
X95361117Y-106199970D01*
X95300290Y-106387173D01*
X95269500Y-106581577D01*
X95269500Y-106778422D01*
X95300290Y-106972826D01*
X95361117Y-107160029D01*
X95450476Y-107335405D01*
X95566172Y-107494646D01*
X95705354Y-107633828D01*
X95864595Y-107749524D01*
X95987992Y-107812397D01*
X96041213Y-107839515D01*
X96092009Y-107887489D01*
X96108804Y-107955310D01*
X96086267Y-108021445D01*
X96041213Y-108060485D01*
X95864594Y-108150476D01*
X95773741Y-108216485D01*
X95705354Y-108266172D01*
X95705352Y-108266174D01*
X95705351Y-108266174D01*
X95566174Y-108405351D01*
X95566174Y-108405352D01*
X95566172Y-108405354D01*
X95516485Y-108473741D01*
X95450476Y-108564594D01*
X95361117Y-108739970D01*
X95300290Y-108927173D01*
X95269500Y-109121577D01*
X95269500Y-109318422D01*
X95300290Y-109512826D01*
X95361117Y-109700029D01*
X95450343Y-109875143D01*
X95450476Y-109875405D01*
X95566172Y-110034646D01*
X95705354Y-110173828D01*
X95864595Y-110289524D01*
X95987992Y-110352397D01*
X96041213Y-110379515D01*
X96092009Y-110427489D01*
X96108804Y-110495310D01*
X96086267Y-110561445D01*
X96041213Y-110600485D01*
X95864594Y-110690476D01*
X95773741Y-110756485D01*
X95705354Y-110806172D01*
X95705352Y-110806174D01*
X95705351Y-110806174D01*
X95566174Y-110945351D01*
X95566174Y-110945352D01*
X95566172Y-110945354D01*
X95516485Y-111013741D01*
X95450476Y-111104594D01*
X95361117Y-111279970D01*
X95300290Y-111467173D01*
X95269500Y-111661577D01*
X95269500Y-111858422D01*
X95300290Y-112052826D01*
X95361117Y-112240029D01*
X95450476Y-112415405D01*
X95566172Y-112574646D01*
X95705354Y-112713828D01*
X95864595Y-112829524D01*
X95987992Y-112892397D01*
X96041213Y-112919515D01*
X96092009Y-112967489D01*
X96108804Y-113035310D01*
X96086267Y-113101445D01*
X96041213Y-113140485D01*
X95864594Y-113230476D01*
X95773741Y-113296485D01*
X95705354Y-113346172D01*
X95705352Y-113346174D01*
X95705351Y-113346174D01*
X95566174Y-113485351D01*
X95566174Y-113485352D01*
X95566172Y-113485354D01*
X95516485Y-113553741D01*
X95450476Y-113644594D01*
X95361117Y-113819970D01*
X95300290Y-114007173D01*
X95269500Y-114201577D01*
X95269500Y-114398422D01*
X95300290Y-114592826D01*
X95361117Y-114780029D01*
X95450476Y-114955405D01*
X95566172Y-115114646D01*
X95705354Y-115253828D01*
X95864595Y-115369524D01*
X95987992Y-115432397D01*
X96041213Y-115459515D01*
X96092009Y-115507489D01*
X96108804Y-115575310D01*
X96086267Y-115641445D01*
X96041213Y-115680485D01*
X95864594Y-115770476D01*
X95773741Y-115836485D01*
X95705354Y-115886172D01*
X95705352Y-115886174D01*
X95705351Y-115886174D01*
X95566174Y-116025351D01*
X95566174Y-116025352D01*
X95566172Y-116025354D01*
X95527717Y-116078282D01*
X95450476Y-116184594D01*
X95361117Y-116359970D01*
X95300290Y-116547173D01*
X95269500Y-116741577D01*
X95269500Y-116938422D01*
X95300290Y-117132826D01*
X95361117Y-117320029D01*
X95450476Y-117495405D01*
X95566172Y-117654646D01*
X95705354Y-117793828D01*
X95864595Y-117909524D01*
X95954375Y-117955269D01*
X96041213Y-117999515D01*
X96092009Y-118047489D01*
X96108804Y-118115310D01*
X96086267Y-118181445D01*
X96041213Y-118220485D01*
X95864594Y-118310476D01*
X95810338Y-118349896D01*
X95705354Y-118426172D01*
X95705352Y-118426174D01*
X95705351Y-118426174D01*
X95566174Y-118565351D01*
X95566174Y-118565352D01*
X95566172Y-118565354D01*
X95516485Y-118633741D01*
X95450476Y-118724594D01*
X95361117Y-118899970D01*
X95300290Y-119087173D01*
X95269500Y-119281577D01*
X95269500Y-119478422D01*
X95300290Y-119672826D01*
X95361117Y-119860029D01*
X95440175Y-120015189D01*
X95450476Y-120035405D01*
X95566172Y-120194646D01*
X95705354Y-120333828D01*
X95810338Y-120410104D01*
X95864596Y-120449525D01*
X96041763Y-120539795D01*
X96092560Y-120587769D01*
X96109355Y-120655590D01*
X96086818Y-120721725D01*
X96041764Y-120760765D01*
X95864859Y-120850902D01*
X95829873Y-120876320D01*
X95829872Y-120876320D01*
X96431415Y-121477861D01*
X96346306Y-121500667D01*
X96243694Y-121559910D01*
X96159910Y-121643694D01*
X96100667Y-121746306D01*
X96077861Y-121831414D01*
X95476320Y-121229872D01*
X95476320Y-121229873D01*
X95450902Y-121264859D01*
X95450899Y-121264863D01*
X95361582Y-121440161D01*
X95300778Y-121627294D01*
X95270000Y-121821617D01*
X95270000Y-122018382D01*
X95300778Y-122212705D01*
X95361581Y-122399835D01*
X95450905Y-122575145D01*
X95476319Y-122610125D01*
X95476320Y-122610125D01*
X96077861Y-122008584D01*
X96100667Y-122093694D01*
X96159910Y-122196306D01*
X96243694Y-122280090D01*
X96346306Y-122339333D01*
X96431414Y-122362137D01*
X95829873Y-122963677D01*
X95829873Y-122963678D01*
X95864858Y-122989096D01*
X96041764Y-123079234D01*
X96092560Y-123127209D01*
X96109355Y-123195030D01*
X96086818Y-123261164D01*
X96041764Y-123300204D01*
X95864594Y-123390476D01*
X95773741Y-123456485D01*
X95705354Y-123506172D01*
X95705352Y-123506174D01*
X95705351Y-123506174D01*
X95566174Y-123645351D01*
X95566174Y-123645352D01*
X95566172Y-123645354D01*
X95516485Y-123713741D01*
X95450476Y-123804594D01*
X95361117Y-123979970D01*
X95300290Y-124167173D01*
X95269500Y-124361577D01*
X95269500Y-124558422D01*
X95300290Y-124752826D01*
X95361117Y-124940029D01*
X95450476Y-125115405D01*
X95566172Y-125274646D01*
X95705354Y-125413828D01*
X95864595Y-125529524D01*
X95987992Y-125592397D01*
X96041213Y-125619515D01*
X96092009Y-125667489D01*
X96108804Y-125735310D01*
X96086267Y-125801445D01*
X96041213Y-125840485D01*
X95864594Y-125930476D01*
X95773741Y-125996485D01*
X95705354Y-126046172D01*
X95705352Y-126046174D01*
X95705351Y-126046174D01*
X95566171Y-126185354D01*
X95556703Y-126198387D01*
X95501372Y-126241052D01*
X95456386Y-126249500D01*
X78829500Y-126249500D01*
X78762461Y-126229815D01*
X78716706Y-126177011D01*
X78705500Y-126125500D01*
X78705500Y-106665077D01*
X78708369Y-106655304D01*
X78707104Y-106645199D01*
X78718046Y-106622347D01*
X78725185Y-106598038D01*
X78733685Y-106589690D01*
X78737281Y-106582182D01*
X78755869Y-106567905D01*
X78764370Y-106559559D01*
X78768680Y-106556898D01*
X78836610Y-106522287D01*
X79002219Y-106401966D01*
X79146966Y-106257219D01*
X79146968Y-106257215D01*
X79146971Y-106257213D01*
X79199732Y-106184590D01*
X79267287Y-106091610D01*
X79360220Y-105909219D01*
X79423477Y-105714534D01*
X79455500Y-105512352D01*
X79455500Y-105307648D01*
X79439959Y-105209525D01*
X79423477Y-105105465D01*
X79374473Y-104954647D01*
X79360220Y-104910781D01*
X79360218Y-104910778D01*
X79360218Y-104910776D01*
X79319124Y-104830125D01*
X79267287Y-104728390D01*
X79216447Y-104658414D01*
X79146971Y-104562786D01*
X79002213Y-104418028D01*
X78836611Y-104297713D01*
X78743369Y-104250203D01*
X78737278Y-104244451D01*
X78729321Y-104241835D01*
X78712256Y-104220818D01*
X78692574Y-104202229D01*
X78690560Y-104194097D01*
X78685280Y-104187594D01*
X78682286Y-104160686D01*
X78675779Y-104134407D01*
X78678481Y-104126478D01*
X78677555Y-104118153D01*
X78689583Y-104093898D01*
X78698317Y-104068273D01*
X78705682Y-104061439D01*
X78708599Y-104055558D01*
X78727192Y-104041482D01*
X78735999Y-104033311D01*
X78903345Y-103933183D01*
X79001895Y-103861582D01*
X79146582Y-103716895D01*
X79146582Y-103716894D01*
X79266859Y-103551349D01*
X79359755Y-103369029D01*
X79422990Y-103174413D01*
X79431609Y-103120000D01*
X78330278Y-103120000D01*
X78374333Y-103043694D01*
X78405000Y-102929244D01*
X78405000Y-102810756D01*
X78374333Y-102696306D01*
X78330278Y-102620000D01*
X79431609Y-102620000D01*
X79422990Y-102565586D01*
X79359755Y-102370970D01*
X79266859Y-102188650D01*
X79146582Y-102023105D01*
X79146582Y-102023104D01*
X79001895Y-101878417D01*
X78836349Y-101758140D01*
X78743370Y-101710765D01*
X78692574Y-101662790D01*
X78675779Y-101594969D01*
X78698316Y-101528835D01*
X78743370Y-101489795D01*
X78743920Y-101489515D01*
X78836610Y-101442287D01*
X78857770Y-101426913D01*
X79002213Y-101321971D01*
X79002215Y-101321968D01*
X79002219Y-101321966D01*
X79146966Y-101177219D01*
X79146968Y-101177215D01*
X79146971Y-101177213D01*
X79216445Y-101081588D01*
X79267287Y-101011610D01*
X79360220Y-100829219D01*
X79423477Y-100634534D01*
X79455500Y-100432352D01*
X79455500Y-100227648D01*
X79439959Y-100129525D01*
X79423477Y-100025465D01*
X79374473Y-99874647D01*
X79360220Y-99830781D01*
X79360218Y-99830778D01*
X79360218Y-99830776D01*
X79323391Y-99758500D01*
X79267287Y-99648390D01*
X79216447Y-99578414D01*
X79146971Y-99482786D01*
X79002213Y-99338028D01*
X78836614Y-99217715D01*
X78830006Y-99214348D01*
X78743917Y-99170483D01*
X78693123Y-99122511D01*
X78676328Y-99054690D01*
X78698865Y-98988555D01*
X78743917Y-98949516D01*
X78836610Y-98902287D01*
X78885169Y-98867007D01*
X79002213Y-98781971D01*
X79002215Y-98781968D01*
X79002219Y-98781966D01*
X79146966Y-98637219D01*
X79146968Y-98637215D01*
X79146971Y-98637213D01*
X79216445Y-98541588D01*
X79267287Y-98471610D01*
X79360220Y-98289219D01*
X79401512Y-98162135D01*
X82469500Y-98162135D01*
X82469500Y-99957870D01*
X82469501Y-99957876D01*
X82475908Y-100017483D01*
X82526202Y-100152328D01*
X82526206Y-100152335D01*
X82612452Y-100267544D01*
X82612455Y-100267547D01*
X82727664Y-100353793D01*
X82727671Y-100353797D01*
X82862517Y-100404091D01*
X82862516Y-100404091D01*
X82869444Y-100404835D01*
X82922127Y-100410500D01*
X84717872Y-100410499D01*
X84777483Y-100404091D01*
X84912331Y-100353796D01*
X85027546Y-100267546D01*
X85113796Y-100152331D01*
X85162810Y-100020916D01*
X85204681Y-99964984D01*
X85270145Y-99940566D01*
X85338418Y-99955417D01*
X85366673Y-99976569D01*
X85480213Y-100090109D01*
X85652179Y-100215048D01*
X85652181Y-100215049D01*
X85652184Y-100215051D01*
X85841588Y-100311557D01*
X86043757Y-100377246D01*
X86253713Y-100410500D01*
X86253714Y-100410500D01*
X86466286Y-100410500D01*
X86466287Y-100410500D01*
X86676243Y-100377246D01*
X86878412Y-100311557D01*
X87067816Y-100215051D01*
X87154138Y-100152335D01*
X87239786Y-100090109D01*
X87239788Y-100090106D01*
X87239792Y-100090104D01*
X87390104Y-99939792D01*
X87390106Y-99939788D01*
X87390109Y-99939786D01*
X87457515Y-99847007D01*
X87515051Y-99767816D01*
X87519793Y-99758508D01*
X87567763Y-99707711D01*
X87635583Y-99690911D01*
X87701719Y-99713445D01*
X87740763Y-99758500D01*
X87745373Y-99767547D01*
X87784728Y-99821716D01*
X88417037Y-99189408D01*
X88434075Y-99252993D01*
X88499901Y-99367007D01*
X88592993Y-99460099D01*
X88707007Y-99525925D01*
X88770590Y-99542962D01*
X88138282Y-100175269D01*
X88138282Y-100175270D01*
X88192449Y-100214624D01*
X88381782Y-100311095D01*
X88583870Y-100376757D01*
X88793754Y-100410000D01*
X89006246Y-100410000D01*
X89216127Y-100376757D01*
X89216130Y-100376757D01*
X89418217Y-100311095D01*
X89607554Y-100214622D01*
X89661716Y-100175270D01*
X89661717Y-100175270D01*
X89029408Y-99542962D01*
X89092993Y-99525925D01*
X89207007Y-99460099D01*
X89300099Y-99367007D01*
X89365925Y-99252993D01*
X89382962Y-99189409D01*
X90015270Y-99821717D01*
X90015270Y-99821716D01*
X90054622Y-99767554D01*
X90151095Y-99578217D01*
X90216757Y-99376130D01*
X90216757Y-99376127D01*
X90250000Y-99166246D01*
X90250000Y-98953753D01*
X90216757Y-98743872D01*
X90216757Y-98743869D01*
X90151095Y-98541782D01*
X90054624Y-98352449D01*
X90015270Y-98298282D01*
X90015269Y-98298282D01*
X89382962Y-98930590D01*
X89365925Y-98867007D01*
X89300099Y-98752993D01*
X89207007Y-98659901D01*
X89092993Y-98594075D01*
X89029409Y-98577037D01*
X89661716Y-97944728D01*
X89607550Y-97905375D01*
X89418217Y-97808904D01*
X89216129Y-97743242D01*
X89006246Y-97710000D01*
X88793754Y-97710000D01*
X88583872Y-97743242D01*
X88583869Y-97743242D01*
X88381782Y-97808904D01*
X88192439Y-97905380D01*
X88138282Y-97944727D01*
X88138282Y-97944728D01*
X88770591Y-98577037D01*
X88707007Y-98594075D01*
X88592993Y-98659901D01*
X88499901Y-98752993D01*
X88434075Y-98867007D01*
X88417037Y-98930591D01*
X87784728Y-98298282D01*
X87784727Y-98298282D01*
X87745380Y-98352440D01*
X87745376Y-98352446D01*
X87740760Y-98361505D01*
X87692781Y-98412297D01*
X87624959Y-98429087D01*
X87558826Y-98406543D01*
X87519794Y-98361493D01*
X87515051Y-98352184D01*
X87515049Y-98352181D01*
X87515048Y-98352179D01*
X87390109Y-98180213D01*
X87239786Y-98029890D01*
X87067820Y-97904951D01*
X86878414Y-97808444D01*
X86878413Y-97808443D01*
X86878412Y-97808443D01*
X86676243Y-97742754D01*
X86676241Y-97742753D01*
X86676240Y-97742753D01*
X86514957Y-97717208D01*
X86466287Y-97709500D01*
X86253713Y-97709500D01*
X86205042Y-97717208D01*
X86043760Y-97742753D01*
X85841585Y-97808444D01*
X85652179Y-97904951D01*
X85480215Y-98029889D01*
X85366673Y-98143431D01*
X85305350Y-98176915D01*
X85235658Y-98171931D01*
X85179725Y-98130059D01*
X85162810Y-98099082D01*
X85113797Y-97967671D01*
X85113793Y-97967664D01*
X85027547Y-97852455D01*
X85027544Y-97852452D01*
X84912335Y-97766206D01*
X84912328Y-97766202D01*
X84777482Y-97715908D01*
X84777483Y-97715908D01*
X84717883Y-97709501D01*
X84717881Y-97709500D01*
X84717873Y-97709500D01*
X84717864Y-97709500D01*
X82922129Y-97709500D01*
X82922123Y-97709501D01*
X82862516Y-97715908D01*
X82727671Y-97766202D01*
X82727664Y-97766206D01*
X82612455Y-97852452D01*
X82612452Y-97852455D01*
X82526206Y-97967664D01*
X82526202Y-97967671D01*
X82475908Y-98102517D01*
X82469501Y-98162116D01*
X82469500Y-98162135D01*
X79401512Y-98162135D01*
X79415045Y-98120487D01*
X79415046Y-98120485D01*
X79423475Y-98094542D01*
X79423475Y-98094538D01*
X79423477Y-98094534D01*
X79455500Y-97892352D01*
X79455500Y-97687648D01*
X79439959Y-97589525D01*
X79423477Y-97485465D01*
X79374473Y-97334647D01*
X79360220Y-97290781D01*
X79360218Y-97290778D01*
X79360218Y-97290776D01*
X79326503Y-97224607D01*
X79267287Y-97108390D01*
X79216447Y-97038414D01*
X79146971Y-96942786D01*
X79002213Y-96798028D01*
X78836614Y-96677715D01*
X78830006Y-96674348D01*
X78743917Y-96630483D01*
X78693123Y-96582511D01*
X78676328Y-96514690D01*
X78698865Y-96448555D01*
X78743917Y-96409516D01*
X78836610Y-96362287D01*
X78857770Y-96346913D01*
X79002213Y-96241971D01*
X79002215Y-96241968D01*
X79002219Y-96241966D01*
X79146966Y-96097219D01*
X79146968Y-96097215D01*
X79146971Y-96097213D01*
X79216445Y-96001588D01*
X79267287Y-95931610D01*
X79360220Y-95749219D01*
X79423477Y-95554534D01*
X79455500Y-95352352D01*
X79455500Y-95147648D01*
X79439959Y-95049525D01*
X79423477Y-94945465D01*
X79374473Y-94794647D01*
X79360220Y-94750781D01*
X79360218Y-94750778D01*
X79360218Y-94750776D01*
X79307955Y-94648205D01*
X79267287Y-94568390D01*
X79216447Y-94498414D01*
X79146971Y-94402786D01*
X79002213Y-94258028D01*
X78836614Y-94137715D01*
X78830006Y-94134348D01*
X78743917Y-94090483D01*
X78693123Y-94042511D01*
X78676328Y-93974690D01*
X78698865Y-93908555D01*
X78743917Y-93869516D01*
X78836610Y-93822287D01*
X78857770Y-93806913D01*
X79002213Y-93701971D01*
X79002215Y-93701968D01*
X79002219Y-93701966D01*
X79146966Y-93557219D01*
X79146968Y-93557215D01*
X79146971Y-93557213D01*
X79216445Y-93461588D01*
X79267287Y-93391610D01*
X79360220Y-93209219D01*
X79423477Y-93014534D01*
X79455500Y-92812352D01*
X79455500Y-92607648D01*
X79439959Y-92509525D01*
X79423477Y-92405465D01*
X79374473Y-92254647D01*
X79360220Y-92210781D01*
X79360218Y-92210778D01*
X79360218Y-92210776D01*
X79326503Y-92144607D01*
X79267287Y-92028390D01*
X79216447Y-91958414D01*
X79146971Y-91862786D01*
X79002213Y-91718028D01*
X78836614Y-91597715D01*
X78830006Y-91594348D01*
X78743917Y-91550483D01*
X78737849Y-91544752D01*
X78729917Y-91542149D01*
X78712826Y-91521119D01*
X78693123Y-91502511D01*
X78691115Y-91494406D01*
X78685851Y-91487928D01*
X78682842Y-91460996D01*
X78676328Y-91434690D01*
X78679020Y-91426787D01*
X78678094Y-91418490D01*
X78690124Y-91394205D01*
X78698865Y-91368555D01*
X78706206Y-91361740D01*
X78709109Y-91355881D01*
X78727640Y-91341844D01*
X78736499Y-91333622D01*
X78740142Y-91331439D01*
X78836610Y-91282287D01*
X79002219Y-91161966D01*
X79146966Y-91017219D01*
X79146968Y-91017215D01*
X79146971Y-91017213D01*
X79216445Y-90921588D01*
X79267287Y-90851610D01*
X79360220Y-90669219D01*
X79423477Y-90474534D01*
X79455500Y-90272352D01*
X79455500Y-90067648D01*
X79435865Y-89943677D01*
X79423477Y-89865465D01*
X79360218Y-89670776D01*
X79301299Y-89555143D01*
X79267287Y-89488390D01*
X79216304Y-89418217D01*
X79146971Y-89322786D01*
X79002213Y-89178028D01*
X78836614Y-89057715D01*
X78830006Y-89054348D01*
X78743917Y-89010483D01*
X78737848Y-89004751D01*
X78729914Y-89002147D01*
X78712824Y-88981117D01*
X78693123Y-88962511D01*
X78691115Y-88954404D01*
X78685849Y-88947924D01*
X78682841Y-88920993D01*
X78676328Y-88894690D01*
X78679021Y-88886785D01*
X78678095Y-88878486D01*
X78690123Y-88854206D01*
X78698865Y-88828555D01*
X78706209Y-88821737D01*
X78709112Y-88815879D01*
X78727643Y-88801842D01*
X78736502Y-88793620D01*
X78740141Y-88791440D01*
X78836610Y-88742287D01*
X79002219Y-88621966D01*
X79146966Y-88477219D01*
X79146968Y-88477215D01*
X79146971Y-88477213D01*
X79216304Y-88381782D01*
X79267287Y-88311610D01*
X79360220Y-88129219D01*
X79423477Y-87934534D01*
X79455500Y-87732352D01*
X79455500Y-87527648D01*
X79423477Y-87325466D01*
X79360220Y-87130781D01*
X79360218Y-87130778D01*
X79360218Y-87130776D01*
X79326503Y-87064607D01*
X79267287Y-86948390D01*
X79259556Y-86937749D01*
X79146971Y-86782786D01*
X79002213Y-86638028D01*
X78836614Y-86517715D01*
X78732144Y-86464485D01*
X78681348Y-86416510D01*
X78664553Y-86348689D01*
X78687090Y-86282555D01*
X78741805Y-86239103D01*
X78788439Y-86230000D01*
X79345000Y-86230000D01*
X79345000Y-79430000D01*
X53745000Y-79430000D01*
X53745000Y-86221102D01*
X53725315Y-86288141D01*
X53720267Y-86295413D01*
X53651203Y-86387669D01*
X53651202Y-86387671D01*
X53600908Y-86522517D01*
X53594501Y-86582116D01*
X53594501Y-86582123D01*
X53594500Y-86582135D01*
X52070000Y-86582135D01*
X52070000Y-76324000D01*
X52089685Y-76256961D01*
X52142489Y-76211206D01*
X52194000Y-76200000D01*
X135766000Y-76200000D01*
X135833039Y-76219685D01*
G37*
%TD.AperFunction*%
%TD*%
M02*
