%TF.GenerationSoftware,KiCad,Pcbnew,9.0.2*%
%TF.CreationDate,2025-07-07T09:36:45+02:00*%
%TF.ProjectId,luaos,6c75616f-732e-46b6-9963-61645f706362,rev?*%
%TF.SameCoordinates,Original*%
%TF.FileFunction,Legend,Top*%
%TF.FilePolarity,Positive*%
%FSLAX46Y46*%
G04 Gerber Fmt 4.6, Leading zero omitted, Abs format (unit mm)*
G04 Created by KiCad (PCBNEW 9.0.2) date 2025-07-07 09:36:45*
%MOMM*%
%LPD*%
G01*
G04 APERTURE LIST*
%ADD10C,0.300000*%
%ADD11C,0.100000*%
%ADD12C,0.150000*%
%ADD13C,0.120000*%
G04 APERTURE END LIST*
D10*
X110131653Y-77035996D02*
X111131653Y-77035996D01*
X111560225Y-78607425D02*
X110131653Y-78607425D01*
X110131653Y-78607425D02*
X110131653Y-75607425D01*
X110131653Y-75607425D02*
X111560225Y-75607425D01*
X112703082Y-78464568D02*
X113131654Y-78607425D01*
X113131654Y-78607425D02*
X113845939Y-78607425D01*
X113845939Y-78607425D02*
X114131654Y-78464568D01*
X114131654Y-78464568D02*
X114274511Y-78321710D01*
X114274511Y-78321710D02*
X114417368Y-78035996D01*
X114417368Y-78035996D02*
X114417368Y-77750282D01*
X114417368Y-77750282D02*
X114274511Y-77464568D01*
X114274511Y-77464568D02*
X114131654Y-77321710D01*
X114131654Y-77321710D02*
X113845939Y-77178853D01*
X113845939Y-77178853D02*
X113274511Y-77035996D01*
X113274511Y-77035996D02*
X112988796Y-76893139D01*
X112988796Y-76893139D02*
X112845939Y-76750282D01*
X112845939Y-76750282D02*
X112703082Y-76464568D01*
X112703082Y-76464568D02*
X112703082Y-76178853D01*
X112703082Y-76178853D02*
X112845939Y-75893139D01*
X112845939Y-75893139D02*
X112988796Y-75750282D01*
X112988796Y-75750282D02*
X113274511Y-75607425D01*
X113274511Y-75607425D02*
X113988796Y-75607425D01*
X113988796Y-75607425D02*
X114417368Y-75750282D01*
X115703082Y-78607425D02*
X115703082Y-75607425D01*
X115703082Y-75607425D02*
X116845939Y-75607425D01*
X116845939Y-75607425D02*
X117131654Y-75750282D01*
X117131654Y-75750282D02*
X117274511Y-75893139D01*
X117274511Y-75893139D02*
X117417368Y-76178853D01*
X117417368Y-76178853D02*
X117417368Y-76607425D01*
X117417368Y-76607425D02*
X117274511Y-76893139D01*
X117274511Y-76893139D02*
X117131654Y-77035996D01*
X117131654Y-77035996D02*
X116845939Y-77178853D01*
X116845939Y-77178853D02*
X115703082Y-77178853D01*
X118417368Y-75607425D02*
X120274511Y-75607425D01*
X120274511Y-75607425D02*
X119274511Y-76750282D01*
X119274511Y-76750282D02*
X119703082Y-76750282D01*
X119703082Y-76750282D02*
X119988797Y-76893139D01*
X119988797Y-76893139D02*
X120131654Y-77035996D01*
X120131654Y-77035996D02*
X120274511Y-77321710D01*
X120274511Y-77321710D02*
X120274511Y-78035996D01*
X120274511Y-78035996D02*
X120131654Y-78321710D01*
X120131654Y-78321710D02*
X119988797Y-78464568D01*
X119988797Y-78464568D02*
X119703082Y-78607425D01*
X119703082Y-78607425D02*
X118845939Y-78607425D01*
X118845939Y-78607425D02*
X118560225Y-78464568D01*
X118560225Y-78464568D02*
X118417368Y-78321710D01*
X121417368Y-75893139D02*
X121560225Y-75750282D01*
X121560225Y-75750282D02*
X121845940Y-75607425D01*
X121845940Y-75607425D02*
X122560225Y-75607425D01*
X122560225Y-75607425D02*
X122845940Y-75750282D01*
X122845940Y-75750282D02*
X122988797Y-75893139D01*
X122988797Y-75893139D02*
X123131654Y-76178853D01*
X123131654Y-76178853D02*
X123131654Y-76464568D01*
X123131654Y-76464568D02*
X122988797Y-76893139D01*
X122988797Y-76893139D02*
X121274511Y-78607425D01*
X121274511Y-78607425D02*
X123131654Y-78607425D01*
X128131654Y-78607425D02*
X126703082Y-78607425D01*
X126703082Y-78607425D02*
X126703082Y-75607425D01*
X130417368Y-76607425D02*
X130417368Y-78607425D01*
X129131653Y-76607425D02*
X129131653Y-78178853D01*
X129131653Y-78178853D02*
X129274510Y-78464568D01*
X129274510Y-78464568D02*
X129560225Y-78607425D01*
X129560225Y-78607425D02*
X129988796Y-78607425D01*
X129988796Y-78607425D02*
X130274510Y-78464568D01*
X130274510Y-78464568D02*
X130417368Y-78321710D01*
X133131654Y-78607425D02*
X133131654Y-77035996D01*
X133131654Y-77035996D02*
X132988796Y-76750282D01*
X132988796Y-76750282D02*
X132703082Y-76607425D01*
X132703082Y-76607425D02*
X132131654Y-76607425D01*
X132131654Y-76607425D02*
X131845939Y-76750282D01*
X133131654Y-78464568D02*
X132845939Y-78607425D01*
X132845939Y-78607425D02*
X132131654Y-78607425D01*
X132131654Y-78607425D02*
X131845939Y-78464568D01*
X131845939Y-78464568D02*
X131703082Y-78178853D01*
X131703082Y-78178853D02*
X131703082Y-77893139D01*
X131703082Y-77893139D02*
X131845939Y-77607425D01*
X131845939Y-77607425D02*
X132131654Y-77464568D01*
X132131654Y-77464568D02*
X132845939Y-77464568D01*
X132845939Y-77464568D02*
X133131654Y-77321710D01*
X109703082Y-80437257D02*
X110703082Y-83437257D01*
X110703082Y-83437257D02*
X111703082Y-80437257D01*
X115560225Y-80437257D02*
X115845939Y-80437257D01*
X115845939Y-80437257D02*
X116131653Y-80580114D01*
X116131653Y-80580114D02*
X116274511Y-80722971D01*
X116274511Y-80722971D02*
X116417368Y-81008685D01*
X116417368Y-81008685D02*
X116560225Y-81580114D01*
X116560225Y-81580114D02*
X116560225Y-82294400D01*
X116560225Y-82294400D02*
X116417368Y-82865828D01*
X116417368Y-82865828D02*
X116274511Y-83151542D01*
X116274511Y-83151542D02*
X116131653Y-83294400D01*
X116131653Y-83294400D02*
X115845939Y-83437257D01*
X115845939Y-83437257D02*
X115560225Y-83437257D01*
X115560225Y-83437257D02*
X115274511Y-83294400D01*
X115274511Y-83294400D02*
X115131653Y-83151542D01*
X115131653Y-83151542D02*
X114988796Y-82865828D01*
X114988796Y-82865828D02*
X114845939Y-82294400D01*
X114845939Y-82294400D02*
X114845939Y-81580114D01*
X114845939Y-81580114D02*
X114988796Y-81008685D01*
X114988796Y-81008685D02*
X115131653Y-80722971D01*
X115131653Y-80722971D02*
X115274511Y-80580114D01*
X115274511Y-80580114D02*
X115560225Y-80437257D01*
X117845939Y-83151542D02*
X117988796Y-83294400D01*
X117988796Y-83294400D02*
X117845939Y-83437257D01*
X117845939Y-83437257D02*
X117703082Y-83294400D01*
X117703082Y-83294400D02*
X117845939Y-83151542D01*
X117845939Y-83151542D02*
X117845939Y-83437257D01*
X119845939Y-80437257D02*
X120131653Y-80437257D01*
X120131653Y-80437257D02*
X120417367Y-80580114D01*
X120417367Y-80580114D02*
X120560225Y-80722971D01*
X120560225Y-80722971D02*
X120703082Y-81008685D01*
X120703082Y-81008685D02*
X120845939Y-81580114D01*
X120845939Y-81580114D02*
X120845939Y-82294400D01*
X120845939Y-82294400D02*
X120703082Y-82865828D01*
X120703082Y-82865828D02*
X120560225Y-83151542D01*
X120560225Y-83151542D02*
X120417367Y-83294400D01*
X120417367Y-83294400D02*
X120131653Y-83437257D01*
X120131653Y-83437257D02*
X119845939Y-83437257D01*
X119845939Y-83437257D02*
X119560225Y-83294400D01*
X119560225Y-83294400D02*
X119417367Y-83151542D01*
X119417367Y-83151542D02*
X119274510Y-82865828D01*
X119274510Y-82865828D02*
X119131653Y-82294400D01*
X119131653Y-82294400D02*
X119131653Y-81580114D01*
X119131653Y-81580114D02*
X119274510Y-81008685D01*
X119274510Y-81008685D02*
X119417367Y-80722971D01*
X119417367Y-80722971D02*
X119560225Y-80580114D01*
X119560225Y-80580114D02*
X119845939Y-80437257D01*
D11*
X88455038Y-96172306D02*
X88407419Y-96267544D01*
X88407419Y-96267544D02*
X88407419Y-96410401D01*
X88407419Y-96410401D02*
X88455038Y-96553258D01*
X88455038Y-96553258D02*
X88550276Y-96648496D01*
X88550276Y-96648496D02*
X88645514Y-96696115D01*
X88645514Y-96696115D02*
X88835990Y-96743734D01*
X88835990Y-96743734D02*
X88978847Y-96743734D01*
X88978847Y-96743734D02*
X89169323Y-96696115D01*
X89169323Y-96696115D02*
X89264561Y-96648496D01*
X89264561Y-96648496D02*
X89359800Y-96553258D01*
X89359800Y-96553258D02*
X89407419Y-96410401D01*
X89407419Y-96410401D02*
X89407419Y-96315163D01*
X89407419Y-96315163D02*
X89359800Y-96172306D01*
X89359800Y-96172306D02*
X89312180Y-96124687D01*
X89312180Y-96124687D02*
X88978847Y-96124687D01*
X88978847Y-96124687D02*
X88978847Y-96315163D01*
X89407419Y-95696115D02*
X88407419Y-95696115D01*
X88407419Y-95696115D02*
X89407419Y-95124687D01*
X89407419Y-95124687D02*
X88407419Y-95124687D01*
X89407419Y-94648496D02*
X88407419Y-94648496D01*
X88407419Y-94648496D02*
X88407419Y-94410401D01*
X88407419Y-94410401D02*
X88455038Y-94267544D01*
X88455038Y-94267544D02*
X88550276Y-94172306D01*
X88550276Y-94172306D02*
X88645514Y-94124687D01*
X88645514Y-94124687D02*
X88835990Y-94077068D01*
X88835990Y-94077068D02*
X88978847Y-94077068D01*
X88978847Y-94077068D02*
X89169323Y-94124687D01*
X89169323Y-94124687D02*
X89264561Y-94172306D01*
X89264561Y-94172306D02*
X89359800Y-94267544D01*
X89359800Y-94267544D02*
X89407419Y-94410401D01*
X89407419Y-94410401D02*
X89407419Y-94648496D01*
X86867419Y-96696115D02*
X85867419Y-96696115D01*
X85867419Y-96696115D02*
X85867419Y-96458020D01*
X85867419Y-96458020D02*
X85915038Y-96315163D01*
X85915038Y-96315163D02*
X86010276Y-96219925D01*
X86010276Y-96219925D02*
X86105514Y-96172306D01*
X86105514Y-96172306D02*
X86295990Y-96124687D01*
X86295990Y-96124687D02*
X86438847Y-96124687D01*
X86438847Y-96124687D02*
X86629323Y-96172306D01*
X86629323Y-96172306D02*
X86724561Y-96219925D01*
X86724561Y-96219925D02*
X86819800Y-96315163D01*
X86819800Y-96315163D02*
X86867419Y-96458020D01*
X86867419Y-96458020D02*
X86867419Y-96696115D01*
X86867419Y-95267544D02*
X86343609Y-95267544D01*
X86343609Y-95267544D02*
X86248371Y-95315163D01*
X86248371Y-95315163D02*
X86200752Y-95410401D01*
X86200752Y-95410401D02*
X86200752Y-95600877D01*
X86200752Y-95600877D02*
X86248371Y-95696115D01*
X86819800Y-95267544D02*
X86867419Y-95362782D01*
X86867419Y-95362782D02*
X86867419Y-95600877D01*
X86867419Y-95600877D02*
X86819800Y-95696115D01*
X86819800Y-95696115D02*
X86724561Y-95743734D01*
X86724561Y-95743734D02*
X86629323Y-95743734D01*
X86629323Y-95743734D02*
X86534085Y-95696115D01*
X86534085Y-95696115D02*
X86486466Y-95600877D01*
X86486466Y-95600877D02*
X86486466Y-95362782D01*
X86486466Y-95362782D02*
X86438847Y-95267544D01*
X86200752Y-94934210D02*
X86200752Y-94553258D01*
X85867419Y-94791353D02*
X86724561Y-94791353D01*
X86724561Y-94791353D02*
X86819800Y-94743734D01*
X86819800Y-94743734D02*
X86867419Y-94648496D01*
X86867419Y-94648496D02*
X86867419Y-94553258D01*
X86867419Y-93791353D02*
X86343609Y-93791353D01*
X86343609Y-93791353D02*
X86248371Y-93838972D01*
X86248371Y-93838972D02*
X86200752Y-93934210D01*
X86200752Y-93934210D02*
X86200752Y-94124686D01*
X86200752Y-94124686D02*
X86248371Y-94219924D01*
X86819800Y-93791353D02*
X86867419Y-93886591D01*
X86867419Y-93886591D02*
X86867419Y-94124686D01*
X86867419Y-94124686D02*
X86819800Y-94219924D01*
X86819800Y-94219924D02*
X86724561Y-94267543D01*
X86724561Y-94267543D02*
X86629323Y-94267543D01*
X86629323Y-94267543D02*
X86534085Y-94219924D01*
X86534085Y-94219924D02*
X86486466Y-94124686D01*
X86486466Y-94124686D02*
X86486466Y-93886591D01*
X86486466Y-93886591D02*
X86438847Y-93791353D01*
X83327419Y-96838972D02*
X84327419Y-96505639D01*
X84327419Y-96505639D02*
X83327419Y-96172306D01*
X84279800Y-95410401D02*
X84327419Y-95505639D01*
X84327419Y-95505639D02*
X84327419Y-95696115D01*
X84327419Y-95696115D02*
X84279800Y-95791353D01*
X84279800Y-95791353D02*
X84232180Y-95838972D01*
X84232180Y-95838972D02*
X84136942Y-95886591D01*
X84136942Y-95886591D02*
X83851228Y-95886591D01*
X83851228Y-95886591D02*
X83755990Y-95838972D01*
X83755990Y-95838972D02*
X83708371Y-95791353D01*
X83708371Y-95791353D02*
X83660752Y-95696115D01*
X83660752Y-95696115D02*
X83660752Y-95505639D01*
X83660752Y-95505639D02*
X83708371Y-95410401D01*
X84279800Y-94553258D02*
X84327419Y-94648496D01*
X84327419Y-94648496D02*
X84327419Y-94838972D01*
X84327419Y-94838972D02*
X84279800Y-94934210D01*
X84279800Y-94934210D02*
X84232180Y-94981829D01*
X84232180Y-94981829D02*
X84136942Y-95029448D01*
X84136942Y-95029448D02*
X83851228Y-95029448D01*
X83851228Y-95029448D02*
X83755990Y-94981829D01*
X83755990Y-94981829D02*
X83708371Y-94934210D01*
X83708371Y-94934210D02*
X83660752Y-94838972D01*
X83660752Y-94838972D02*
X83660752Y-94648496D01*
X83660752Y-94648496D02*
X83708371Y-94553258D01*
X126855163Y-122379800D02*
X126998020Y-122427419D01*
X126998020Y-122427419D02*
X127236115Y-122427419D01*
X127236115Y-122427419D02*
X127331353Y-122379800D01*
X127331353Y-122379800D02*
X127378972Y-122332180D01*
X127378972Y-122332180D02*
X127426591Y-122236942D01*
X127426591Y-122236942D02*
X127426591Y-122141704D01*
X127426591Y-122141704D02*
X127378972Y-122046466D01*
X127378972Y-122046466D02*
X127331353Y-121998847D01*
X127331353Y-121998847D02*
X127236115Y-121951228D01*
X127236115Y-121951228D02*
X127045639Y-121903609D01*
X127045639Y-121903609D02*
X126950401Y-121855990D01*
X126950401Y-121855990D02*
X126902782Y-121808371D01*
X126902782Y-121808371D02*
X126855163Y-121713133D01*
X126855163Y-121713133D02*
X126855163Y-121617895D01*
X126855163Y-121617895D02*
X126902782Y-121522657D01*
X126902782Y-121522657D02*
X126950401Y-121475038D01*
X126950401Y-121475038D02*
X127045639Y-121427419D01*
X127045639Y-121427419D02*
X127283734Y-121427419D01*
X127283734Y-121427419D02*
X127426591Y-121475038D01*
X127855163Y-122427419D02*
X127855163Y-121427419D01*
X127855163Y-121427419D02*
X128093258Y-121427419D01*
X128093258Y-121427419D02*
X128236115Y-121475038D01*
X128236115Y-121475038D02*
X128331353Y-121570276D01*
X128331353Y-121570276D02*
X128378972Y-121665514D01*
X128378972Y-121665514D02*
X128426591Y-121855990D01*
X128426591Y-121855990D02*
X128426591Y-121998847D01*
X128426591Y-121998847D02*
X128378972Y-122189323D01*
X128378972Y-122189323D02*
X128331353Y-122284561D01*
X128331353Y-122284561D02*
X128236115Y-122379800D01*
X128236115Y-122379800D02*
X128093258Y-122427419D01*
X128093258Y-122427419D02*
X127855163Y-122427419D01*
X128807544Y-122141704D02*
X129283734Y-122141704D01*
X128712306Y-122427419D02*
X129045639Y-121427419D01*
X129045639Y-121427419D02*
X129378972Y-122427419D01*
X126902782Y-119839800D02*
X127045639Y-119887419D01*
X127045639Y-119887419D02*
X127283734Y-119887419D01*
X127283734Y-119887419D02*
X127378972Y-119839800D01*
X127378972Y-119839800D02*
X127426591Y-119792180D01*
X127426591Y-119792180D02*
X127474210Y-119696942D01*
X127474210Y-119696942D02*
X127474210Y-119601704D01*
X127474210Y-119601704D02*
X127426591Y-119506466D01*
X127426591Y-119506466D02*
X127378972Y-119458847D01*
X127378972Y-119458847D02*
X127283734Y-119411228D01*
X127283734Y-119411228D02*
X127093258Y-119363609D01*
X127093258Y-119363609D02*
X126998020Y-119315990D01*
X126998020Y-119315990D02*
X126950401Y-119268371D01*
X126950401Y-119268371D02*
X126902782Y-119173133D01*
X126902782Y-119173133D02*
X126902782Y-119077895D01*
X126902782Y-119077895D02*
X126950401Y-118982657D01*
X126950401Y-118982657D02*
X126998020Y-118935038D01*
X126998020Y-118935038D02*
X127093258Y-118887419D01*
X127093258Y-118887419D02*
X127331353Y-118887419D01*
X127331353Y-118887419D02*
X127474210Y-118935038D01*
X128474210Y-119792180D02*
X128426591Y-119839800D01*
X128426591Y-119839800D02*
X128283734Y-119887419D01*
X128283734Y-119887419D02*
X128188496Y-119887419D01*
X128188496Y-119887419D02*
X128045639Y-119839800D01*
X128045639Y-119839800D02*
X127950401Y-119744561D01*
X127950401Y-119744561D02*
X127902782Y-119649323D01*
X127902782Y-119649323D02*
X127855163Y-119458847D01*
X127855163Y-119458847D02*
X127855163Y-119315990D01*
X127855163Y-119315990D02*
X127902782Y-119125514D01*
X127902782Y-119125514D02*
X127950401Y-119030276D01*
X127950401Y-119030276D02*
X128045639Y-118935038D01*
X128045639Y-118935038D02*
X128188496Y-118887419D01*
X128188496Y-118887419D02*
X128283734Y-118887419D01*
X128283734Y-118887419D02*
X128426591Y-118935038D01*
X128426591Y-118935038D02*
X128474210Y-118982657D01*
X129378972Y-119887419D02*
X128902782Y-119887419D01*
X128902782Y-119887419D02*
X128902782Y-118887419D01*
X126998020Y-113807419D02*
X127331353Y-114807419D01*
X127331353Y-114807419D02*
X127664686Y-113807419D01*
X128426591Y-114759800D02*
X128331353Y-114807419D01*
X128331353Y-114807419D02*
X128140877Y-114807419D01*
X128140877Y-114807419D02*
X128045639Y-114759800D01*
X128045639Y-114759800D02*
X127998020Y-114712180D01*
X127998020Y-114712180D02*
X127950401Y-114616942D01*
X127950401Y-114616942D02*
X127950401Y-114331228D01*
X127950401Y-114331228D02*
X127998020Y-114235990D01*
X127998020Y-114235990D02*
X128045639Y-114188371D01*
X128045639Y-114188371D02*
X128140877Y-114140752D01*
X128140877Y-114140752D02*
X128331353Y-114140752D01*
X128331353Y-114140752D02*
X128426591Y-114188371D01*
X129283734Y-114759800D02*
X129188496Y-114807419D01*
X129188496Y-114807419D02*
X128998020Y-114807419D01*
X128998020Y-114807419D02*
X128902782Y-114759800D01*
X128902782Y-114759800D02*
X128855163Y-114712180D01*
X128855163Y-114712180D02*
X128807544Y-114616942D01*
X128807544Y-114616942D02*
X128807544Y-114331228D01*
X128807544Y-114331228D02*
X128855163Y-114235990D01*
X128855163Y-114235990D02*
X128902782Y-114188371D01*
X128902782Y-114188371D02*
X128998020Y-114140752D01*
X128998020Y-114140752D02*
X129188496Y-114140752D01*
X129188496Y-114140752D02*
X129283734Y-114188371D01*
X127188496Y-116395038D02*
X127093258Y-116347419D01*
X127093258Y-116347419D02*
X126950401Y-116347419D01*
X126950401Y-116347419D02*
X126807544Y-116395038D01*
X126807544Y-116395038D02*
X126712306Y-116490276D01*
X126712306Y-116490276D02*
X126664687Y-116585514D01*
X126664687Y-116585514D02*
X126617068Y-116775990D01*
X126617068Y-116775990D02*
X126617068Y-116918847D01*
X126617068Y-116918847D02*
X126664687Y-117109323D01*
X126664687Y-117109323D02*
X126712306Y-117204561D01*
X126712306Y-117204561D02*
X126807544Y-117299800D01*
X126807544Y-117299800D02*
X126950401Y-117347419D01*
X126950401Y-117347419D02*
X127045639Y-117347419D01*
X127045639Y-117347419D02*
X127188496Y-117299800D01*
X127188496Y-117299800D02*
X127236115Y-117252180D01*
X127236115Y-117252180D02*
X127236115Y-116918847D01*
X127236115Y-116918847D02*
X127045639Y-116918847D01*
X127664687Y-117347419D02*
X127664687Y-116347419D01*
X127664687Y-116347419D02*
X128236115Y-117347419D01*
X128236115Y-117347419D02*
X128236115Y-116347419D01*
X128712306Y-117347419D02*
X128712306Y-116347419D01*
X128712306Y-116347419D02*
X128950401Y-116347419D01*
X128950401Y-116347419D02*
X129093258Y-116395038D01*
X129093258Y-116395038D02*
X129188496Y-116490276D01*
X129188496Y-116490276D02*
X129236115Y-116585514D01*
X129236115Y-116585514D02*
X129283734Y-116775990D01*
X129283734Y-116775990D02*
X129283734Y-116918847D01*
X129283734Y-116918847D02*
X129236115Y-117109323D01*
X129236115Y-117109323D02*
X129188496Y-117204561D01*
X129188496Y-117204561D02*
X129093258Y-117299800D01*
X129093258Y-117299800D02*
X128950401Y-117347419D01*
X128950401Y-117347419D02*
X128712306Y-117347419D01*
X57311027Y-104917419D02*
X57644360Y-105917419D01*
X57644360Y-105917419D02*
X57977693Y-104917419D01*
X58739598Y-105869800D02*
X58644360Y-105917419D01*
X58644360Y-105917419D02*
X58453884Y-105917419D01*
X58453884Y-105917419D02*
X58358646Y-105869800D01*
X58358646Y-105869800D02*
X58311027Y-105822180D01*
X58311027Y-105822180D02*
X58263408Y-105726942D01*
X58263408Y-105726942D02*
X58263408Y-105441228D01*
X58263408Y-105441228D02*
X58311027Y-105345990D01*
X58311027Y-105345990D02*
X58358646Y-105298371D01*
X58358646Y-105298371D02*
X58453884Y-105250752D01*
X58453884Y-105250752D02*
X58644360Y-105250752D01*
X58644360Y-105250752D02*
X58739598Y-105298371D01*
X59596741Y-105869800D02*
X59501503Y-105917419D01*
X59501503Y-105917419D02*
X59311027Y-105917419D01*
X59311027Y-105917419D02*
X59215789Y-105869800D01*
X59215789Y-105869800D02*
X59168170Y-105822180D01*
X59168170Y-105822180D02*
X59120551Y-105726942D01*
X59120551Y-105726942D02*
X59120551Y-105441228D01*
X59120551Y-105441228D02*
X59168170Y-105345990D01*
X59168170Y-105345990D02*
X59215789Y-105298371D01*
X59215789Y-105298371D02*
X59311027Y-105250752D01*
X59311027Y-105250752D02*
X59501503Y-105250752D01*
X59501503Y-105250752D02*
X59596741Y-105298371D01*
X73848496Y-103060038D02*
X73753258Y-103012419D01*
X73753258Y-103012419D02*
X73610401Y-103012419D01*
X73610401Y-103012419D02*
X73467544Y-103060038D01*
X73467544Y-103060038D02*
X73372306Y-103155276D01*
X73372306Y-103155276D02*
X73324687Y-103250514D01*
X73324687Y-103250514D02*
X73277068Y-103440990D01*
X73277068Y-103440990D02*
X73277068Y-103583847D01*
X73277068Y-103583847D02*
X73324687Y-103774323D01*
X73324687Y-103774323D02*
X73372306Y-103869561D01*
X73372306Y-103869561D02*
X73467544Y-103964800D01*
X73467544Y-103964800D02*
X73610401Y-104012419D01*
X73610401Y-104012419D02*
X73705639Y-104012419D01*
X73705639Y-104012419D02*
X73848496Y-103964800D01*
X73848496Y-103964800D02*
X73896115Y-103917180D01*
X73896115Y-103917180D02*
X73896115Y-103583847D01*
X73896115Y-103583847D02*
X73705639Y-103583847D01*
X74324687Y-104012419D02*
X74324687Y-103012419D01*
X74324687Y-103012419D02*
X74896115Y-104012419D01*
X74896115Y-104012419D02*
X74896115Y-103012419D01*
X75372306Y-104012419D02*
X75372306Y-103012419D01*
X75372306Y-103012419D02*
X75610401Y-103012419D01*
X75610401Y-103012419D02*
X75753258Y-103060038D01*
X75753258Y-103060038D02*
X75848496Y-103155276D01*
X75848496Y-103155276D02*
X75896115Y-103250514D01*
X75896115Y-103250514D02*
X75943734Y-103440990D01*
X75943734Y-103440990D02*
X75943734Y-103583847D01*
X75943734Y-103583847D02*
X75896115Y-103774323D01*
X75896115Y-103774323D02*
X75848496Y-103869561D01*
X75848496Y-103869561D02*
X75753258Y-103964800D01*
X75753258Y-103964800D02*
X75610401Y-104012419D01*
X75610401Y-104012419D02*
X75372306Y-104012419D01*
X74440074Y-104917419D02*
X73963884Y-104917419D01*
X73963884Y-104917419D02*
X73916265Y-105393609D01*
X73916265Y-105393609D02*
X73963884Y-105345990D01*
X73963884Y-105345990D02*
X74059122Y-105298371D01*
X74059122Y-105298371D02*
X74297217Y-105298371D01*
X74297217Y-105298371D02*
X74392455Y-105345990D01*
X74392455Y-105345990D02*
X74440074Y-105393609D01*
X74440074Y-105393609D02*
X74487693Y-105488847D01*
X74487693Y-105488847D02*
X74487693Y-105726942D01*
X74487693Y-105726942D02*
X74440074Y-105822180D01*
X74440074Y-105822180D02*
X74392455Y-105869800D01*
X74392455Y-105869800D02*
X74297217Y-105917419D01*
X74297217Y-105917419D02*
X74059122Y-105917419D01*
X74059122Y-105917419D02*
X73963884Y-105869800D01*
X73963884Y-105869800D02*
X73916265Y-105822180D01*
X74773408Y-104917419D02*
X75106741Y-105917419D01*
X75106741Y-105917419D02*
X75440074Y-104917419D01*
X61787693Y-131000038D02*
X61692455Y-130952419D01*
X61692455Y-130952419D02*
X61549598Y-130952419D01*
X61549598Y-130952419D02*
X61406741Y-131000038D01*
X61406741Y-131000038D02*
X61311503Y-131095276D01*
X61311503Y-131095276D02*
X61263884Y-131190514D01*
X61263884Y-131190514D02*
X61216265Y-131380990D01*
X61216265Y-131380990D02*
X61216265Y-131523847D01*
X61216265Y-131523847D02*
X61263884Y-131714323D01*
X61263884Y-131714323D02*
X61311503Y-131809561D01*
X61311503Y-131809561D02*
X61406741Y-131904800D01*
X61406741Y-131904800D02*
X61549598Y-131952419D01*
X61549598Y-131952419D02*
X61644836Y-131952419D01*
X61644836Y-131952419D02*
X61787693Y-131904800D01*
X61787693Y-131904800D02*
X61835312Y-131857180D01*
X61835312Y-131857180D02*
X61835312Y-131523847D01*
X61835312Y-131523847D02*
X61644836Y-131523847D01*
X62263884Y-131952419D02*
X62263884Y-130952419D01*
X62263884Y-130952419D02*
X62835312Y-131952419D01*
X62835312Y-131952419D02*
X62835312Y-130952419D01*
X63311503Y-131952419D02*
X63311503Y-130952419D01*
X63311503Y-130952419D02*
X63549598Y-130952419D01*
X63549598Y-130952419D02*
X63692455Y-131000038D01*
X63692455Y-131000038D02*
X63787693Y-131095276D01*
X63787693Y-131095276D02*
X63835312Y-131190514D01*
X63835312Y-131190514D02*
X63882931Y-131380990D01*
X63882931Y-131380990D02*
X63882931Y-131523847D01*
X63882931Y-131523847D02*
X63835312Y-131714323D01*
X63835312Y-131714323D02*
X63787693Y-131809561D01*
X63787693Y-131809561D02*
X63692455Y-131904800D01*
X63692455Y-131904800D02*
X63549598Y-131952419D01*
X63549598Y-131952419D02*
X63311503Y-131952419D01*
X126331353Y-98615038D02*
X126236115Y-98567419D01*
X126236115Y-98567419D02*
X126093258Y-98567419D01*
X126093258Y-98567419D02*
X125950401Y-98615038D01*
X125950401Y-98615038D02*
X125855163Y-98710276D01*
X125855163Y-98710276D02*
X125807544Y-98805514D01*
X125807544Y-98805514D02*
X125759925Y-98995990D01*
X125759925Y-98995990D02*
X125759925Y-99138847D01*
X125759925Y-99138847D02*
X125807544Y-99329323D01*
X125807544Y-99329323D02*
X125855163Y-99424561D01*
X125855163Y-99424561D02*
X125950401Y-99519800D01*
X125950401Y-99519800D02*
X126093258Y-99567419D01*
X126093258Y-99567419D02*
X126188496Y-99567419D01*
X126188496Y-99567419D02*
X126331353Y-99519800D01*
X126331353Y-99519800D02*
X126378972Y-99472180D01*
X126378972Y-99472180D02*
X126378972Y-99138847D01*
X126378972Y-99138847D02*
X126188496Y-99138847D01*
X126807544Y-99567419D02*
X126807544Y-98567419D01*
X126807544Y-98567419D02*
X127045639Y-98567419D01*
X127045639Y-98567419D02*
X127188496Y-98615038D01*
X127188496Y-98615038D02*
X127283734Y-98710276D01*
X127283734Y-98710276D02*
X127331353Y-98805514D01*
X127331353Y-98805514D02*
X127378972Y-98995990D01*
X127378972Y-98995990D02*
X127378972Y-99138847D01*
X127378972Y-99138847D02*
X127331353Y-99329323D01*
X127331353Y-99329323D02*
X127283734Y-99424561D01*
X127283734Y-99424561D02*
X127188496Y-99519800D01*
X127188496Y-99519800D02*
X127045639Y-99567419D01*
X127045639Y-99567419D02*
X126807544Y-99567419D01*
X127998020Y-98567419D02*
X128093258Y-98567419D01*
X128093258Y-98567419D02*
X128188496Y-98615038D01*
X128188496Y-98615038D02*
X128236115Y-98662657D01*
X128236115Y-98662657D02*
X128283734Y-98757895D01*
X128283734Y-98757895D02*
X128331353Y-98948371D01*
X128331353Y-98948371D02*
X128331353Y-99186466D01*
X128331353Y-99186466D02*
X128283734Y-99376942D01*
X128283734Y-99376942D02*
X128236115Y-99472180D01*
X128236115Y-99472180D02*
X128188496Y-99519800D01*
X128188496Y-99519800D02*
X128093258Y-99567419D01*
X128093258Y-99567419D02*
X127998020Y-99567419D01*
X127998020Y-99567419D02*
X127902782Y-99519800D01*
X127902782Y-99519800D02*
X127855163Y-99472180D01*
X127855163Y-99472180D02*
X127807544Y-99376942D01*
X127807544Y-99376942D02*
X127759925Y-99186466D01*
X127759925Y-99186466D02*
X127759925Y-98948371D01*
X127759925Y-98948371D02*
X127807544Y-98757895D01*
X127807544Y-98757895D02*
X127855163Y-98662657D01*
X127855163Y-98662657D02*
X127902782Y-98615038D01*
X127902782Y-98615038D02*
X127998020Y-98567419D01*
X128712306Y-98662657D02*
X128759925Y-98615038D01*
X128759925Y-98615038D02*
X128855163Y-98567419D01*
X128855163Y-98567419D02*
X129093258Y-98567419D01*
X129093258Y-98567419D02*
X129188496Y-98615038D01*
X129188496Y-98615038D02*
X129236115Y-98662657D01*
X129236115Y-98662657D02*
X129283734Y-98757895D01*
X129283734Y-98757895D02*
X129283734Y-98853133D01*
X129283734Y-98853133D02*
X129236115Y-98995990D01*
X129236115Y-98995990D02*
X128664687Y-99567419D01*
X128664687Y-99567419D02*
X129283734Y-99567419D01*
X126331353Y-101155038D02*
X126236115Y-101107419D01*
X126236115Y-101107419D02*
X126093258Y-101107419D01*
X126093258Y-101107419D02*
X125950401Y-101155038D01*
X125950401Y-101155038D02*
X125855163Y-101250276D01*
X125855163Y-101250276D02*
X125807544Y-101345514D01*
X125807544Y-101345514D02*
X125759925Y-101535990D01*
X125759925Y-101535990D02*
X125759925Y-101678847D01*
X125759925Y-101678847D02*
X125807544Y-101869323D01*
X125807544Y-101869323D02*
X125855163Y-101964561D01*
X125855163Y-101964561D02*
X125950401Y-102059800D01*
X125950401Y-102059800D02*
X126093258Y-102107419D01*
X126093258Y-102107419D02*
X126188496Y-102107419D01*
X126188496Y-102107419D02*
X126331353Y-102059800D01*
X126331353Y-102059800D02*
X126378972Y-102012180D01*
X126378972Y-102012180D02*
X126378972Y-101678847D01*
X126378972Y-101678847D02*
X126188496Y-101678847D01*
X126807544Y-102107419D02*
X126807544Y-101107419D01*
X126807544Y-101107419D02*
X127045639Y-101107419D01*
X127045639Y-101107419D02*
X127188496Y-101155038D01*
X127188496Y-101155038D02*
X127283734Y-101250276D01*
X127283734Y-101250276D02*
X127331353Y-101345514D01*
X127331353Y-101345514D02*
X127378972Y-101535990D01*
X127378972Y-101535990D02*
X127378972Y-101678847D01*
X127378972Y-101678847D02*
X127331353Y-101869323D01*
X127331353Y-101869323D02*
X127283734Y-101964561D01*
X127283734Y-101964561D02*
X127188496Y-102059800D01*
X127188496Y-102059800D02*
X127045639Y-102107419D01*
X127045639Y-102107419D02*
X126807544Y-102107419D01*
X127998020Y-101107419D02*
X128093258Y-101107419D01*
X128093258Y-101107419D02*
X128188496Y-101155038D01*
X128188496Y-101155038D02*
X128236115Y-101202657D01*
X128236115Y-101202657D02*
X128283734Y-101297895D01*
X128283734Y-101297895D02*
X128331353Y-101488371D01*
X128331353Y-101488371D02*
X128331353Y-101726466D01*
X128331353Y-101726466D02*
X128283734Y-101916942D01*
X128283734Y-101916942D02*
X128236115Y-102012180D01*
X128236115Y-102012180D02*
X128188496Y-102059800D01*
X128188496Y-102059800D02*
X128093258Y-102107419D01*
X128093258Y-102107419D02*
X127998020Y-102107419D01*
X127998020Y-102107419D02*
X127902782Y-102059800D01*
X127902782Y-102059800D02*
X127855163Y-102012180D01*
X127855163Y-102012180D02*
X127807544Y-101916942D01*
X127807544Y-101916942D02*
X127759925Y-101726466D01*
X127759925Y-101726466D02*
X127759925Y-101488371D01*
X127759925Y-101488371D02*
X127807544Y-101297895D01*
X127807544Y-101297895D02*
X127855163Y-101202657D01*
X127855163Y-101202657D02*
X127902782Y-101155038D01*
X127902782Y-101155038D02*
X127998020Y-101107419D01*
X128950401Y-101107419D02*
X129045639Y-101107419D01*
X129045639Y-101107419D02*
X129140877Y-101155038D01*
X129140877Y-101155038D02*
X129188496Y-101202657D01*
X129188496Y-101202657D02*
X129236115Y-101297895D01*
X129236115Y-101297895D02*
X129283734Y-101488371D01*
X129283734Y-101488371D02*
X129283734Y-101726466D01*
X129283734Y-101726466D02*
X129236115Y-101916942D01*
X129236115Y-101916942D02*
X129188496Y-102012180D01*
X129188496Y-102012180D02*
X129140877Y-102059800D01*
X129140877Y-102059800D02*
X129045639Y-102107419D01*
X129045639Y-102107419D02*
X128950401Y-102107419D01*
X128950401Y-102107419D02*
X128855163Y-102059800D01*
X128855163Y-102059800D02*
X128807544Y-102012180D01*
X128807544Y-102012180D02*
X128759925Y-101916942D01*
X128759925Y-101916942D02*
X128712306Y-101726466D01*
X128712306Y-101726466D02*
X128712306Y-101488371D01*
X128712306Y-101488371D02*
X128759925Y-101297895D01*
X128759925Y-101297895D02*
X128807544Y-101202657D01*
X128807544Y-101202657D02*
X128855163Y-101155038D01*
X128855163Y-101155038D02*
X128950401Y-101107419D01*
X127283734Y-104552180D02*
X127236115Y-104599800D01*
X127236115Y-104599800D02*
X127093258Y-104647419D01*
X127093258Y-104647419D02*
X126998020Y-104647419D01*
X126998020Y-104647419D02*
X126855163Y-104599800D01*
X126855163Y-104599800D02*
X126759925Y-104504561D01*
X126759925Y-104504561D02*
X126712306Y-104409323D01*
X126712306Y-104409323D02*
X126664687Y-104218847D01*
X126664687Y-104218847D02*
X126664687Y-104075990D01*
X126664687Y-104075990D02*
X126712306Y-103885514D01*
X126712306Y-103885514D02*
X126759925Y-103790276D01*
X126759925Y-103790276D02*
X126855163Y-103695038D01*
X126855163Y-103695038D02*
X126998020Y-103647419D01*
X126998020Y-103647419D02*
X127093258Y-103647419D01*
X127093258Y-103647419D02*
X127236115Y-103695038D01*
X127236115Y-103695038D02*
X127283734Y-103742657D01*
X127664687Y-104599800D02*
X127807544Y-104647419D01*
X127807544Y-104647419D02*
X128045639Y-104647419D01*
X128045639Y-104647419D02*
X128140877Y-104599800D01*
X128140877Y-104599800D02*
X128188496Y-104552180D01*
X128188496Y-104552180D02*
X128236115Y-104456942D01*
X128236115Y-104456942D02*
X128236115Y-104361704D01*
X128236115Y-104361704D02*
X128188496Y-104266466D01*
X128188496Y-104266466D02*
X128140877Y-104218847D01*
X128140877Y-104218847D02*
X128045639Y-104171228D01*
X128045639Y-104171228D02*
X127855163Y-104123609D01*
X127855163Y-104123609D02*
X127759925Y-104075990D01*
X127759925Y-104075990D02*
X127712306Y-104028371D01*
X127712306Y-104028371D02*
X127664687Y-103933133D01*
X127664687Y-103933133D02*
X127664687Y-103837895D01*
X127664687Y-103837895D02*
X127712306Y-103742657D01*
X127712306Y-103742657D02*
X127759925Y-103695038D01*
X127759925Y-103695038D02*
X127855163Y-103647419D01*
X127855163Y-103647419D02*
X128093258Y-103647419D01*
X128093258Y-103647419D02*
X128236115Y-103695038D01*
X128664687Y-104647419D02*
X128664687Y-103647419D01*
X128664687Y-103647419D02*
X129236115Y-104647419D01*
X129236115Y-104647419D02*
X129236115Y-103647419D01*
X126998020Y-85867419D02*
X127331353Y-86867419D01*
X127331353Y-86867419D02*
X127664686Y-85867419D01*
X128426591Y-86819800D02*
X128331353Y-86867419D01*
X128331353Y-86867419D02*
X128140877Y-86867419D01*
X128140877Y-86867419D02*
X128045639Y-86819800D01*
X128045639Y-86819800D02*
X127998020Y-86772180D01*
X127998020Y-86772180D02*
X127950401Y-86676942D01*
X127950401Y-86676942D02*
X127950401Y-86391228D01*
X127950401Y-86391228D02*
X127998020Y-86295990D01*
X127998020Y-86295990D02*
X128045639Y-86248371D01*
X128045639Y-86248371D02*
X128140877Y-86200752D01*
X128140877Y-86200752D02*
X128331353Y-86200752D01*
X128331353Y-86200752D02*
X128426591Y-86248371D01*
X129283734Y-86819800D02*
X129188496Y-86867419D01*
X129188496Y-86867419D02*
X128998020Y-86867419D01*
X128998020Y-86867419D02*
X128902782Y-86819800D01*
X128902782Y-86819800D02*
X128855163Y-86772180D01*
X128855163Y-86772180D02*
X128807544Y-86676942D01*
X128807544Y-86676942D02*
X128807544Y-86391228D01*
X128807544Y-86391228D02*
X128855163Y-86295990D01*
X128855163Y-86295990D02*
X128902782Y-86248371D01*
X128902782Y-86248371D02*
X128998020Y-86200752D01*
X128998020Y-86200752D02*
X129188496Y-86200752D01*
X129188496Y-86200752D02*
X129283734Y-86248371D01*
X127188496Y-88455038D02*
X127093258Y-88407419D01*
X127093258Y-88407419D02*
X126950401Y-88407419D01*
X126950401Y-88407419D02*
X126807544Y-88455038D01*
X126807544Y-88455038D02*
X126712306Y-88550276D01*
X126712306Y-88550276D02*
X126664687Y-88645514D01*
X126664687Y-88645514D02*
X126617068Y-88835990D01*
X126617068Y-88835990D02*
X126617068Y-88978847D01*
X126617068Y-88978847D02*
X126664687Y-89169323D01*
X126664687Y-89169323D02*
X126712306Y-89264561D01*
X126712306Y-89264561D02*
X126807544Y-89359800D01*
X126807544Y-89359800D02*
X126950401Y-89407419D01*
X126950401Y-89407419D02*
X127045639Y-89407419D01*
X127045639Y-89407419D02*
X127188496Y-89359800D01*
X127188496Y-89359800D02*
X127236115Y-89312180D01*
X127236115Y-89312180D02*
X127236115Y-88978847D01*
X127236115Y-88978847D02*
X127045639Y-88978847D01*
X127664687Y-89407419D02*
X127664687Y-88407419D01*
X127664687Y-88407419D02*
X128236115Y-89407419D01*
X128236115Y-89407419D02*
X128236115Y-88407419D01*
X128712306Y-89407419D02*
X128712306Y-88407419D01*
X128712306Y-88407419D02*
X128950401Y-88407419D01*
X128950401Y-88407419D02*
X129093258Y-88455038D01*
X129093258Y-88455038D02*
X129188496Y-88550276D01*
X129188496Y-88550276D02*
X129236115Y-88645514D01*
X129236115Y-88645514D02*
X129283734Y-88835990D01*
X129283734Y-88835990D02*
X129283734Y-88978847D01*
X129283734Y-88978847D02*
X129236115Y-89169323D01*
X129236115Y-89169323D02*
X129188496Y-89264561D01*
X129188496Y-89264561D02*
X129093258Y-89359800D01*
X129093258Y-89359800D02*
X128950401Y-89407419D01*
X128950401Y-89407419D02*
X128712306Y-89407419D01*
X126093259Y-91947419D02*
X126093259Y-90947419D01*
X126093259Y-90947419D02*
X126426592Y-91661704D01*
X126426592Y-91661704D02*
X126759925Y-90947419D01*
X126759925Y-90947419D02*
X126759925Y-91947419D01*
X127426592Y-90947419D02*
X127617068Y-90947419D01*
X127617068Y-90947419D02*
X127712306Y-90995038D01*
X127712306Y-90995038D02*
X127807544Y-91090276D01*
X127807544Y-91090276D02*
X127855163Y-91280752D01*
X127855163Y-91280752D02*
X127855163Y-91614085D01*
X127855163Y-91614085D02*
X127807544Y-91804561D01*
X127807544Y-91804561D02*
X127712306Y-91899800D01*
X127712306Y-91899800D02*
X127617068Y-91947419D01*
X127617068Y-91947419D02*
X127426592Y-91947419D01*
X127426592Y-91947419D02*
X127331354Y-91899800D01*
X127331354Y-91899800D02*
X127236116Y-91804561D01*
X127236116Y-91804561D02*
X127188497Y-91614085D01*
X127188497Y-91614085D02*
X127188497Y-91280752D01*
X127188497Y-91280752D02*
X127236116Y-91090276D01*
X127236116Y-91090276D02*
X127331354Y-90995038D01*
X127331354Y-90995038D02*
X127426592Y-90947419D01*
X128236116Y-91899800D02*
X128378973Y-91947419D01*
X128378973Y-91947419D02*
X128617068Y-91947419D01*
X128617068Y-91947419D02*
X128712306Y-91899800D01*
X128712306Y-91899800D02*
X128759925Y-91852180D01*
X128759925Y-91852180D02*
X128807544Y-91756942D01*
X128807544Y-91756942D02*
X128807544Y-91661704D01*
X128807544Y-91661704D02*
X128759925Y-91566466D01*
X128759925Y-91566466D02*
X128712306Y-91518847D01*
X128712306Y-91518847D02*
X128617068Y-91471228D01*
X128617068Y-91471228D02*
X128426592Y-91423609D01*
X128426592Y-91423609D02*
X128331354Y-91375990D01*
X128331354Y-91375990D02*
X128283735Y-91328371D01*
X128283735Y-91328371D02*
X128236116Y-91233133D01*
X128236116Y-91233133D02*
X128236116Y-91137895D01*
X128236116Y-91137895D02*
X128283735Y-91042657D01*
X128283735Y-91042657D02*
X128331354Y-90995038D01*
X128331354Y-90995038D02*
X128426592Y-90947419D01*
X128426592Y-90947419D02*
X128664687Y-90947419D01*
X128664687Y-90947419D02*
X128807544Y-90995038D01*
X129236116Y-91947419D02*
X129236116Y-90947419D01*
X126093259Y-97027419D02*
X126093259Y-96027419D01*
X126093259Y-96027419D02*
X126426592Y-96741704D01*
X126426592Y-96741704D02*
X126759925Y-96027419D01*
X126759925Y-96027419D02*
X126759925Y-97027419D01*
X127236116Y-97027419D02*
X127236116Y-96027419D01*
X127664687Y-96979800D02*
X127807544Y-97027419D01*
X127807544Y-97027419D02*
X128045639Y-97027419D01*
X128045639Y-97027419D02*
X128140877Y-96979800D01*
X128140877Y-96979800D02*
X128188496Y-96932180D01*
X128188496Y-96932180D02*
X128236115Y-96836942D01*
X128236115Y-96836942D02*
X128236115Y-96741704D01*
X128236115Y-96741704D02*
X128188496Y-96646466D01*
X128188496Y-96646466D02*
X128140877Y-96598847D01*
X128140877Y-96598847D02*
X128045639Y-96551228D01*
X128045639Y-96551228D02*
X127855163Y-96503609D01*
X127855163Y-96503609D02*
X127759925Y-96455990D01*
X127759925Y-96455990D02*
X127712306Y-96408371D01*
X127712306Y-96408371D02*
X127664687Y-96313133D01*
X127664687Y-96313133D02*
X127664687Y-96217895D01*
X127664687Y-96217895D02*
X127712306Y-96122657D01*
X127712306Y-96122657D02*
X127759925Y-96075038D01*
X127759925Y-96075038D02*
X127855163Y-96027419D01*
X127855163Y-96027419D02*
X128093258Y-96027419D01*
X128093258Y-96027419D02*
X128236115Y-96075038D01*
X128855163Y-96027419D02*
X129045639Y-96027419D01*
X129045639Y-96027419D02*
X129140877Y-96075038D01*
X129140877Y-96075038D02*
X129236115Y-96170276D01*
X129236115Y-96170276D02*
X129283734Y-96360752D01*
X129283734Y-96360752D02*
X129283734Y-96694085D01*
X129283734Y-96694085D02*
X129236115Y-96884561D01*
X129236115Y-96884561D02*
X129140877Y-96979800D01*
X129140877Y-96979800D02*
X129045639Y-97027419D01*
X129045639Y-97027419D02*
X128855163Y-97027419D01*
X128855163Y-97027419D02*
X128759925Y-96979800D01*
X128759925Y-96979800D02*
X128664687Y-96884561D01*
X128664687Y-96884561D02*
X128617068Y-96694085D01*
X128617068Y-96694085D02*
X128617068Y-96360752D01*
X128617068Y-96360752D02*
X128664687Y-96170276D01*
X128664687Y-96170276D02*
X128759925Y-96075038D01*
X128759925Y-96075038D02*
X128855163Y-96027419D01*
X125902782Y-94439800D02*
X126045639Y-94487419D01*
X126045639Y-94487419D02*
X126283734Y-94487419D01*
X126283734Y-94487419D02*
X126378972Y-94439800D01*
X126378972Y-94439800D02*
X126426591Y-94392180D01*
X126426591Y-94392180D02*
X126474210Y-94296942D01*
X126474210Y-94296942D02*
X126474210Y-94201704D01*
X126474210Y-94201704D02*
X126426591Y-94106466D01*
X126426591Y-94106466D02*
X126378972Y-94058847D01*
X126378972Y-94058847D02*
X126283734Y-94011228D01*
X126283734Y-94011228D02*
X126093258Y-93963609D01*
X126093258Y-93963609D02*
X125998020Y-93915990D01*
X125998020Y-93915990D02*
X125950401Y-93868371D01*
X125950401Y-93868371D02*
X125902782Y-93773133D01*
X125902782Y-93773133D02*
X125902782Y-93677895D01*
X125902782Y-93677895D02*
X125950401Y-93582657D01*
X125950401Y-93582657D02*
X125998020Y-93535038D01*
X125998020Y-93535038D02*
X126093258Y-93487419D01*
X126093258Y-93487419D02*
X126331353Y-93487419D01*
X126331353Y-93487419D02*
X126474210Y-93535038D01*
X127474210Y-94392180D02*
X127426591Y-94439800D01*
X127426591Y-94439800D02*
X127283734Y-94487419D01*
X127283734Y-94487419D02*
X127188496Y-94487419D01*
X127188496Y-94487419D02*
X127045639Y-94439800D01*
X127045639Y-94439800D02*
X126950401Y-94344561D01*
X126950401Y-94344561D02*
X126902782Y-94249323D01*
X126902782Y-94249323D02*
X126855163Y-94058847D01*
X126855163Y-94058847D02*
X126855163Y-93915990D01*
X126855163Y-93915990D02*
X126902782Y-93725514D01*
X126902782Y-93725514D02*
X126950401Y-93630276D01*
X126950401Y-93630276D02*
X127045639Y-93535038D01*
X127045639Y-93535038D02*
X127188496Y-93487419D01*
X127188496Y-93487419D02*
X127283734Y-93487419D01*
X127283734Y-93487419D02*
X127426591Y-93535038D01*
X127426591Y-93535038D02*
X127474210Y-93582657D01*
X128378972Y-94487419D02*
X127902782Y-94487419D01*
X127902782Y-94487419D02*
X127902782Y-93487419D01*
X128712306Y-94487419D02*
X128712306Y-93487419D01*
X129283734Y-94487419D02*
X128855163Y-93915990D01*
X129283734Y-93487419D02*
X128712306Y-94058847D01*
X76980074Y-130952419D02*
X76503884Y-130952419D01*
X76503884Y-130952419D02*
X76456265Y-131428609D01*
X76456265Y-131428609D02*
X76503884Y-131380990D01*
X76503884Y-131380990D02*
X76599122Y-131333371D01*
X76599122Y-131333371D02*
X76837217Y-131333371D01*
X76837217Y-131333371D02*
X76932455Y-131380990D01*
X76932455Y-131380990D02*
X76980074Y-131428609D01*
X76980074Y-131428609D02*
X77027693Y-131523847D01*
X77027693Y-131523847D02*
X77027693Y-131761942D01*
X77027693Y-131761942D02*
X76980074Y-131857180D01*
X76980074Y-131857180D02*
X76932455Y-131904800D01*
X76932455Y-131904800D02*
X76837217Y-131952419D01*
X76837217Y-131952419D02*
X76599122Y-131952419D01*
X76599122Y-131952419D02*
X76503884Y-131904800D01*
X76503884Y-131904800D02*
X76456265Y-131857180D01*
X77313408Y-130952419D02*
X77646741Y-131952419D01*
X77646741Y-131952419D02*
X77980074Y-130952419D01*
D12*
X104648095Y-126454819D02*
X104648095Y-127264342D01*
X104648095Y-127264342D02*
X104695714Y-127359580D01*
X104695714Y-127359580D02*
X104743333Y-127407200D01*
X104743333Y-127407200D02*
X104838571Y-127454819D01*
X104838571Y-127454819D02*
X105029047Y-127454819D01*
X105029047Y-127454819D02*
X105124285Y-127407200D01*
X105124285Y-127407200D02*
X105171904Y-127359580D01*
X105171904Y-127359580D02*
X105219523Y-127264342D01*
X105219523Y-127264342D02*
X105219523Y-126454819D01*
X106219523Y-127454819D02*
X105648095Y-127454819D01*
X105933809Y-127454819D02*
X105933809Y-126454819D01*
X105933809Y-126454819D02*
X105838571Y-126597676D01*
X105838571Y-126597676D02*
X105743333Y-126692914D01*
X105743333Y-126692914D02*
X105648095Y-126740533D01*
D11*
X99847693Y-90820038D02*
X99752455Y-90772419D01*
X99752455Y-90772419D02*
X99609598Y-90772419D01*
X99609598Y-90772419D02*
X99466741Y-90820038D01*
X99466741Y-90820038D02*
X99371503Y-90915276D01*
X99371503Y-90915276D02*
X99323884Y-91010514D01*
X99323884Y-91010514D02*
X99276265Y-91200990D01*
X99276265Y-91200990D02*
X99276265Y-91343847D01*
X99276265Y-91343847D02*
X99323884Y-91534323D01*
X99323884Y-91534323D02*
X99371503Y-91629561D01*
X99371503Y-91629561D02*
X99466741Y-91724800D01*
X99466741Y-91724800D02*
X99609598Y-91772419D01*
X99609598Y-91772419D02*
X99704836Y-91772419D01*
X99704836Y-91772419D02*
X99847693Y-91724800D01*
X99847693Y-91724800D02*
X99895312Y-91677180D01*
X99895312Y-91677180D02*
X99895312Y-91343847D01*
X99895312Y-91343847D02*
X99704836Y-91343847D01*
X100323884Y-91772419D02*
X100323884Y-90772419D01*
X100323884Y-90772419D02*
X100704836Y-90772419D01*
X100704836Y-90772419D02*
X100800074Y-90820038D01*
X100800074Y-90820038D02*
X100847693Y-90867657D01*
X100847693Y-90867657D02*
X100895312Y-90962895D01*
X100895312Y-90962895D02*
X100895312Y-91105752D01*
X100895312Y-91105752D02*
X100847693Y-91200990D01*
X100847693Y-91200990D02*
X100800074Y-91248609D01*
X100800074Y-91248609D02*
X100704836Y-91296228D01*
X100704836Y-91296228D02*
X100323884Y-91296228D01*
X101514360Y-90772419D02*
X101609598Y-90772419D01*
X101609598Y-90772419D02*
X101704836Y-90820038D01*
X101704836Y-90820038D02*
X101752455Y-90867657D01*
X101752455Y-90867657D02*
X101800074Y-90962895D01*
X101800074Y-90962895D02*
X101847693Y-91153371D01*
X101847693Y-91153371D02*
X101847693Y-91391466D01*
X101847693Y-91391466D02*
X101800074Y-91581942D01*
X101800074Y-91581942D02*
X101752455Y-91677180D01*
X101752455Y-91677180D02*
X101704836Y-91724800D01*
X101704836Y-91724800D02*
X101609598Y-91772419D01*
X101609598Y-91772419D02*
X101514360Y-91772419D01*
X101514360Y-91772419D02*
X101419122Y-91724800D01*
X101419122Y-91724800D02*
X101371503Y-91677180D01*
X101371503Y-91677180D02*
X101323884Y-91581942D01*
X101323884Y-91581942D02*
X101276265Y-91391466D01*
X101276265Y-91391466D02*
X101276265Y-91153371D01*
X101276265Y-91153371D02*
X101323884Y-90962895D01*
X101323884Y-90962895D02*
X101371503Y-90867657D01*
X101371503Y-90867657D02*
X101419122Y-90820038D01*
X101419122Y-90820038D02*
X101514360Y-90772419D01*
X102466741Y-90772419D02*
X102561979Y-90772419D01*
X102561979Y-90772419D02*
X102657217Y-90820038D01*
X102657217Y-90820038D02*
X102704836Y-90867657D01*
X102704836Y-90867657D02*
X102752455Y-90962895D01*
X102752455Y-90962895D02*
X102800074Y-91153371D01*
X102800074Y-91153371D02*
X102800074Y-91391466D01*
X102800074Y-91391466D02*
X102752455Y-91581942D01*
X102752455Y-91581942D02*
X102704836Y-91677180D01*
X102704836Y-91677180D02*
X102657217Y-91724800D01*
X102657217Y-91724800D02*
X102561979Y-91772419D01*
X102561979Y-91772419D02*
X102466741Y-91772419D01*
X102466741Y-91772419D02*
X102371503Y-91724800D01*
X102371503Y-91724800D02*
X102323884Y-91677180D01*
X102323884Y-91677180D02*
X102276265Y-91581942D01*
X102276265Y-91581942D02*
X102228646Y-91391466D01*
X102228646Y-91391466D02*
X102228646Y-91153371D01*
X102228646Y-91153371D02*
X102276265Y-90962895D01*
X102276265Y-90962895D02*
X102323884Y-90867657D01*
X102323884Y-90867657D02*
X102371503Y-90820038D01*
X102371503Y-90820038D02*
X102466741Y-90772419D01*
X110181027Y-111272419D02*
X110514360Y-112272419D01*
X110514360Y-112272419D02*
X110847693Y-111272419D01*
X111609598Y-112224800D02*
X111514360Y-112272419D01*
X111514360Y-112272419D02*
X111323884Y-112272419D01*
X111323884Y-112272419D02*
X111228646Y-112224800D01*
X111228646Y-112224800D02*
X111181027Y-112177180D01*
X111181027Y-112177180D02*
X111133408Y-112081942D01*
X111133408Y-112081942D02*
X111133408Y-111796228D01*
X111133408Y-111796228D02*
X111181027Y-111700990D01*
X111181027Y-111700990D02*
X111228646Y-111653371D01*
X111228646Y-111653371D02*
X111323884Y-111605752D01*
X111323884Y-111605752D02*
X111514360Y-111605752D01*
X111514360Y-111605752D02*
X111609598Y-111653371D01*
X112466741Y-112224800D02*
X112371503Y-112272419D01*
X112371503Y-112272419D02*
X112181027Y-112272419D01*
X112181027Y-112272419D02*
X112085789Y-112224800D01*
X112085789Y-112224800D02*
X112038170Y-112177180D01*
X112038170Y-112177180D02*
X111990551Y-112081942D01*
X111990551Y-112081942D02*
X111990551Y-111796228D01*
X111990551Y-111796228D02*
X112038170Y-111700990D01*
X112038170Y-111700990D02*
X112085789Y-111653371D01*
X112085789Y-111653371D02*
X112181027Y-111605752D01*
X112181027Y-111605752D02*
X112371503Y-111605752D01*
X112371503Y-111605752D02*
X112466741Y-111653371D01*
X99847693Y-96320038D02*
X99752455Y-96272419D01*
X99752455Y-96272419D02*
X99609598Y-96272419D01*
X99609598Y-96272419D02*
X99466741Y-96320038D01*
X99466741Y-96320038D02*
X99371503Y-96415276D01*
X99371503Y-96415276D02*
X99323884Y-96510514D01*
X99323884Y-96510514D02*
X99276265Y-96700990D01*
X99276265Y-96700990D02*
X99276265Y-96843847D01*
X99276265Y-96843847D02*
X99323884Y-97034323D01*
X99323884Y-97034323D02*
X99371503Y-97129561D01*
X99371503Y-97129561D02*
X99466741Y-97224800D01*
X99466741Y-97224800D02*
X99609598Y-97272419D01*
X99609598Y-97272419D02*
X99704836Y-97272419D01*
X99704836Y-97272419D02*
X99847693Y-97224800D01*
X99847693Y-97224800D02*
X99895312Y-97177180D01*
X99895312Y-97177180D02*
X99895312Y-96843847D01*
X99895312Y-96843847D02*
X99704836Y-96843847D01*
X100323884Y-97272419D02*
X100323884Y-96272419D01*
X100323884Y-96272419D02*
X100704836Y-96272419D01*
X100704836Y-96272419D02*
X100800074Y-96320038D01*
X100800074Y-96320038D02*
X100847693Y-96367657D01*
X100847693Y-96367657D02*
X100895312Y-96462895D01*
X100895312Y-96462895D02*
X100895312Y-96605752D01*
X100895312Y-96605752D02*
X100847693Y-96700990D01*
X100847693Y-96700990D02*
X100800074Y-96748609D01*
X100800074Y-96748609D02*
X100704836Y-96796228D01*
X100704836Y-96796228D02*
X100323884Y-96796228D01*
X101847693Y-97272419D02*
X101276265Y-97272419D01*
X101561979Y-97272419D02*
X101561979Y-96272419D01*
X101561979Y-96272419D02*
X101466741Y-96415276D01*
X101466741Y-96415276D02*
X101371503Y-96510514D01*
X101371503Y-96510514D02*
X101276265Y-96558133D01*
X102228646Y-96367657D02*
X102276265Y-96320038D01*
X102276265Y-96320038D02*
X102371503Y-96272419D01*
X102371503Y-96272419D02*
X102609598Y-96272419D01*
X102609598Y-96272419D02*
X102704836Y-96320038D01*
X102704836Y-96320038D02*
X102752455Y-96367657D01*
X102752455Y-96367657D02*
X102800074Y-96462895D01*
X102800074Y-96462895D02*
X102800074Y-96558133D01*
X102800074Y-96558133D02*
X102752455Y-96700990D01*
X102752455Y-96700990D02*
X102181027Y-97272419D01*
X102181027Y-97272419D02*
X102800074Y-97272419D01*
X107323884Y-114772419D02*
X107323884Y-113772419D01*
X107752455Y-113867657D02*
X107800074Y-113820038D01*
X107800074Y-113820038D02*
X107895312Y-113772419D01*
X107895312Y-113772419D02*
X108133407Y-113772419D01*
X108133407Y-113772419D02*
X108228645Y-113820038D01*
X108228645Y-113820038D02*
X108276264Y-113867657D01*
X108276264Y-113867657D02*
X108323883Y-113962895D01*
X108323883Y-113962895D02*
X108323883Y-114058133D01*
X108323883Y-114058133D02*
X108276264Y-114200990D01*
X108276264Y-114200990D02*
X107704836Y-114772419D01*
X107704836Y-114772419D02*
X108323883Y-114772419D01*
X109323883Y-114677180D02*
X109276264Y-114724800D01*
X109276264Y-114724800D02*
X109133407Y-114772419D01*
X109133407Y-114772419D02*
X109038169Y-114772419D01*
X109038169Y-114772419D02*
X108895312Y-114724800D01*
X108895312Y-114724800D02*
X108800074Y-114629561D01*
X108800074Y-114629561D02*
X108752455Y-114534323D01*
X108752455Y-114534323D02*
X108704836Y-114343847D01*
X108704836Y-114343847D02*
X108704836Y-114200990D01*
X108704836Y-114200990D02*
X108752455Y-114010514D01*
X108752455Y-114010514D02*
X108800074Y-113915276D01*
X108800074Y-113915276D02*
X108895312Y-113820038D01*
X108895312Y-113820038D02*
X109038169Y-113772419D01*
X109038169Y-113772419D02*
X109133407Y-113772419D01*
X109133407Y-113772419D02*
X109276264Y-113820038D01*
X109276264Y-113820038D02*
X109323883Y-113867657D01*
X109514360Y-114867657D02*
X110276264Y-114867657D01*
X110466741Y-114724800D02*
X110609598Y-114772419D01*
X110609598Y-114772419D02*
X110847693Y-114772419D01*
X110847693Y-114772419D02*
X110942931Y-114724800D01*
X110942931Y-114724800D02*
X110990550Y-114677180D01*
X110990550Y-114677180D02*
X111038169Y-114581942D01*
X111038169Y-114581942D02*
X111038169Y-114486704D01*
X111038169Y-114486704D02*
X110990550Y-114391466D01*
X110990550Y-114391466D02*
X110942931Y-114343847D01*
X110942931Y-114343847D02*
X110847693Y-114296228D01*
X110847693Y-114296228D02*
X110657217Y-114248609D01*
X110657217Y-114248609D02*
X110561979Y-114200990D01*
X110561979Y-114200990D02*
X110514360Y-114153371D01*
X110514360Y-114153371D02*
X110466741Y-114058133D01*
X110466741Y-114058133D02*
X110466741Y-113962895D01*
X110466741Y-113962895D02*
X110514360Y-113867657D01*
X110514360Y-113867657D02*
X110561979Y-113820038D01*
X110561979Y-113820038D02*
X110657217Y-113772419D01*
X110657217Y-113772419D02*
X110895312Y-113772419D01*
X110895312Y-113772419D02*
X111038169Y-113820038D01*
X112038169Y-114677180D02*
X111990550Y-114724800D01*
X111990550Y-114724800D02*
X111847693Y-114772419D01*
X111847693Y-114772419D02*
X111752455Y-114772419D01*
X111752455Y-114772419D02*
X111609598Y-114724800D01*
X111609598Y-114724800D02*
X111514360Y-114629561D01*
X111514360Y-114629561D02*
X111466741Y-114534323D01*
X111466741Y-114534323D02*
X111419122Y-114343847D01*
X111419122Y-114343847D02*
X111419122Y-114200990D01*
X111419122Y-114200990D02*
X111466741Y-114010514D01*
X111466741Y-114010514D02*
X111514360Y-113915276D01*
X111514360Y-113915276D02*
X111609598Y-113820038D01*
X111609598Y-113820038D02*
X111752455Y-113772419D01*
X111752455Y-113772419D02*
X111847693Y-113772419D01*
X111847693Y-113772419D02*
X111990550Y-113820038D01*
X111990550Y-113820038D02*
X112038169Y-113867657D01*
X112942931Y-114772419D02*
X112466741Y-114772419D01*
X112466741Y-114772419D02*
X112466741Y-113772419D01*
X110181027Y-91272419D02*
X110514360Y-92272419D01*
X110514360Y-92272419D02*
X110847693Y-91272419D01*
X111609598Y-92224800D02*
X111514360Y-92272419D01*
X111514360Y-92272419D02*
X111323884Y-92272419D01*
X111323884Y-92272419D02*
X111228646Y-92224800D01*
X111228646Y-92224800D02*
X111181027Y-92177180D01*
X111181027Y-92177180D02*
X111133408Y-92081942D01*
X111133408Y-92081942D02*
X111133408Y-91796228D01*
X111133408Y-91796228D02*
X111181027Y-91700990D01*
X111181027Y-91700990D02*
X111228646Y-91653371D01*
X111228646Y-91653371D02*
X111323884Y-91605752D01*
X111323884Y-91605752D02*
X111514360Y-91605752D01*
X111514360Y-91605752D02*
X111609598Y-91653371D01*
X112466741Y-92224800D02*
X112371503Y-92272419D01*
X112371503Y-92272419D02*
X112181027Y-92272419D01*
X112181027Y-92272419D02*
X112085789Y-92224800D01*
X112085789Y-92224800D02*
X112038170Y-92177180D01*
X112038170Y-92177180D02*
X111990551Y-92081942D01*
X111990551Y-92081942D02*
X111990551Y-91796228D01*
X111990551Y-91796228D02*
X112038170Y-91700990D01*
X112038170Y-91700990D02*
X112085789Y-91653371D01*
X112085789Y-91653371D02*
X112181027Y-91605752D01*
X112181027Y-91605752D02*
X112371503Y-91605752D01*
X112371503Y-91605752D02*
X112466741Y-91653371D01*
X99181027Y-108772419D02*
X99752455Y-108772419D01*
X99466741Y-109772419D02*
X99466741Y-108772419D01*
X99990551Y-109772419D02*
X100514360Y-109105752D01*
X99990551Y-109105752D02*
X100514360Y-109772419D01*
X100657218Y-109867657D02*
X101419122Y-109867657D01*
X101847694Y-108772419D02*
X101942932Y-108772419D01*
X101942932Y-108772419D02*
X102038170Y-108820038D01*
X102038170Y-108820038D02*
X102085789Y-108867657D01*
X102085789Y-108867657D02*
X102133408Y-108962895D01*
X102133408Y-108962895D02*
X102181027Y-109153371D01*
X102181027Y-109153371D02*
X102181027Y-109391466D01*
X102181027Y-109391466D02*
X102133408Y-109581942D01*
X102133408Y-109581942D02*
X102085789Y-109677180D01*
X102085789Y-109677180D02*
X102038170Y-109724800D01*
X102038170Y-109724800D02*
X101942932Y-109772419D01*
X101942932Y-109772419D02*
X101847694Y-109772419D01*
X101847694Y-109772419D02*
X101752456Y-109724800D01*
X101752456Y-109724800D02*
X101704837Y-109677180D01*
X101704837Y-109677180D02*
X101657218Y-109581942D01*
X101657218Y-109581942D02*
X101609599Y-109391466D01*
X101609599Y-109391466D02*
X101609599Y-109153371D01*
X101609599Y-109153371D02*
X101657218Y-108962895D01*
X101657218Y-108962895D02*
X101704837Y-108867657D01*
X101704837Y-108867657D02*
X101752456Y-108820038D01*
X101752456Y-108820038D02*
X101847694Y-108772419D01*
X109847693Y-106320038D02*
X109752455Y-106272419D01*
X109752455Y-106272419D02*
X109609598Y-106272419D01*
X109609598Y-106272419D02*
X109466741Y-106320038D01*
X109466741Y-106320038D02*
X109371503Y-106415276D01*
X109371503Y-106415276D02*
X109323884Y-106510514D01*
X109323884Y-106510514D02*
X109276265Y-106700990D01*
X109276265Y-106700990D02*
X109276265Y-106843847D01*
X109276265Y-106843847D02*
X109323884Y-107034323D01*
X109323884Y-107034323D02*
X109371503Y-107129561D01*
X109371503Y-107129561D02*
X109466741Y-107224800D01*
X109466741Y-107224800D02*
X109609598Y-107272419D01*
X109609598Y-107272419D02*
X109704836Y-107272419D01*
X109704836Y-107272419D02*
X109847693Y-107224800D01*
X109847693Y-107224800D02*
X109895312Y-107177180D01*
X109895312Y-107177180D02*
X109895312Y-106843847D01*
X109895312Y-106843847D02*
X109704836Y-106843847D01*
X110323884Y-107272419D02*
X110323884Y-106272419D01*
X110323884Y-106272419D02*
X110704836Y-106272419D01*
X110704836Y-106272419D02*
X110800074Y-106320038D01*
X110800074Y-106320038D02*
X110847693Y-106367657D01*
X110847693Y-106367657D02*
X110895312Y-106462895D01*
X110895312Y-106462895D02*
X110895312Y-106605752D01*
X110895312Y-106605752D02*
X110847693Y-106700990D01*
X110847693Y-106700990D02*
X110800074Y-106748609D01*
X110800074Y-106748609D02*
X110704836Y-106796228D01*
X110704836Y-106796228D02*
X110323884Y-106796228D01*
X111847693Y-107272419D02*
X111276265Y-107272419D01*
X111561979Y-107272419D02*
X111561979Y-106272419D01*
X111561979Y-106272419D02*
X111466741Y-106415276D01*
X111466741Y-106415276D02*
X111371503Y-106510514D01*
X111371503Y-106510514D02*
X111276265Y-106558133D01*
X112800074Y-107272419D02*
X112228646Y-107272419D01*
X112514360Y-107272419D02*
X112514360Y-106272419D01*
X112514360Y-106272419D02*
X112419122Y-106415276D01*
X112419122Y-106415276D02*
X112323884Y-106510514D01*
X112323884Y-106510514D02*
X112228646Y-106558133D01*
X109323884Y-97272419D02*
X109323884Y-96272419D01*
X109323884Y-96272419D02*
X109657217Y-96986704D01*
X109657217Y-96986704D02*
X109990550Y-96272419D01*
X109990550Y-96272419D02*
X109990550Y-97272419D01*
X110657217Y-96272419D02*
X110847693Y-96272419D01*
X110847693Y-96272419D02*
X110942931Y-96320038D01*
X110942931Y-96320038D02*
X111038169Y-96415276D01*
X111038169Y-96415276D02*
X111085788Y-96605752D01*
X111085788Y-96605752D02*
X111085788Y-96939085D01*
X111085788Y-96939085D02*
X111038169Y-97129561D01*
X111038169Y-97129561D02*
X110942931Y-97224800D01*
X110942931Y-97224800D02*
X110847693Y-97272419D01*
X110847693Y-97272419D02*
X110657217Y-97272419D01*
X110657217Y-97272419D02*
X110561979Y-97224800D01*
X110561979Y-97224800D02*
X110466741Y-97129561D01*
X110466741Y-97129561D02*
X110419122Y-96939085D01*
X110419122Y-96939085D02*
X110419122Y-96605752D01*
X110419122Y-96605752D02*
X110466741Y-96415276D01*
X110466741Y-96415276D02*
X110561979Y-96320038D01*
X110561979Y-96320038D02*
X110657217Y-96272419D01*
X111466741Y-97224800D02*
X111609598Y-97272419D01*
X111609598Y-97272419D02*
X111847693Y-97272419D01*
X111847693Y-97272419D02*
X111942931Y-97224800D01*
X111942931Y-97224800D02*
X111990550Y-97177180D01*
X111990550Y-97177180D02*
X112038169Y-97081942D01*
X112038169Y-97081942D02*
X112038169Y-96986704D01*
X112038169Y-96986704D02*
X111990550Y-96891466D01*
X111990550Y-96891466D02*
X111942931Y-96843847D01*
X111942931Y-96843847D02*
X111847693Y-96796228D01*
X111847693Y-96796228D02*
X111657217Y-96748609D01*
X111657217Y-96748609D02*
X111561979Y-96700990D01*
X111561979Y-96700990D02*
X111514360Y-96653371D01*
X111514360Y-96653371D02*
X111466741Y-96558133D01*
X111466741Y-96558133D02*
X111466741Y-96462895D01*
X111466741Y-96462895D02*
X111514360Y-96367657D01*
X111514360Y-96367657D02*
X111561979Y-96320038D01*
X111561979Y-96320038D02*
X111657217Y-96272419D01*
X111657217Y-96272419D02*
X111895312Y-96272419D01*
X111895312Y-96272419D02*
X112038169Y-96320038D01*
X112466741Y-97272419D02*
X112466741Y-96272419D01*
X99895312Y-107272419D02*
X99561979Y-106796228D01*
X99323884Y-107272419D02*
X99323884Y-106272419D01*
X99323884Y-106272419D02*
X99704836Y-106272419D01*
X99704836Y-106272419D02*
X99800074Y-106320038D01*
X99800074Y-106320038D02*
X99847693Y-106367657D01*
X99847693Y-106367657D02*
X99895312Y-106462895D01*
X99895312Y-106462895D02*
X99895312Y-106605752D01*
X99895312Y-106605752D02*
X99847693Y-106700990D01*
X99847693Y-106700990D02*
X99800074Y-106748609D01*
X99800074Y-106748609D02*
X99704836Y-106796228D01*
X99704836Y-106796228D02*
X99323884Y-106796228D01*
X100228646Y-107272419D02*
X100752455Y-106605752D01*
X100228646Y-106605752D02*
X100752455Y-107272419D01*
X100895313Y-107367657D02*
X101657217Y-107367657D01*
X102085789Y-106272419D02*
X102181027Y-106272419D01*
X102181027Y-106272419D02*
X102276265Y-106320038D01*
X102276265Y-106320038D02*
X102323884Y-106367657D01*
X102323884Y-106367657D02*
X102371503Y-106462895D01*
X102371503Y-106462895D02*
X102419122Y-106653371D01*
X102419122Y-106653371D02*
X102419122Y-106891466D01*
X102419122Y-106891466D02*
X102371503Y-107081942D01*
X102371503Y-107081942D02*
X102323884Y-107177180D01*
X102323884Y-107177180D02*
X102276265Y-107224800D01*
X102276265Y-107224800D02*
X102181027Y-107272419D01*
X102181027Y-107272419D02*
X102085789Y-107272419D01*
X102085789Y-107272419D02*
X101990551Y-107224800D01*
X101990551Y-107224800D02*
X101942932Y-107177180D01*
X101942932Y-107177180D02*
X101895313Y-107081942D01*
X101895313Y-107081942D02*
X101847694Y-106891466D01*
X101847694Y-106891466D02*
X101847694Y-106653371D01*
X101847694Y-106653371D02*
X101895313Y-106462895D01*
X101895313Y-106462895D02*
X101942932Y-106367657D01*
X101942932Y-106367657D02*
X101990551Y-106320038D01*
X101990551Y-106320038D02*
X102085789Y-106272419D01*
X99847693Y-121320038D02*
X99752455Y-121272419D01*
X99752455Y-121272419D02*
X99609598Y-121272419D01*
X99609598Y-121272419D02*
X99466741Y-121320038D01*
X99466741Y-121320038D02*
X99371503Y-121415276D01*
X99371503Y-121415276D02*
X99323884Y-121510514D01*
X99323884Y-121510514D02*
X99276265Y-121700990D01*
X99276265Y-121700990D02*
X99276265Y-121843847D01*
X99276265Y-121843847D02*
X99323884Y-122034323D01*
X99323884Y-122034323D02*
X99371503Y-122129561D01*
X99371503Y-122129561D02*
X99466741Y-122224800D01*
X99466741Y-122224800D02*
X99609598Y-122272419D01*
X99609598Y-122272419D02*
X99704836Y-122272419D01*
X99704836Y-122272419D02*
X99847693Y-122224800D01*
X99847693Y-122224800D02*
X99895312Y-122177180D01*
X99895312Y-122177180D02*
X99895312Y-121843847D01*
X99895312Y-121843847D02*
X99704836Y-121843847D01*
X100323884Y-122272419D02*
X100323884Y-121272419D01*
X100323884Y-121272419D02*
X100895312Y-122272419D01*
X100895312Y-122272419D02*
X100895312Y-121272419D01*
X101371503Y-122272419D02*
X101371503Y-121272419D01*
X101371503Y-121272419D02*
X101609598Y-121272419D01*
X101609598Y-121272419D02*
X101752455Y-121320038D01*
X101752455Y-121320038D02*
X101847693Y-121415276D01*
X101847693Y-121415276D02*
X101895312Y-121510514D01*
X101895312Y-121510514D02*
X101942931Y-121700990D01*
X101942931Y-121700990D02*
X101942931Y-121843847D01*
X101942931Y-121843847D02*
X101895312Y-122034323D01*
X101895312Y-122034323D02*
X101847693Y-122129561D01*
X101847693Y-122129561D02*
X101752455Y-122224800D01*
X101752455Y-122224800D02*
X101609598Y-122272419D01*
X101609598Y-122272419D02*
X101371503Y-122272419D01*
X99847693Y-88820038D02*
X99752455Y-88772419D01*
X99752455Y-88772419D02*
X99609598Y-88772419D01*
X99609598Y-88772419D02*
X99466741Y-88820038D01*
X99466741Y-88820038D02*
X99371503Y-88915276D01*
X99371503Y-88915276D02*
X99323884Y-89010514D01*
X99323884Y-89010514D02*
X99276265Y-89200990D01*
X99276265Y-89200990D02*
X99276265Y-89343847D01*
X99276265Y-89343847D02*
X99323884Y-89534323D01*
X99323884Y-89534323D02*
X99371503Y-89629561D01*
X99371503Y-89629561D02*
X99466741Y-89724800D01*
X99466741Y-89724800D02*
X99609598Y-89772419D01*
X99609598Y-89772419D02*
X99704836Y-89772419D01*
X99704836Y-89772419D02*
X99847693Y-89724800D01*
X99847693Y-89724800D02*
X99895312Y-89677180D01*
X99895312Y-89677180D02*
X99895312Y-89343847D01*
X99895312Y-89343847D02*
X99704836Y-89343847D01*
X100323884Y-89772419D02*
X100323884Y-88772419D01*
X100323884Y-88772419D02*
X100895312Y-89772419D01*
X100895312Y-89772419D02*
X100895312Y-88772419D01*
X101371503Y-89772419D02*
X101371503Y-88772419D01*
X101371503Y-88772419D02*
X101609598Y-88772419D01*
X101609598Y-88772419D02*
X101752455Y-88820038D01*
X101752455Y-88820038D02*
X101847693Y-88915276D01*
X101847693Y-88915276D02*
X101895312Y-89010514D01*
X101895312Y-89010514D02*
X101942931Y-89200990D01*
X101942931Y-89200990D02*
X101942931Y-89343847D01*
X101942931Y-89343847D02*
X101895312Y-89534323D01*
X101895312Y-89534323D02*
X101847693Y-89629561D01*
X101847693Y-89629561D02*
X101752455Y-89724800D01*
X101752455Y-89724800D02*
X101609598Y-89772419D01*
X101609598Y-89772419D02*
X101371503Y-89772419D01*
X99847693Y-111320038D02*
X99752455Y-111272419D01*
X99752455Y-111272419D02*
X99609598Y-111272419D01*
X99609598Y-111272419D02*
X99466741Y-111320038D01*
X99466741Y-111320038D02*
X99371503Y-111415276D01*
X99371503Y-111415276D02*
X99323884Y-111510514D01*
X99323884Y-111510514D02*
X99276265Y-111700990D01*
X99276265Y-111700990D02*
X99276265Y-111843847D01*
X99276265Y-111843847D02*
X99323884Y-112034323D01*
X99323884Y-112034323D02*
X99371503Y-112129561D01*
X99371503Y-112129561D02*
X99466741Y-112224800D01*
X99466741Y-112224800D02*
X99609598Y-112272419D01*
X99609598Y-112272419D02*
X99704836Y-112272419D01*
X99704836Y-112272419D02*
X99847693Y-112224800D01*
X99847693Y-112224800D02*
X99895312Y-112177180D01*
X99895312Y-112177180D02*
X99895312Y-111843847D01*
X99895312Y-111843847D02*
X99704836Y-111843847D01*
X100323884Y-112272419D02*
X100323884Y-111272419D01*
X100323884Y-111272419D02*
X100704836Y-111272419D01*
X100704836Y-111272419D02*
X100800074Y-111320038D01*
X100800074Y-111320038D02*
X100847693Y-111367657D01*
X100847693Y-111367657D02*
X100895312Y-111462895D01*
X100895312Y-111462895D02*
X100895312Y-111605752D01*
X100895312Y-111605752D02*
X100847693Y-111700990D01*
X100847693Y-111700990D02*
X100800074Y-111748609D01*
X100800074Y-111748609D02*
X100704836Y-111796228D01*
X100704836Y-111796228D02*
X100323884Y-111796228D01*
X101847693Y-112272419D02*
X101276265Y-112272419D01*
X101561979Y-112272419D02*
X101561979Y-111272419D01*
X101561979Y-111272419D02*
X101466741Y-111415276D01*
X101466741Y-111415276D02*
X101371503Y-111510514D01*
X101371503Y-111510514D02*
X101276265Y-111558133D01*
X102181027Y-111272419D02*
X102800074Y-111272419D01*
X102800074Y-111272419D02*
X102466741Y-111653371D01*
X102466741Y-111653371D02*
X102609598Y-111653371D01*
X102609598Y-111653371D02*
X102704836Y-111700990D01*
X102704836Y-111700990D02*
X102752455Y-111748609D01*
X102752455Y-111748609D02*
X102800074Y-111843847D01*
X102800074Y-111843847D02*
X102800074Y-112081942D01*
X102800074Y-112081942D02*
X102752455Y-112177180D01*
X102752455Y-112177180D02*
X102704836Y-112224800D01*
X102704836Y-112224800D02*
X102609598Y-112272419D01*
X102609598Y-112272419D02*
X102323884Y-112272419D01*
X102323884Y-112272419D02*
X102228646Y-112224800D01*
X102228646Y-112224800D02*
X102181027Y-112177180D01*
X107323884Y-117772419D02*
X107323884Y-116772419D01*
X107752455Y-116867657D02*
X107800074Y-116820038D01*
X107800074Y-116820038D02*
X107895312Y-116772419D01*
X107895312Y-116772419D02*
X108133407Y-116772419D01*
X108133407Y-116772419D02*
X108228645Y-116820038D01*
X108228645Y-116820038D02*
X108276264Y-116867657D01*
X108276264Y-116867657D02*
X108323883Y-116962895D01*
X108323883Y-116962895D02*
X108323883Y-117058133D01*
X108323883Y-117058133D02*
X108276264Y-117200990D01*
X108276264Y-117200990D02*
X107704836Y-117772419D01*
X107704836Y-117772419D02*
X108323883Y-117772419D01*
X109181026Y-117724800D02*
X109085788Y-117772419D01*
X109085788Y-117772419D02*
X108895312Y-117772419D01*
X108895312Y-117772419D02*
X108800074Y-117724800D01*
X108800074Y-117724800D02*
X108752455Y-117677180D01*
X108752455Y-117677180D02*
X108704836Y-117581942D01*
X108704836Y-117581942D02*
X108704836Y-117296228D01*
X108704836Y-117296228D02*
X108752455Y-117200990D01*
X108752455Y-117200990D02*
X108800074Y-117153371D01*
X108800074Y-117153371D02*
X108895312Y-117105752D01*
X108895312Y-117105752D02*
X109085788Y-117105752D01*
X109085788Y-117105752D02*
X109181026Y-117153371D01*
X109371503Y-117867657D02*
X110133407Y-117867657D01*
X110323884Y-117724800D02*
X110466741Y-117772419D01*
X110466741Y-117772419D02*
X110704836Y-117772419D01*
X110704836Y-117772419D02*
X110800074Y-117724800D01*
X110800074Y-117724800D02*
X110847693Y-117677180D01*
X110847693Y-117677180D02*
X110895312Y-117581942D01*
X110895312Y-117581942D02*
X110895312Y-117486704D01*
X110895312Y-117486704D02*
X110847693Y-117391466D01*
X110847693Y-117391466D02*
X110800074Y-117343847D01*
X110800074Y-117343847D02*
X110704836Y-117296228D01*
X110704836Y-117296228D02*
X110514360Y-117248609D01*
X110514360Y-117248609D02*
X110419122Y-117200990D01*
X110419122Y-117200990D02*
X110371503Y-117153371D01*
X110371503Y-117153371D02*
X110323884Y-117058133D01*
X110323884Y-117058133D02*
X110323884Y-116962895D01*
X110323884Y-116962895D02*
X110371503Y-116867657D01*
X110371503Y-116867657D02*
X110419122Y-116820038D01*
X110419122Y-116820038D02*
X110514360Y-116772419D01*
X110514360Y-116772419D02*
X110752455Y-116772419D01*
X110752455Y-116772419D02*
X110895312Y-116820038D01*
X111323884Y-117772419D02*
X111323884Y-116772419D01*
X111323884Y-116772419D02*
X111561979Y-116772419D01*
X111561979Y-116772419D02*
X111704836Y-116820038D01*
X111704836Y-116820038D02*
X111800074Y-116915276D01*
X111800074Y-116915276D02*
X111847693Y-117010514D01*
X111847693Y-117010514D02*
X111895312Y-117200990D01*
X111895312Y-117200990D02*
X111895312Y-117343847D01*
X111895312Y-117343847D02*
X111847693Y-117534323D01*
X111847693Y-117534323D02*
X111800074Y-117629561D01*
X111800074Y-117629561D02*
X111704836Y-117724800D01*
X111704836Y-117724800D02*
X111561979Y-117772419D01*
X111561979Y-117772419D02*
X111323884Y-117772419D01*
X112276265Y-117486704D02*
X112752455Y-117486704D01*
X112181027Y-117772419D02*
X112514360Y-116772419D01*
X112514360Y-116772419D02*
X112847693Y-117772419D01*
X99847693Y-103820038D02*
X99752455Y-103772419D01*
X99752455Y-103772419D02*
X99609598Y-103772419D01*
X99609598Y-103772419D02*
X99466741Y-103820038D01*
X99466741Y-103820038D02*
X99371503Y-103915276D01*
X99371503Y-103915276D02*
X99323884Y-104010514D01*
X99323884Y-104010514D02*
X99276265Y-104200990D01*
X99276265Y-104200990D02*
X99276265Y-104343847D01*
X99276265Y-104343847D02*
X99323884Y-104534323D01*
X99323884Y-104534323D02*
X99371503Y-104629561D01*
X99371503Y-104629561D02*
X99466741Y-104724800D01*
X99466741Y-104724800D02*
X99609598Y-104772419D01*
X99609598Y-104772419D02*
X99704836Y-104772419D01*
X99704836Y-104772419D02*
X99847693Y-104724800D01*
X99847693Y-104724800D02*
X99895312Y-104677180D01*
X99895312Y-104677180D02*
X99895312Y-104343847D01*
X99895312Y-104343847D02*
X99704836Y-104343847D01*
X100323884Y-104772419D02*
X100323884Y-103772419D01*
X100323884Y-103772419D02*
X100895312Y-104772419D01*
X100895312Y-104772419D02*
X100895312Y-103772419D01*
X101371503Y-104772419D02*
X101371503Y-103772419D01*
X101371503Y-103772419D02*
X101609598Y-103772419D01*
X101609598Y-103772419D02*
X101752455Y-103820038D01*
X101752455Y-103820038D02*
X101847693Y-103915276D01*
X101847693Y-103915276D02*
X101895312Y-104010514D01*
X101895312Y-104010514D02*
X101942931Y-104200990D01*
X101942931Y-104200990D02*
X101942931Y-104343847D01*
X101942931Y-104343847D02*
X101895312Y-104534323D01*
X101895312Y-104534323D02*
X101847693Y-104629561D01*
X101847693Y-104629561D02*
X101752455Y-104724800D01*
X101752455Y-104724800D02*
X101609598Y-104772419D01*
X101609598Y-104772419D02*
X101371503Y-104772419D01*
X109847693Y-119320038D02*
X109752455Y-119272419D01*
X109752455Y-119272419D02*
X109609598Y-119272419D01*
X109609598Y-119272419D02*
X109466741Y-119320038D01*
X109466741Y-119320038D02*
X109371503Y-119415276D01*
X109371503Y-119415276D02*
X109323884Y-119510514D01*
X109323884Y-119510514D02*
X109276265Y-119700990D01*
X109276265Y-119700990D02*
X109276265Y-119843847D01*
X109276265Y-119843847D02*
X109323884Y-120034323D01*
X109323884Y-120034323D02*
X109371503Y-120129561D01*
X109371503Y-120129561D02*
X109466741Y-120224800D01*
X109466741Y-120224800D02*
X109609598Y-120272419D01*
X109609598Y-120272419D02*
X109704836Y-120272419D01*
X109704836Y-120272419D02*
X109847693Y-120224800D01*
X109847693Y-120224800D02*
X109895312Y-120177180D01*
X109895312Y-120177180D02*
X109895312Y-119843847D01*
X109895312Y-119843847D02*
X109704836Y-119843847D01*
X110323884Y-120272419D02*
X110323884Y-119272419D01*
X110323884Y-119272419D02*
X110704836Y-119272419D01*
X110704836Y-119272419D02*
X110800074Y-119320038D01*
X110800074Y-119320038D02*
X110847693Y-119367657D01*
X110847693Y-119367657D02*
X110895312Y-119462895D01*
X110895312Y-119462895D02*
X110895312Y-119605752D01*
X110895312Y-119605752D02*
X110847693Y-119700990D01*
X110847693Y-119700990D02*
X110800074Y-119748609D01*
X110800074Y-119748609D02*
X110704836Y-119796228D01*
X110704836Y-119796228D02*
X110323884Y-119796228D01*
X111514360Y-119272419D02*
X111609598Y-119272419D01*
X111609598Y-119272419D02*
X111704836Y-119320038D01*
X111704836Y-119320038D02*
X111752455Y-119367657D01*
X111752455Y-119367657D02*
X111800074Y-119462895D01*
X111800074Y-119462895D02*
X111847693Y-119653371D01*
X111847693Y-119653371D02*
X111847693Y-119891466D01*
X111847693Y-119891466D02*
X111800074Y-120081942D01*
X111800074Y-120081942D02*
X111752455Y-120177180D01*
X111752455Y-120177180D02*
X111704836Y-120224800D01*
X111704836Y-120224800D02*
X111609598Y-120272419D01*
X111609598Y-120272419D02*
X111514360Y-120272419D01*
X111514360Y-120272419D02*
X111419122Y-120224800D01*
X111419122Y-120224800D02*
X111371503Y-120177180D01*
X111371503Y-120177180D02*
X111323884Y-120081942D01*
X111323884Y-120081942D02*
X111276265Y-119891466D01*
X111276265Y-119891466D02*
X111276265Y-119653371D01*
X111276265Y-119653371D02*
X111323884Y-119462895D01*
X111323884Y-119462895D02*
X111371503Y-119367657D01*
X111371503Y-119367657D02*
X111419122Y-119320038D01*
X111419122Y-119320038D02*
X111514360Y-119272419D01*
X112419122Y-119700990D02*
X112323884Y-119653371D01*
X112323884Y-119653371D02*
X112276265Y-119605752D01*
X112276265Y-119605752D02*
X112228646Y-119510514D01*
X112228646Y-119510514D02*
X112228646Y-119462895D01*
X112228646Y-119462895D02*
X112276265Y-119367657D01*
X112276265Y-119367657D02*
X112323884Y-119320038D01*
X112323884Y-119320038D02*
X112419122Y-119272419D01*
X112419122Y-119272419D02*
X112609598Y-119272419D01*
X112609598Y-119272419D02*
X112704836Y-119320038D01*
X112704836Y-119320038D02*
X112752455Y-119367657D01*
X112752455Y-119367657D02*
X112800074Y-119462895D01*
X112800074Y-119462895D02*
X112800074Y-119510514D01*
X112800074Y-119510514D02*
X112752455Y-119605752D01*
X112752455Y-119605752D02*
X112704836Y-119653371D01*
X112704836Y-119653371D02*
X112609598Y-119700990D01*
X112609598Y-119700990D02*
X112419122Y-119700990D01*
X112419122Y-119700990D02*
X112323884Y-119748609D01*
X112323884Y-119748609D02*
X112276265Y-119796228D01*
X112276265Y-119796228D02*
X112228646Y-119891466D01*
X112228646Y-119891466D02*
X112228646Y-120081942D01*
X112228646Y-120081942D02*
X112276265Y-120177180D01*
X112276265Y-120177180D02*
X112323884Y-120224800D01*
X112323884Y-120224800D02*
X112419122Y-120272419D01*
X112419122Y-120272419D02*
X112609598Y-120272419D01*
X112609598Y-120272419D02*
X112704836Y-120224800D01*
X112704836Y-120224800D02*
X112752455Y-120177180D01*
X112752455Y-120177180D02*
X112800074Y-120081942D01*
X112800074Y-120081942D02*
X112800074Y-119891466D01*
X112800074Y-119891466D02*
X112752455Y-119796228D01*
X112752455Y-119796228D02*
X112704836Y-119748609D01*
X112704836Y-119748609D02*
X112609598Y-119700990D01*
X110847693Y-88820038D02*
X110752455Y-88772419D01*
X110752455Y-88772419D02*
X110609598Y-88772419D01*
X110609598Y-88772419D02*
X110466741Y-88820038D01*
X110466741Y-88820038D02*
X110371503Y-88915276D01*
X110371503Y-88915276D02*
X110323884Y-89010514D01*
X110323884Y-89010514D02*
X110276265Y-89200990D01*
X110276265Y-89200990D02*
X110276265Y-89343847D01*
X110276265Y-89343847D02*
X110323884Y-89534323D01*
X110323884Y-89534323D02*
X110371503Y-89629561D01*
X110371503Y-89629561D02*
X110466741Y-89724800D01*
X110466741Y-89724800D02*
X110609598Y-89772419D01*
X110609598Y-89772419D02*
X110704836Y-89772419D01*
X110704836Y-89772419D02*
X110847693Y-89724800D01*
X110847693Y-89724800D02*
X110895312Y-89677180D01*
X110895312Y-89677180D02*
X110895312Y-89343847D01*
X110895312Y-89343847D02*
X110704836Y-89343847D01*
X111323884Y-89772419D02*
X111323884Y-88772419D01*
X111323884Y-88772419D02*
X111895312Y-89772419D01*
X111895312Y-89772419D02*
X111895312Y-88772419D01*
X112371503Y-89772419D02*
X112371503Y-88772419D01*
X112371503Y-88772419D02*
X112609598Y-88772419D01*
X112609598Y-88772419D02*
X112752455Y-88820038D01*
X112752455Y-88820038D02*
X112847693Y-88915276D01*
X112847693Y-88915276D02*
X112895312Y-89010514D01*
X112895312Y-89010514D02*
X112942931Y-89200990D01*
X112942931Y-89200990D02*
X112942931Y-89343847D01*
X112942931Y-89343847D02*
X112895312Y-89534323D01*
X112895312Y-89534323D02*
X112847693Y-89629561D01*
X112847693Y-89629561D02*
X112752455Y-89724800D01*
X112752455Y-89724800D02*
X112609598Y-89772419D01*
X112609598Y-89772419D02*
X112371503Y-89772419D01*
X99847693Y-98820038D02*
X99752455Y-98772419D01*
X99752455Y-98772419D02*
X99609598Y-98772419D01*
X99609598Y-98772419D02*
X99466741Y-98820038D01*
X99466741Y-98820038D02*
X99371503Y-98915276D01*
X99371503Y-98915276D02*
X99323884Y-99010514D01*
X99323884Y-99010514D02*
X99276265Y-99200990D01*
X99276265Y-99200990D02*
X99276265Y-99343847D01*
X99276265Y-99343847D02*
X99323884Y-99534323D01*
X99323884Y-99534323D02*
X99371503Y-99629561D01*
X99371503Y-99629561D02*
X99466741Y-99724800D01*
X99466741Y-99724800D02*
X99609598Y-99772419D01*
X99609598Y-99772419D02*
X99704836Y-99772419D01*
X99704836Y-99772419D02*
X99847693Y-99724800D01*
X99847693Y-99724800D02*
X99895312Y-99677180D01*
X99895312Y-99677180D02*
X99895312Y-99343847D01*
X99895312Y-99343847D02*
X99704836Y-99343847D01*
X100323884Y-99772419D02*
X100323884Y-98772419D01*
X100323884Y-98772419D02*
X100704836Y-98772419D01*
X100704836Y-98772419D02*
X100800074Y-98820038D01*
X100800074Y-98820038D02*
X100847693Y-98867657D01*
X100847693Y-98867657D02*
X100895312Y-98962895D01*
X100895312Y-98962895D02*
X100895312Y-99105752D01*
X100895312Y-99105752D02*
X100847693Y-99200990D01*
X100847693Y-99200990D02*
X100800074Y-99248609D01*
X100800074Y-99248609D02*
X100704836Y-99296228D01*
X100704836Y-99296228D02*
X100323884Y-99296228D01*
X101847693Y-99772419D02*
X101276265Y-99772419D01*
X101561979Y-99772419D02*
X101561979Y-98772419D01*
X101561979Y-98772419D02*
X101466741Y-98915276D01*
X101466741Y-98915276D02*
X101371503Y-99010514D01*
X101371503Y-99010514D02*
X101276265Y-99058133D01*
X102419122Y-99200990D02*
X102323884Y-99153371D01*
X102323884Y-99153371D02*
X102276265Y-99105752D01*
X102276265Y-99105752D02*
X102228646Y-99010514D01*
X102228646Y-99010514D02*
X102228646Y-98962895D01*
X102228646Y-98962895D02*
X102276265Y-98867657D01*
X102276265Y-98867657D02*
X102323884Y-98820038D01*
X102323884Y-98820038D02*
X102419122Y-98772419D01*
X102419122Y-98772419D02*
X102609598Y-98772419D01*
X102609598Y-98772419D02*
X102704836Y-98820038D01*
X102704836Y-98820038D02*
X102752455Y-98867657D01*
X102752455Y-98867657D02*
X102800074Y-98962895D01*
X102800074Y-98962895D02*
X102800074Y-99010514D01*
X102800074Y-99010514D02*
X102752455Y-99105752D01*
X102752455Y-99105752D02*
X102704836Y-99153371D01*
X102704836Y-99153371D02*
X102609598Y-99200990D01*
X102609598Y-99200990D02*
X102419122Y-99200990D01*
X102419122Y-99200990D02*
X102323884Y-99248609D01*
X102323884Y-99248609D02*
X102276265Y-99296228D01*
X102276265Y-99296228D02*
X102228646Y-99391466D01*
X102228646Y-99391466D02*
X102228646Y-99581942D01*
X102228646Y-99581942D02*
X102276265Y-99677180D01*
X102276265Y-99677180D02*
X102323884Y-99724800D01*
X102323884Y-99724800D02*
X102419122Y-99772419D01*
X102419122Y-99772419D02*
X102609598Y-99772419D01*
X102609598Y-99772419D02*
X102704836Y-99724800D01*
X102704836Y-99724800D02*
X102752455Y-99677180D01*
X102752455Y-99677180D02*
X102800074Y-99581942D01*
X102800074Y-99581942D02*
X102800074Y-99391466D01*
X102800074Y-99391466D02*
X102752455Y-99296228D01*
X102752455Y-99296228D02*
X102704836Y-99248609D01*
X102704836Y-99248609D02*
X102609598Y-99200990D01*
X110847693Y-126820038D02*
X110752455Y-126772419D01*
X110752455Y-126772419D02*
X110609598Y-126772419D01*
X110609598Y-126772419D02*
X110466741Y-126820038D01*
X110466741Y-126820038D02*
X110371503Y-126915276D01*
X110371503Y-126915276D02*
X110323884Y-127010514D01*
X110323884Y-127010514D02*
X110276265Y-127200990D01*
X110276265Y-127200990D02*
X110276265Y-127343847D01*
X110276265Y-127343847D02*
X110323884Y-127534323D01*
X110323884Y-127534323D02*
X110371503Y-127629561D01*
X110371503Y-127629561D02*
X110466741Y-127724800D01*
X110466741Y-127724800D02*
X110609598Y-127772419D01*
X110609598Y-127772419D02*
X110704836Y-127772419D01*
X110704836Y-127772419D02*
X110847693Y-127724800D01*
X110847693Y-127724800D02*
X110895312Y-127677180D01*
X110895312Y-127677180D02*
X110895312Y-127343847D01*
X110895312Y-127343847D02*
X110704836Y-127343847D01*
X111323884Y-127772419D02*
X111323884Y-126772419D01*
X111323884Y-126772419D02*
X111895312Y-127772419D01*
X111895312Y-127772419D02*
X111895312Y-126772419D01*
X112371503Y-127772419D02*
X112371503Y-126772419D01*
X112371503Y-126772419D02*
X112609598Y-126772419D01*
X112609598Y-126772419D02*
X112752455Y-126820038D01*
X112752455Y-126820038D02*
X112847693Y-126915276D01*
X112847693Y-126915276D02*
X112895312Y-127010514D01*
X112895312Y-127010514D02*
X112942931Y-127200990D01*
X112942931Y-127200990D02*
X112942931Y-127343847D01*
X112942931Y-127343847D02*
X112895312Y-127534323D01*
X112895312Y-127534323D02*
X112847693Y-127629561D01*
X112847693Y-127629561D02*
X112752455Y-127724800D01*
X112752455Y-127724800D02*
X112609598Y-127772419D01*
X112609598Y-127772419D02*
X112371503Y-127772419D01*
X110347693Y-108820038D02*
X110252455Y-108772419D01*
X110252455Y-108772419D02*
X110109598Y-108772419D01*
X110109598Y-108772419D02*
X109966741Y-108820038D01*
X109966741Y-108820038D02*
X109871503Y-108915276D01*
X109871503Y-108915276D02*
X109823884Y-109010514D01*
X109823884Y-109010514D02*
X109776265Y-109200990D01*
X109776265Y-109200990D02*
X109776265Y-109343847D01*
X109776265Y-109343847D02*
X109823884Y-109534323D01*
X109823884Y-109534323D02*
X109871503Y-109629561D01*
X109871503Y-109629561D02*
X109966741Y-109724800D01*
X109966741Y-109724800D02*
X110109598Y-109772419D01*
X110109598Y-109772419D02*
X110204836Y-109772419D01*
X110204836Y-109772419D02*
X110347693Y-109724800D01*
X110347693Y-109724800D02*
X110395312Y-109677180D01*
X110395312Y-109677180D02*
X110395312Y-109343847D01*
X110395312Y-109343847D02*
X110204836Y-109343847D01*
X110823884Y-109772419D02*
X110823884Y-108772419D01*
X110823884Y-108772419D02*
X111395312Y-109772419D01*
X111395312Y-109772419D02*
X111395312Y-108772419D01*
X111871503Y-109772419D02*
X111871503Y-108772419D01*
X111871503Y-108772419D02*
X112109598Y-108772419D01*
X112109598Y-108772419D02*
X112252455Y-108820038D01*
X112252455Y-108820038D02*
X112347693Y-108915276D01*
X112347693Y-108915276D02*
X112395312Y-109010514D01*
X112395312Y-109010514D02*
X112442931Y-109200990D01*
X112442931Y-109200990D02*
X112442931Y-109343847D01*
X112442931Y-109343847D02*
X112395312Y-109534323D01*
X112395312Y-109534323D02*
X112347693Y-109629561D01*
X112347693Y-109629561D02*
X112252455Y-109724800D01*
X112252455Y-109724800D02*
X112109598Y-109772419D01*
X112109598Y-109772419D02*
X111871503Y-109772419D01*
X109847693Y-103820038D02*
X109752455Y-103772419D01*
X109752455Y-103772419D02*
X109609598Y-103772419D01*
X109609598Y-103772419D02*
X109466741Y-103820038D01*
X109466741Y-103820038D02*
X109371503Y-103915276D01*
X109371503Y-103915276D02*
X109323884Y-104010514D01*
X109323884Y-104010514D02*
X109276265Y-104200990D01*
X109276265Y-104200990D02*
X109276265Y-104343847D01*
X109276265Y-104343847D02*
X109323884Y-104534323D01*
X109323884Y-104534323D02*
X109371503Y-104629561D01*
X109371503Y-104629561D02*
X109466741Y-104724800D01*
X109466741Y-104724800D02*
X109609598Y-104772419D01*
X109609598Y-104772419D02*
X109704836Y-104772419D01*
X109704836Y-104772419D02*
X109847693Y-104724800D01*
X109847693Y-104724800D02*
X109895312Y-104677180D01*
X109895312Y-104677180D02*
X109895312Y-104343847D01*
X109895312Y-104343847D02*
X109704836Y-104343847D01*
X110323884Y-104772419D02*
X110323884Y-103772419D01*
X110323884Y-103772419D02*
X110704836Y-103772419D01*
X110704836Y-103772419D02*
X110800074Y-103820038D01*
X110800074Y-103820038D02*
X110847693Y-103867657D01*
X110847693Y-103867657D02*
X110895312Y-103962895D01*
X110895312Y-103962895D02*
X110895312Y-104105752D01*
X110895312Y-104105752D02*
X110847693Y-104200990D01*
X110847693Y-104200990D02*
X110800074Y-104248609D01*
X110800074Y-104248609D02*
X110704836Y-104296228D01*
X110704836Y-104296228D02*
X110323884Y-104296228D01*
X111514360Y-103772419D02*
X111609598Y-103772419D01*
X111609598Y-103772419D02*
X111704836Y-103820038D01*
X111704836Y-103820038D02*
X111752455Y-103867657D01*
X111752455Y-103867657D02*
X111800074Y-103962895D01*
X111800074Y-103962895D02*
X111847693Y-104153371D01*
X111847693Y-104153371D02*
X111847693Y-104391466D01*
X111847693Y-104391466D02*
X111800074Y-104581942D01*
X111800074Y-104581942D02*
X111752455Y-104677180D01*
X111752455Y-104677180D02*
X111704836Y-104724800D01*
X111704836Y-104724800D02*
X111609598Y-104772419D01*
X111609598Y-104772419D02*
X111514360Y-104772419D01*
X111514360Y-104772419D02*
X111419122Y-104724800D01*
X111419122Y-104724800D02*
X111371503Y-104677180D01*
X111371503Y-104677180D02*
X111323884Y-104581942D01*
X111323884Y-104581942D02*
X111276265Y-104391466D01*
X111276265Y-104391466D02*
X111276265Y-104153371D01*
X111276265Y-104153371D02*
X111323884Y-103962895D01*
X111323884Y-103962895D02*
X111371503Y-103867657D01*
X111371503Y-103867657D02*
X111419122Y-103820038D01*
X111419122Y-103820038D02*
X111514360Y-103772419D01*
X112181027Y-103772419D02*
X112847693Y-103772419D01*
X112847693Y-103772419D02*
X112419122Y-104772419D01*
X99800074Y-126772419D02*
X99323884Y-126772419D01*
X99323884Y-126772419D02*
X99276265Y-127248609D01*
X99276265Y-127248609D02*
X99323884Y-127200990D01*
X99323884Y-127200990D02*
X99419122Y-127153371D01*
X99419122Y-127153371D02*
X99657217Y-127153371D01*
X99657217Y-127153371D02*
X99752455Y-127200990D01*
X99752455Y-127200990D02*
X99800074Y-127248609D01*
X99800074Y-127248609D02*
X99847693Y-127343847D01*
X99847693Y-127343847D02*
X99847693Y-127581942D01*
X99847693Y-127581942D02*
X99800074Y-127677180D01*
X99800074Y-127677180D02*
X99752455Y-127724800D01*
X99752455Y-127724800D02*
X99657217Y-127772419D01*
X99657217Y-127772419D02*
X99419122Y-127772419D01*
X99419122Y-127772419D02*
X99323884Y-127724800D01*
X99323884Y-127724800D02*
X99276265Y-127677180D01*
X100133408Y-126772419D02*
X100466741Y-127772419D01*
X100466741Y-127772419D02*
X100800074Y-126772419D01*
X109847693Y-101320038D02*
X109752455Y-101272419D01*
X109752455Y-101272419D02*
X109609598Y-101272419D01*
X109609598Y-101272419D02*
X109466741Y-101320038D01*
X109466741Y-101320038D02*
X109371503Y-101415276D01*
X109371503Y-101415276D02*
X109323884Y-101510514D01*
X109323884Y-101510514D02*
X109276265Y-101700990D01*
X109276265Y-101700990D02*
X109276265Y-101843847D01*
X109276265Y-101843847D02*
X109323884Y-102034323D01*
X109323884Y-102034323D02*
X109371503Y-102129561D01*
X109371503Y-102129561D02*
X109466741Y-102224800D01*
X109466741Y-102224800D02*
X109609598Y-102272419D01*
X109609598Y-102272419D02*
X109704836Y-102272419D01*
X109704836Y-102272419D02*
X109847693Y-102224800D01*
X109847693Y-102224800D02*
X109895312Y-102177180D01*
X109895312Y-102177180D02*
X109895312Y-101843847D01*
X109895312Y-101843847D02*
X109704836Y-101843847D01*
X110323884Y-102272419D02*
X110323884Y-101272419D01*
X110323884Y-101272419D02*
X110704836Y-101272419D01*
X110704836Y-101272419D02*
X110800074Y-101320038D01*
X110800074Y-101320038D02*
X110847693Y-101367657D01*
X110847693Y-101367657D02*
X110895312Y-101462895D01*
X110895312Y-101462895D02*
X110895312Y-101605752D01*
X110895312Y-101605752D02*
X110847693Y-101700990D01*
X110847693Y-101700990D02*
X110800074Y-101748609D01*
X110800074Y-101748609D02*
X110704836Y-101796228D01*
X110704836Y-101796228D02*
X110323884Y-101796228D01*
X111514360Y-101272419D02*
X111609598Y-101272419D01*
X111609598Y-101272419D02*
X111704836Y-101320038D01*
X111704836Y-101320038D02*
X111752455Y-101367657D01*
X111752455Y-101367657D02*
X111800074Y-101462895D01*
X111800074Y-101462895D02*
X111847693Y-101653371D01*
X111847693Y-101653371D02*
X111847693Y-101891466D01*
X111847693Y-101891466D02*
X111800074Y-102081942D01*
X111800074Y-102081942D02*
X111752455Y-102177180D01*
X111752455Y-102177180D02*
X111704836Y-102224800D01*
X111704836Y-102224800D02*
X111609598Y-102272419D01*
X111609598Y-102272419D02*
X111514360Y-102272419D01*
X111514360Y-102272419D02*
X111419122Y-102224800D01*
X111419122Y-102224800D02*
X111371503Y-102177180D01*
X111371503Y-102177180D02*
X111323884Y-102081942D01*
X111323884Y-102081942D02*
X111276265Y-101891466D01*
X111276265Y-101891466D02*
X111276265Y-101653371D01*
X111276265Y-101653371D02*
X111323884Y-101462895D01*
X111323884Y-101462895D02*
X111371503Y-101367657D01*
X111371503Y-101367657D02*
X111419122Y-101320038D01*
X111419122Y-101320038D02*
X111514360Y-101272419D01*
X112704836Y-101272419D02*
X112514360Y-101272419D01*
X112514360Y-101272419D02*
X112419122Y-101320038D01*
X112419122Y-101320038D02*
X112371503Y-101367657D01*
X112371503Y-101367657D02*
X112276265Y-101510514D01*
X112276265Y-101510514D02*
X112228646Y-101700990D01*
X112228646Y-101700990D02*
X112228646Y-102081942D01*
X112228646Y-102081942D02*
X112276265Y-102177180D01*
X112276265Y-102177180D02*
X112323884Y-102224800D01*
X112323884Y-102224800D02*
X112419122Y-102272419D01*
X112419122Y-102272419D02*
X112609598Y-102272419D01*
X112609598Y-102272419D02*
X112704836Y-102224800D01*
X112704836Y-102224800D02*
X112752455Y-102177180D01*
X112752455Y-102177180D02*
X112800074Y-102081942D01*
X112800074Y-102081942D02*
X112800074Y-101843847D01*
X112800074Y-101843847D02*
X112752455Y-101748609D01*
X112752455Y-101748609D02*
X112704836Y-101700990D01*
X112704836Y-101700990D02*
X112609598Y-101653371D01*
X112609598Y-101653371D02*
X112419122Y-101653371D01*
X112419122Y-101653371D02*
X112323884Y-101700990D01*
X112323884Y-101700990D02*
X112276265Y-101748609D01*
X112276265Y-101748609D02*
X112228646Y-101843847D01*
X111800074Y-124272419D02*
X111323884Y-124272419D01*
X111323884Y-124272419D02*
X111276265Y-124748609D01*
X111276265Y-124748609D02*
X111323884Y-124700990D01*
X111323884Y-124700990D02*
X111419122Y-124653371D01*
X111419122Y-124653371D02*
X111657217Y-124653371D01*
X111657217Y-124653371D02*
X111752455Y-124700990D01*
X111752455Y-124700990D02*
X111800074Y-124748609D01*
X111800074Y-124748609D02*
X111847693Y-124843847D01*
X111847693Y-124843847D02*
X111847693Y-125081942D01*
X111847693Y-125081942D02*
X111800074Y-125177180D01*
X111800074Y-125177180D02*
X111752455Y-125224800D01*
X111752455Y-125224800D02*
X111657217Y-125272419D01*
X111657217Y-125272419D02*
X111419122Y-125272419D01*
X111419122Y-125272419D02*
X111323884Y-125224800D01*
X111323884Y-125224800D02*
X111276265Y-125177180D01*
X112133408Y-124272419D02*
X112466741Y-125272419D01*
X112466741Y-125272419D02*
X112800074Y-124272419D01*
X99181027Y-118772419D02*
X99514360Y-119772419D01*
X99514360Y-119772419D02*
X99847693Y-118772419D01*
X100609598Y-119724800D02*
X100514360Y-119772419D01*
X100514360Y-119772419D02*
X100323884Y-119772419D01*
X100323884Y-119772419D02*
X100228646Y-119724800D01*
X100228646Y-119724800D02*
X100181027Y-119677180D01*
X100181027Y-119677180D02*
X100133408Y-119581942D01*
X100133408Y-119581942D02*
X100133408Y-119296228D01*
X100133408Y-119296228D02*
X100181027Y-119200990D01*
X100181027Y-119200990D02*
X100228646Y-119153371D01*
X100228646Y-119153371D02*
X100323884Y-119105752D01*
X100323884Y-119105752D02*
X100514360Y-119105752D01*
X100514360Y-119105752D02*
X100609598Y-119153371D01*
X101466741Y-119724800D02*
X101371503Y-119772419D01*
X101371503Y-119772419D02*
X101181027Y-119772419D01*
X101181027Y-119772419D02*
X101085789Y-119724800D01*
X101085789Y-119724800D02*
X101038170Y-119677180D01*
X101038170Y-119677180D02*
X100990551Y-119581942D01*
X100990551Y-119581942D02*
X100990551Y-119296228D01*
X100990551Y-119296228D02*
X101038170Y-119200990D01*
X101038170Y-119200990D02*
X101085789Y-119153371D01*
X101085789Y-119153371D02*
X101181027Y-119105752D01*
X101181027Y-119105752D02*
X101371503Y-119105752D01*
X101371503Y-119105752D02*
X101466741Y-119153371D01*
X99847693Y-101320038D02*
X99752455Y-101272419D01*
X99752455Y-101272419D02*
X99609598Y-101272419D01*
X99609598Y-101272419D02*
X99466741Y-101320038D01*
X99466741Y-101320038D02*
X99371503Y-101415276D01*
X99371503Y-101415276D02*
X99323884Y-101510514D01*
X99323884Y-101510514D02*
X99276265Y-101700990D01*
X99276265Y-101700990D02*
X99276265Y-101843847D01*
X99276265Y-101843847D02*
X99323884Y-102034323D01*
X99323884Y-102034323D02*
X99371503Y-102129561D01*
X99371503Y-102129561D02*
X99466741Y-102224800D01*
X99466741Y-102224800D02*
X99609598Y-102272419D01*
X99609598Y-102272419D02*
X99704836Y-102272419D01*
X99704836Y-102272419D02*
X99847693Y-102224800D01*
X99847693Y-102224800D02*
X99895312Y-102177180D01*
X99895312Y-102177180D02*
X99895312Y-101843847D01*
X99895312Y-101843847D02*
X99704836Y-101843847D01*
X100323884Y-102272419D02*
X100323884Y-101272419D01*
X100323884Y-101272419D02*
X100704836Y-101272419D01*
X100704836Y-101272419D02*
X100800074Y-101320038D01*
X100800074Y-101320038D02*
X100847693Y-101367657D01*
X100847693Y-101367657D02*
X100895312Y-101462895D01*
X100895312Y-101462895D02*
X100895312Y-101605752D01*
X100895312Y-101605752D02*
X100847693Y-101700990D01*
X100847693Y-101700990D02*
X100800074Y-101748609D01*
X100800074Y-101748609D02*
X100704836Y-101796228D01*
X100704836Y-101796228D02*
X100323884Y-101796228D01*
X101847693Y-102272419D02*
X101276265Y-102272419D01*
X101561979Y-102272419D02*
X101561979Y-101272419D01*
X101561979Y-101272419D02*
X101466741Y-101415276D01*
X101466741Y-101415276D02*
X101371503Y-101510514D01*
X101371503Y-101510514D02*
X101276265Y-101558133D01*
X102323884Y-102272419D02*
X102514360Y-102272419D01*
X102514360Y-102272419D02*
X102609598Y-102224800D01*
X102609598Y-102224800D02*
X102657217Y-102177180D01*
X102657217Y-102177180D02*
X102752455Y-102034323D01*
X102752455Y-102034323D02*
X102800074Y-101843847D01*
X102800074Y-101843847D02*
X102800074Y-101462895D01*
X102800074Y-101462895D02*
X102752455Y-101367657D01*
X102752455Y-101367657D02*
X102704836Y-101320038D01*
X102704836Y-101320038D02*
X102609598Y-101272419D01*
X102609598Y-101272419D02*
X102419122Y-101272419D01*
X102419122Y-101272419D02*
X102323884Y-101320038D01*
X102323884Y-101320038D02*
X102276265Y-101367657D01*
X102276265Y-101367657D02*
X102228646Y-101462895D01*
X102228646Y-101462895D02*
X102228646Y-101700990D01*
X102228646Y-101700990D02*
X102276265Y-101796228D01*
X102276265Y-101796228D02*
X102323884Y-101843847D01*
X102323884Y-101843847D02*
X102419122Y-101891466D01*
X102419122Y-101891466D02*
X102609598Y-101891466D01*
X102609598Y-101891466D02*
X102704836Y-101843847D01*
X102704836Y-101843847D02*
X102752455Y-101796228D01*
X102752455Y-101796228D02*
X102800074Y-101700990D01*
X109323884Y-99772419D02*
X109323884Y-98772419D01*
X109323884Y-98772419D02*
X109657217Y-99486704D01*
X109657217Y-99486704D02*
X109990550Y-98772419D01*
X109990550Y-98772419D02*
X109990550Y-99772419D01*
X110466741Y-99772419D02*
X110466741Y-98772419D01*
X110895312Y-99724800D02*
X111038169Y-99772419D01*
X111038169Y-99772419D02*
X111276264Y-99772419D01*
X111276264Y-99772419D02*
X111371502Y-99724800D01*
X111371502Y-99724800D02*
X111419121Y-99677180D01*
X111419121Y-99677180D02*
X111466740Y-99581942D01*
X111466740Y-99581942D02*
X111466740Y-99486704D01*
X111466740Y-99486704D02*
X111419121Y-99391466D01*
X111419121Y-99391466D02*
X111371502Y-99343847D01*
X111371502Y-99343847D02*
X111276264Y-99296228D01*
X111276264Y-99296228D02*
X111085788Y-99248609D01*
X111085788Y-99248609D02*
X110990550Y-99200990D01*
X110990550Y-99200990D02*
X110942931Y-99153371D01*
X110942931Y-99153371D02*
X110895312Y-99058133D01*
X110895312Y-99058133D02*
X110895312Y-98962895D01*
X110895312Y-98962895D02*
X110942931Y-98867657D01*
X110942931Y-98867657D02*
X110990550Y-98820038D01*
X110990550Y-98820038D02*
X111085788Y-98772419D01*
X111085788Y-98772419D02*
X111323883Y-98772419D01*
X111323883Y-98772419D02*
X111466740Y-98820038D01*
X112085788Y-98772419D02*
X112276264Y-98772419D01*
X112276264Y-98772419D02*
X112371502Y-98820038D01*
X112371502Y-98820038D02*
X112466740Y-98915276D01*
X112466740Y-98915276D02*
X112514359Y-99105752D01*
X112514359Y-99105752D02*
X112514359Y-99439085D01*
X112514359Y-99439085D02*
X112466740Y-99629561D01*
X112466740Y-99629561D02*
X112371502Y-99724800D01*
X112371502Y-99724800D02*
X112276264Y-99772419D01*
X112276264Y-99772419D02*
X112085788Y-99772419D01*
X112085788Y-99772419D02*
X111990550Y-99724800D01*
X111990550Y-99724800D02*
X111895312Y-99629561D01*
X111895312Y-99629561D02*
X111847693Y-99439085D01*
X111847693Y-99439085D02*
X111847693Y-99105752D01*
X111847693Y-99105752D02*
X111895312Y-98915276D01*
X111895312Y-98915276D02*
X111990550Y-98820038D01*
X111990550Y-98820038D02*
X112085788Y-98772419D01*
X109847693Y-121820038D02*
X109752455Y-121772419D01*
X109752455Y-121772419D02*
X109609598Y-121772419D01*
X109609598Y-121772419D02*
X109466741Y-121820038D01*
X109466741Y-121820038D02*
X109371503Y-121915276D01*
X109371503Y-121915276D02*
X109323884Y-122010514D01*
X109323884Y-122010514D02*
X109276265Y-122200990D01*
X109276265Y-122200990D02*
X109276265Y-122343847D01*
X109276265Y-122343847D02*
X109323884Y-122534323D01*
X109323884Y-122534323D02*
X109371503Y-122629561D01*
X109371503Y-122629561D02*
X109466741Y-122724800D01*
X109466741Y-122724800D02*
X109609598Y-122772419D01*
X109609598Y-122772419D02*
X109704836Y-122772419D01*
X109704836Y-122772419D02*
X109847693Y-122724800D01*
X109847693Y-122724800D02*
X109895312Y-122677180D01*
X109895312Y-122677180D02*
X109895312Y-122343847D01*
X109895312Y-122343847D02*
X109704836Y-122343847D01*
X110323884Y-122772419D02*
X110323884Y-121772419D01*
X110323884Y-121772419D02*
X110704836Y-121772419D01*
X110704836Y-121772419D02*
X110800074Y-121820038D01*
X110800074Y-121820038D02*
X110847693Y-121867657D01*
X110847693Y-121867657D02*
X110895312Y-121962895D01*
X110895312Y-121962895D02*
X110895312Y-122105752D01*
X110895312Y-122105752D02*
X110847693Y-122200990D01*
X110847693Y-122200990D02*
X110800074Y-122248609D01*
X110800074Y-122248609D02*
X110704836Y-122296228D01*
X110704836Y-122296228D02*
X110323884Y-122296228D01*
X111514360Y-121772419D02*
X111609598Y-121772419D01*
X111609598Y-121772419D02*
X111704836Y-121820038D01*
X111704836Y-121820038D02*
X111752455Y-121867657D01*
X111752455Y-121867657D02*
X111800074Y-121962895D01*
X111800074Y-121962895D02*
X111847693Y-122153371D01*
X111847693Y-122153371D02*
X111847693Y-122391466D01*
X111847693Y-122391466D02*
X111800074Y-122581942D01*
X111800074Y-122581942D02*
X111752455Y-122677180D01*
X111752455Y-122677180D02*
X111704836Y-122724800D01*
X111704836Y-122724800D02*
X111609598Y-122772419D01*
X111609598Y-122772419D02*
X111514360Y-122772419D01*
X111514360Y-122772419D02*
X111419122Y-122724800D01*
X111419122Y-122724800D02*
X111371503Y-122677180D01*
X111371503Y-122677180D02*
X111323884Y-122581942D01*
X111323884Y-122581942D02*
X111276265Y-122391466D01*
X111276265Y-122391466D02*
X111276265Y-122153371D01*
X111276265Y-122153371D02*
X111323884Y-121962895D01*
X111323884Y-121962895D02*
X111371503Y-121867657D01*
X111371503Y-121867657D02*
X111419122Y-121820038D01*
X111419122Y-121820038D02*
X111514360Y-121772419D01*
X112323884Y-122772419D02*
X112514360Y-122772419D01*
X112514360Y-122772419D02*
X112609598Y-122724800D01*
X112609598Y-122724800D02*
X112657217Y-122677180D01*
X112657217Y-122677180D02*
X112752455Y-122534323D01*
X112752455Y-122534323D02*
X112800074Y-122343847D01*
X112800074Y-122343847D02*
X112800074Y-121962895D01*
X112800074Y-121962895D02*
X112752455Y-121867657D01*
X112752455Y-121867657D02*
X112704836Y-121820038D01*
X112704836Y-121820038D02*
X112609598Y-121772419D01*
X112609598Y-121772419D02*
X112419122Y-121772419D01*
X112419122Y-121772419D02*
X112323884Y-121820038D01*
X112323884Y-121820038D02*
X112276265Y-121867657D01*
X112276265Y-121867657D02*
X112228646Y-121962895D01*
X112228646Y-121962895D02*
X112228646Y-122200990D01*
X112228646Y-122200990D02*
X112276265Y-122296228D01*
X112276265Y-122296228D02*
X112323884Y-122343847D01*
X112323884Y-122343847D02*
X112419122Y-122391466D01*
X112419122Y-122391466D02*
X112609598Y-122391466D01*
X112609598Y-122391466D02*
X112704836Y-122343847D01*
X112704836Y-122343847D02*
X112752455Y-122296228D01*
X112752455Y-122296228D02*
X112800074Y-122200990D01*
X99895312Y-117772419D02*
X99561979Y-117296228D01*
X99323884Y-117772419D02*
X99323884Y-116772419D01*
X99323884Y-116772419D02*
X99704836Y-116772419D01*
X99704836Y-116772419D02*
X99800074Y-116820038D01*
X99800074Y-116820038D02*
X99847693Y-116867657D01*
X99847693Y-116867657D02*
X99895312Y-116962895D01*
X99895312Y-116962895D02*
X99895312Y-117105752D01*
X99895312Y-117105752D02*
X99847693Y-117200990D01*
X99847693Y-117200990D02*
X99800074Y-117248609D01*
X99800074Y-117248609D02*
X99704836Y-117296228D01*
X99704836Y-117296228D02*
X99323884Y-117296228D01*
X100276265Y-117724800D02*
X100419122Y-117772419D01*
X100419122Y-117772419D02*
X100657217Y-117772419D01*
X100657217Y-117772419D02*
X100752455Y-117724800D01*
X100752455Y-117724800D02*
X100800074Y-117677180D01*
X100800074Y-117677180D02*
X100847693Y-117581942D01*
X100847693Y-117581942D02*
X100847693Y-117486704D01*
X100847693Y-117486704D02*
X100800074Y-117391466D01*
X100800074Y-117391466D02*
X100752455Y-117343847D01*
X100752455Y-117343847D02*
X100657217Y-117296228D01*
X100657217Y-117296228D02*
X100466741Y-117248609D01*
X100466741Y-117248609D02*
X100371503Y-117200990D01*
X100371503Y-117200990D02*
X100323884Y-117153371D01*
X100323884Y-117153371D02*
X100276265Y-117058133D01*
X100276265Y-117058133D02*
X100276265Y-116962895D01*
X100276265Y-116962895D02*
X100323884Y-116867657D01*
X100323884Y-116867657D02*
X100371503Y-116820038D01*
X100371503Y-116820038D02*
X100466741Y-116772419D01*
X100466741Y-116772419D02*
X100704836Y-116772419D01*
X100704836Y-116772419D02*
X100847693Y-116820038D01*
X101133408Y-116772419D02*
X101704836Y-116772419D01*
X101419122Y-117772419D02*
X101419122Y-116772419D01*
X99323884Y-125272419D02*
X99323884Y-124272419D01*
X99323884Y-124272419D02*
X99704836Y-124272419D01*
X99704836Y-124272419D02*
X99800074Y-124320038D01*
X99800074Y-124320038D02*
X99847693Y-124367657D01*
X99847693Y-124367657D02*
X99895312Y-124462895D01*
X99895312Y-124462895D02*
X99895312Y-124605752D01*
X99895312Y-124605752D02*
X99847693Y-124700990D01*
X99847693Y-124700990D02*
X99800074Y-124748609D01*
X99800074Y-124748609D02*
X99704836Y-124796228D01*
X99704836Y-124796228D02*
X99323884Y-124796228D01*
X100228646Y-124272419D02*
X100466741Y-125272419D01*
X100466741Y-125272419D02*
X100657217Y-124558133D01*
X100657217Y-124558133D02*
X100847693Y-125272419D01*
X100847693Y-125272419D02*
X101085789Y-124272419D01*
X101800074Y-124748609D02*
X101942931Y-124796228D01*
X101942931Y-124796228D02*
X101990550Y-124843847D01*
X101990550Y-124843847D02*
X102038169Y-124939085D01*
X102038169Y-124939085D02*
X102038169Y-125081942D01*
X102038169Y-125081942D02*
X101990550Y-125177180D01*
X101990550Y-125177180D02*
X101942931Y-125224800D01*
X101942931Y-125224800D02*
X101847693Y-125272419D01*
X101847693Y-125272419D02*
X101466741Y-125272419D01*
X101466741Y-125272419D02*
X101466741Y-124272419D01*
X101466741Y-124272419D02*
X101800074Y-124272419D01*
X101800074Y-124272419D02*
X101895312Y-124320038D01*
X101895312Y-124320038D02*
X101942931Y-124367657D01*
X101942931Y-124367657D02*
X101990550Y-124462895D01*
X101990550Y-124462895D02*
X101990550Y-124558133D01*
X101990550Y-124558133D02*
X101942931Y-124653371D01*
X101942931Y-124653371D02*
X101895312Y-124700990D01*
X101895312Y-124700990D02*
X101800074Y-124748609D01*
X101800074Y-124748609D02*
X101466741Y-124748609D01*
X99323884Y-114772419D02*
X99323884Y-113772419D01*
X99323884Y-113772419D02*
X99895312Y-114772419D01*
X99895312Y-114772419D02*
X99895312Y-113772419D01*
X100942931Y-114677180D02*
X100895312Y-114724800D01*
X100895312Y-114724800D02*
X100752455Y-114772419D01*
X100752455Y-114772419D02*
X100657217Y-114772419D01*
X100657217Y-114772419D02*
X100514360Y-114724800D01*
X100514360Y-114724800D02*
X100419122Y-114629561D01*
X100419122Y-114629561D02*
X100371503Y-114534323D01*
X100371503Y-114534323D02*
X100323884Y-114343847D01*
X100323884Y-114343847D02*
X100323884Y-114200990D01*
X100323884Y-114200990D02*
X100371503Y-114010514D01*
X100371503Y-114010514D02*
X100419122Y-113915276D01*
X100419122Y-113915276D02*
X100514360Y-113820038D01*
X100514360Y-113820038D02*
X100657217Y-113772419D01*
X100657217Y-113772419D02*
X100752455Y-113772419D01*
X100752455Y-113772419D02*
X100895312Y-113820038D01*
X100895312Y-113820038D02*
X100942931Y-113867657D01*
X107776265Y-94724800D02*
X107919122Y-94772419D01*
X107919122Y-94772419D02*
X108157217Y-94772419D01*
X108157217Y-94772419D02*
X108252455Y-94724800D01*
X108252455Y-94724800D02*
X108300074Y-94677180D01*
X108300074Y-94677180D02*
X108347693Y-94581942D01*
X108347693Y-94581942D02*
X108347693Y-94486704D01*
X108347693Y-94486704D02*
X108300074Y-94391466D01*
X108300074Y-94391466D02*
X108252455Y-94343847D01*
X108252455Y-94343847D02*
X108157217Y-94296228D01*
X108157217Y-94296228D02*
X107966741Y-94248609D01*
X107966741Y-94248609D02*
X107871503Y-94200990D01*
X107871503Y-94200990D02*
X107823884Y-94153371D01*
X107823884Y-94153371D02*
X107776265Y-94058133D01*
X107776265Y-94058133D02*
X107776265Y-93962895D01*
X107776265Y-93962895D02*
X107823884Y-93867657D01*
X107823884Y-93867657D02*
X107871503Y-93820038D01*
X107871503Y-93820038D02*
X107966741Y-93772419D01*
X107966741Y-93772419D02*
X108204836Y-93772419D01*
X108204836Y-93772419D02*
X108347693Y-93820038D01*
X108776265Y-94772419D02*
X108776265Y-93772419D01*
X108776265Y-93772419D02*
X109157217Y-93772419D01*
X109157217Y-93772419D02*
X109252455Y-93820038D01*
X109252455Y-93820038D02*
X109300074Y-93867657D01*
X109300074Y-93867657D02*
X109347693Y-93962895D01*
X109347693Y-93962895D02*
X109347693Y-94105752D01*
X109347693Y-94105752D02*
X109300074Y-94200990D01*
X109300074Y-94200990D02*
X109252455Y-94248609D01*
X109252455Y-94248609D02*
X109157217Y-94296228D01*
X109157217Y-94296228D02*
X108776265Y-94296228D01*
X109776265Y-94772419D02*
X109776265Y-93772419D01*
X110014360Y-94867657D02*
X110776264Y-94867657D01*
X111585788Y-94677180D02*
X111538169Y-94724800D01*
X111538169Y-94724800D02*
X111395312Y-94772419D01*
X111395312Y-94772419D02*
X111300074Y-94772419D01*
X111300074Y-94772419D02*
X111157217Y-94724800D01*
X111157217Y-94724800D02*
X111061979Y-94629561D01*
X111061979Y-94629561D02*
X111014360Y-94534323D01*
X111014360Y-94534323D02*
X110966741Y-94343847D01*
X110966741Y-94343847D02*
X110966741Y-94200990D01*
X110966741Y-94200990D02*
X111014360Y-94010514D01*
X111014360Y-94010514D02*
X111061979Y-93915276D01*
X111061979Y-93915276D02*
X111157217Y-93820038D01*
X111157217Y-93820038D02*
X111300074Y-93772419D01*
X111300074Y-93772419D02*
X111395312Y-93772419D01*
X111395312Y-93772419D02*
X111538169Y-93820038D01*
X111538169Y-93820038D02*
X111585788Y-93867657D01*
X112014360Y-94772419D02*
X112014360Y-93772419D01*
X112585788Y-94772419D02*
X112157217Y-94200990D01*
X112585788Y-93772419D02*
X112014360Y-94343847D01*
X99847693Y-93320038D02*
X99752455Y-93272419D01*
X99752455Y-93272419D02*
X99609598Y-93272419D01*
X99609598Y-93272419D02*
X99466741Y-93320038D01*
X99466741Y-93320038D02*
X99371503Y-93415276D01*
X99371503Y-93415276D02*
X99323884Y-93510514D01*
X99323884Y-93510514D02*
X99276265Y-93700990D01*
X99276265Y-93700990D02*
X99276265Y-93843847D01*
X99276265Y-93843847D02*
X99323884Y-94034323D01*
X99323884Y-94034323D02*
X99371503Y-94129561D01*
X99371503Y-94129561D02*
X99466741Y-94224800D01*
X99466741Y-94224800D02*
X99609598Y-94272419D01*
X99609598Y-94272419D02*
X99704836Y-94272419D01*
X99704836Y-94272419D02*
X99847693Y-94224800D01*
X99847693Y-94224800D02*
X99895312Y-94177180D01*
X99895312Y-94177180D02*
X99895312Y-93843847D01*
X99895312Y-93843847D02*
X99704836Y-93843847D01*
X100323884Y-94272419D02*
X100323884Y-93272419D01*
X100323884Y-93272419D02*
X100704836Y-93272419D01*
X100704836Y-93272419D02*
X100800074Y-93320038D01*
X100800074Y-93320038D02*
X100847693Y-93367657D01*
X100847693Y-93367657D02*
X100895312Y-93462895D01*
X100895312Y-93462895D02*
X100895312Y-93605752D01*
X100895312Y-93605752D02*
X100847693Y-93700990D01*
X100847693Y-93700990D02*
X100800074Y-93748609D01*
X100800074Y-93748609D02*
X100704836Y-93796228D01*
X100704836Y-93796228D02*
X100323884Y-93796228D01*
X101514360Y-93272419D02*
X101609598Y-93272419D01*
X101609598Y-93272419D02*
X101704836Y-93320038D01*
X101704836Y-93320038D02*
X101752455Y-93367657D01*
X101752455Y-93367657D02*
X101800074Y-93462895D01*
X101800074Y-93462895D02*
X101847693Y-93653371D01*
X101847693Y-93653371D02*
X101847693Y-93891466D01*
X101847693Y-93891466D02*
X101800074Y-94081942D01*
X101800074Y-94081942D02*
X101752455Y-94177180D01*
X101752455Y-94177180D02*
X101704836Y-94224800D01*
X101704836Y-94224800D02*
X101609598Y-94272419D01*
X101609598Y-94272419D02*
X101514360Y-94272419D01*
X101514360Y-94272419D02*
X101419122Y-94224800D01*
X101419122Y-94224800D02*
X101371503Y-94177180D01*
X101371503Y-94177180D02*
X101323884Y-94081942D01*
X101323884Y-94081942D02*
X101276265Y-93891466D01*
X101276265Y-93891466D02*
X101276265Y-93653371D01*
X101276265Y-93653371D02*
X101323884Y-93462895D01*
X101323884Y-93462895D02*
X101371503Y-93367657D01*
X101371503Y-93367657D02*
X101419122Y-93320038D01*
X101419122Y-93320038D02*
X101514360Y-93272419D01*
X102800074Y-94272419D02*
X102228646Y-94272419D01*
X102514360Y-94272419D02*
X102514360Y-93272419D01*
X102514360Y-93272419D02*
X102419122Y-93415276D01*
X102419122Y-93415276D02*
X102323884Y-93510514D01*
X102323884Y-93510514D02*
X102228646Y-93558133D01*
D12*
X56682319Y-130410833D02*
X57396604Y-130410833D01*
X57396604Y-130410833D02*
X57539461Y-130458452D01*
X57539461Y-130458452D02*
X57634700Y-130553690D01*
X57634700Y-130553690D02*
X57682319Y-130696547D01*
X57682319Y-130696547D02*
X57682319Y-130791785D01*
X56682319Y-129458452D02*
X56682319Y-129934642D01*
X56682319Y-129934642D02*
X57158509Y-129982261D01*
X57158509Y-129982261D02*
X57110890Y-129934642D01*
X57110890Y-129934642D02*
X57063271Y-129839404D01*
X57063271Y-129839404D02*
X57063271Y-129601309D01*
X57063271Y-129601309D02*
X57110890Y-129506071D01*
X57110890Y-129506071D02*
X57158509Y-129458452D01*
X57158509Y-129458452D02*
X57253747Y-129410833D01*
X57253747Y-129410833D02*
X57491842Y-129410833D01*
X57491842Y-129410833D02*
X57587080Y-129458452D01*
X57587080Y-129458452D02*
X57634700Y-129506071D01*
X57634700Y-129506071D02*
X57682319Y-129601309D01*
X57682319Y-129601309D02*
X57682319Y-129839404D01*
X57682319Y-129839404D02*
X57634700Y-129934642D01*
X57634700Y-129934642D02*
X57587080Y-129982261D01*
X80894819Y-99393333D02*
X81609104Y-99393333D01*
X81609104Y-99393333D02*
X81751961Y-99440952D01*
X81751961Y-99440952D02*
X81847200Y-99536190D01*
X81847200Y-99536190D02*
X81894819Y-99679047D01*
X81894819Y-99679047D02*
X81894819Y-99774285D01*
X80990057Y-98964761D02*
X80942438Y-98917142D01*
X80942438Y-98917142D02*
X80894819Y-98821904D01*
X80894819Y-98821904D02*
X80894819Y-98583809D01*
X80894819Y-98583809D02*
X80942438Y-98488571D01*
X80942438Y-98488571D02*
X80990057Y-98440952D01*
X80990057Y-98440952D02*
X81085295Y-98393333D01*
X81085295Y-98393333D02*
X81180533Y-98393333D01*
X81180533Y-98393333D02*
X81323390Y-98440952D01*
X81323390Y-98440952D02*
X81894819Y-99012380D01*
X81894819Y-99012380D02*
X81894819Y-98393333D01*
X76333095Y-114084819D02*
X76333095Y-114894342D01*
X76333095Y-114894342D02*
X76380714Y-114989580D01*
X76380714Y-114989580D02*
X76428333Y-115037200D01*
X76428333Y-115037200D02*
X76523571Y-115084819D01*
X76523571Y-115084819D02*
X76714047Y-115084819D01*
X76714047Y-115084819D02*
X76809285Y-115037200D01*
X76809285Y-115037200D02*
X76856904Y-114989580D01*
X76856904Y-114989580D02*
X76904523Y-114894342D01*
X76904523Y-114894342D02*
X76904523Y-114084819D01*
X77333095Y-114180057D02*
X77380714Y-114132438D01*
X77380714Y-114132438D02*
X77475952Y-114084819D01*
X77475952Y-114084819D02*
X77714047Y-114084819D01*
X77714047Y-114084819D02*
X77809285Y-114132438D01*
X77809285Y-114132438D02*
X77856904Y-114180057D01*
X77856904Y-114180057D02*
X77904523Y-114275295D01*
X77904523Y-114275295D02*
X77904523Y-114370533D01*
X77904523Y-114370533D02*
X77856904Y-114513390D01*
X77856904Y-114513390D02*
X77285476Y-115084819D01*
X77285476Y-115084819D02*
X77904523Y-115084819D01*
X131746666Y-83434819D02*
X131746666Y-84149104D01*
X131746666Y-84149104D02*
X131699047Y-84291961D01*
X131699047Y-84291961D02*
X131603809Y-84387200D01*
X131603809Y-84387200D02*
X131460952Y-84434819D01*
X131460952Y-84434819D02*
X131365714Y-84434819D01*
X132651428Y-83768152D02*
X132651428Y-84434819D01*
X132413333Y-83387200D02*
X132175238Y-84101485D01*
X132175238Y-84101485D02*
X132794285Y-84101485D01*
X131746666Y-111374819D02*
X131746666Y-112089104D01*
X131746666Y-112089104D02*
X131699047Y-112231961D01*
X131699047Y-112231961D02*
X131603809Y-112327200D01*
X131603809Y-112327200D02*
X131460952Y-112374819D01*
X131460952Y-112374819D02*
X131365714Y-112374819D01*
X132127619Y-111374819D02*
X132746666Y-111374819D01*
X132746666Y-111374819D02*
X132413333Y-111755771D01*
X132413333Y-111755771D02*
X132556190Y-111755771D01*
X132556190Y-111755771D02*
X132651428Y-111803390D01*
X132651428Y-111803390D02*
X132699047Y-111851009D01*
X132699047Y-111851009D02*
X132746666Y-111946247D01*
X132746666Y-111946247D02*
X132746666Y-112184342D01*
X132746666Y-112184342D02*
X132699047Y-112279580D01*
X132699047Y-112279580D02*
X132651428Y-112327200D01*
X132651428Y-112327200D02*
X132556190Y-112374819D01*
X132556190Y-112374819D02*
X132270476Y-112374819D01*
X132270476Y-112374819D02*
X132175238Y-112327200D01*
X132175238Y-112327200D02*
X132127619Y-112279580D01*
D13*
%TO.C,U1*%
X95250000Y-87220000D02*
X115570000Y-87220000D01*
X95250000Y-128680000D02*
X95250000Y-87220000D01*
X115570000Y-87220000D02*
X115570000Y-128680000D01*
X115700000Y-128680000D02*
X95250000Y-128680000D01*
%TO.C,J5*%
X82075000Y-125380000D02*
X82075000Y-128380000D01*
X79075000Y-125380000D02*
X82075000Y-125380000D01*
X81835000Y-125620000D02*
X59215000Y-125620000D01*
X81835000Y-125620000D02*
X81835000Y-133440000D01*
X59215000Y-125620000D02*
X59215000Y-133440000D01*
X81835000Y-133440000D02*
X59215000Y-133440000D01*
%TO.C,J1*%
X67405000Y-123242500D02*
X66525000Y-123242500D01*
X66965000Y-122632500D01*
X67405000Y-123242500D01*
G36*
X67405000Y-123242500D02*
G01*
X66525000Y-123242500D01*
X66965000Y-122632500D01*
X67405000Y-123242500D01*
G37*
X74585000Y-114592500D02*
X74585000Y-122632500D01*
X73777000Y-119212500D02*
X74585000Y-119212500D01*
X73777000Y-118212500D02*
X74585000Y-118212500D01*
X72508000Y-120512500D02*
X74585000Y-120512500D01*
X68845000Y-120512500D02*
X71422000Y-120512500D01*
X68845000Y-119212500D02*
X70153000Y-119212500D01*
X68845000Y-118212500D02*
X70153000Y-118212500D01*
X67265000Y-122632500D02*
X74585000Y-122632500D01*
X63845000Y-122632500D02*
X66665000Y-122632500D01*
X63845000Y-120512500D02*
X65085000Y-120512500D01*
X63845000Y-119212500D02*
X65085000Y-119212500D01*
X63845000Y-118212500D02*
X65085000Y-118212500D01*
X63845000Y-114592500D02*
X74585000Y-114592500D01*
X63845000Y-114592500D02*
X63845000Y-122632500D01*
%TO.C,J2*%
X85090000Y-97680000D02*
X90280000Y-97680000D01*
X90280000Y-100440000D02*
X90280000Y-97680000D01*
X85090000Y-100440000D02*
X85090000Y-97680000D01*
X85090000Y-100440000D02*
X90280000Y-100440000D01*
X83820000Y-100440000D02*
X82440000Y-100440000D01*
X82440000Y-100440000D02*
X82440000Y-99060000D01*
D12*
%TO.C,U2*%
X53190000Y-87630000D02*
X52555000Y-88265000D01*
X52555000Y-86995000D01*
X53190000Y-87630000D01*
G36*
X53190000Y-87630000D02*
G01*
X52555000Y-88265000D01*
X52555000Y-86995000D01*
X53190000Y-87630000D01*
G37*
D13*
X77325000Y-79290000D02*
G75*
G02*
X79455000Y-81420000I0J-2130000D01*
G01*
X53595000Y-81420000D02*
G75*
G02*
X55725000Y-79290000I2130002J-2D01*
G01*
X79455000Y-113750000D02*
X79455000Y-81420000D01*
X77335000Y-79290000D02*
X55725000Y-79290000D01*
X56135000Y-113750000D02*
X79455000Y-113750000D01*
X56135000Y-106850000D02*
X56135000Y-113750000D01*
X53595000Y-106850000D02*
X56135000Y-106850000D01*
X53595000Y-106850000D02*
X53595000Y-81420000D01*
%TO.C,J4*%
X133460000Y-87630000D02*
X133460000Y-105520000D01*
X130700000Y-105520000D02*
X133460000Y-105520000D01*
X130700000Y-87630000D02*
X133460000Y-87630000D01*
X130700000Y-87630000D02*
X130700000Y-105520000D01*
X130700000Y-86360000D02*
X130700000Y-84980000D01*
X130700000Y-84980000D02*
X132080000Y-84980000D01*
%TO.C,J3*%
X133460000Y-115570000D02*
X133460000Y-123300000D01*
X130700000Y-123300000D02*
X133460000Y-123300000D01*
X130700000Y-115570000D02*
X133460000Y-115570000D01*
X130700000Y-115570000D02*
X130700000Y-123300000D01*
X130700000Y-114300000D02*
X130700000Y-112920000D01*
X130700000Y-112920000D02*
X132080000Y-112920000D01*
%TD*%
M02*
