%TF.GenerationSoftware,KiCad,Pcbnew,9.0.2*%
%TF.CreationDate,2025-07-07T09:36:44+02:00*%
%TF.ProjectId,luaos,6c75616f-732e-46b6-9963-61645f706362,rev?*%
%TF.SameCoordinates,Original*%
%TF.FileFunction,Copper,L1,Top*%
%TF.FilePolarity,Positive*%
%FSLAX46Y46*%
G04 Gerber Fmt 4.6, Leading zero omitted, Abs format (unit mm)*
G04 Created by KiCad (PCBNEW 9.0.2) date 2025-07-07 09:36:44*
%MOMM*%
%LPD*%
G01*
G04 APERTURE LIST*
G04 Aperture macros list*
%AMRoundRect*
0 Rectangle with rounded corners*
0 $1 Rounding radius*
0 $2 $3 $4 $5 $6 $7 $8 $9 X,Y pos of 4 corners*
0 Add a 4 corners polygon primitive as box body*
4,1,4,$2,$3,$4,$5,$6,$7,$8,$9,$2,$3,0*
0 Add four circle primitives for the rounded corners*
1,1,$1+$1,$2,$3*
1,1,$1+$1,$4,$5*
1,1,$1+$1,$6,$7*
1,1,$1+$1,$8,$9*
0 Add four rect primitives between the rounded corners*
20,1,$1+$1,$2,$3,$4,$5,0*
20,1,$1+$1,$4,$5,$6,$7,0*
20,1,$1+$1,$6,$7,$8,$9,0*
20,1,$1+$1,$8,$9,$2,$3,0*%
G04 Aperture macros list end*
%TA.AperFunction,ComponentPad*%
%ADD10R,1.500000X1.500000*%
%TD*%
%TA.AperFunction,ComponentPad*%
%ADD11C,1.500000*%
%TD*%
%TA.AperFunction,ComponentPad*%
%ADD12O,2.000000X1.700000*%
%TD*%
%TA.AperFunction,ComponentPad*%
%ADD13C,2.800000*%
%TD*%
%TA.AperFunction,ComponentPad*%
%ADD14RoundRect,0.250001X-1.149999X-1.149999X1.149999X-1.149999X1.149999X1.149999X-1.149999X1.149999X0*%
%TD*%
%TA.AperFunction,ComponentPad*%
%ADD15C,1.700000*%
%TD*%
%TA.AperFunction,ComponentPad*%
%ADD16R,1.700000X1.700000*%
%TD*%
%TA.AperFunction,ComponentPad*%
%ADD17O,2.000000X1.600000*%
%TD*%
%TA.AperFunction,ComponentPad*%
%ADD18R,2.000000X2.000000*%
%TD*%
%TA.AperFunction,Conductor*%
%ADD19C,0.500000*%
%TD*%
%TA.AperFunction,Conductor*%
%ADD20C,0.200000*%
%TD*%
G04 APERTURE END LIST*
D10*
%TO.P,U1,1,GND*%
%TO.N,GND*%
X96520000Y-88900000D03*
D11*
%TO.P,U1,2,GPIO0*%
%TO.N,unconnected-(U1-GPIO0-Pad2)*%
X96520000Y-91440000D03*
%TO.P,U1,3,GPIO1*%
%TO.N,unconnected-(U1-GPIO1-Pad3)*%
X96520000Y-93980000D03*
%TO.P,U1,4,GPIO12*%
%TO.N,Net-(U1-GPIO12)*%
X96520000Y-96520000D03*
%TO.P,U1,5,GPIO18*%
%TO.N,Net-(J2-Pin_2)*%
X96520000Y-99060000D03*
%TO.P,U1,6,GPIO19*%
%TO.N,unconnected-(U1-GPIO19-Pad6)*%
X96520000Y-101600000D03*
%TO.P,U1,7,GND*%
%TO.N,GND*%
X96520000Y-104140000D03*
%TO.P,U1,8,U0RXD*%
%TO.N,unconnected-(U1-U0RXD-Pad8)*%
X96520000Y-106680000D03*
%TO.P,U1,9,U0TXD*%
%TO.N,unconnected-(U1-U0TXD-Pad9)*%
X96520000Y-109220000D03*
%TO.P,U1,10,GPIO13*%
%TO.N,unconnected-(U1-GPIO13-Pad10)*%
X96520000Y-111760000D03*
%TO.P,U1,11*%
%TO.N,N/C*%
X96520000Y-114300000D03*
%TO.P,U1,12,REST*%
%TO.N,unconnected-(U1-REST-Pad12)*%
X96520000Y-116840000D03*
%TO.P,U1,13,VDD3P3*%
%TO.N,+3.3V*%
X96520000Y-119380000D03*
%TO.P,U1,14,GND*%
%TO.N,GND*%
X96520000Y-121920000D03*
%TO.P,U1,15,PWB*%
%TO.N,unconnected-(U1-PWB-Pad15)*%
X96520000Y-124460000D03*
%TO.P,U1,16,VDD5*%
%TO.N,+5V*%
X96520000Y-127000000D03*
%TO.P,U1,17,GND*%
%TO.N,GND*%
X114300000Y-88900000D03*
%TO.P,U1,18,VDD3P3*%
%TO.N,Net-(J4-Pin_1)*%
X114300000Y-91440000D03*
%TO.P,U1,19,SPI_CK*%
%TO.N,Net-(J4-Pin_4)*%
X114300000Y-93980000D03*
%TO.P,U1,20,SPI_MOSI*%
%TO.N,Net-(J4-Pin_3)*%
X114300000Y-96520000D03*
%TO.P,U1,21,SPI_MISO*%
%TO.N,Net-(J4-Pin_5)*%
X114300000Y-99060000D03*
%TO.P,U1,22,GPIO6*%
%TO.N,Net-(J4-Pin_7)*%
X114300000Y-101600000D03*
%TO.P,U1,23,GPIO7*%
%TO.N,Net-(J4-Pin_6)*%
X114300000Y-104140000D03*
%TO.P,U1,24,GPIO11*%
%TO.N,Net-(J4-Pin_8)*%
X114300000Y-106680000D03*
%TO.P,U1,25,GND*%
%TO.N,GND*%
X114300000Y-109220000D03*
%TO.P,U1,26,VDD3P3*%
%TO.N,Net-(J3-Pin_1)*%
X114300000Y-111760000D03*
%TO.P,U1,27,I2C_SCL*%
%TO.N,Net-(J3-Pin_3)*%
X114300000Y-114300000D03*
%TO.P,U1,28,I2C_SDA*%
%TO.N,Net-(J3-Pin_4)*%
X114300000Y-116840000D03*
%TO.P,U1,29,GPIO8*%
%TO.N,unconnected-(U1-GPIO8-Pad29)*%
X114300000Y-119380000D03*
%TO.P,U1,30,GPIO9*%
%TO.N,unconnected-(U1-GPIO9-Pad30)*%
X114300000Y-121920000D03*
%TO.P,U1,31,VDD5*%
%TO.N,+5V*%
X114300000Y-124460000D03*
%TO.P,U1,32,GND*%
%TO.N,GND*%
X114300000Y-127000000D03*
%TD*%
D12*
%TO.P,J5,2,Pin_2*%
%TO.N,GND*%
X63025000Y-129540000D03*
%TO.P,J5,1*%
%TO.N,+5V*%
X78025000Y-129540000D03*
%TD*%
D13*
%TO.P,J1,2,Pin_2*%
%TO.N,+5V*%
X71965000Y-118712500D03*
D14*
%TO.P,J1,1,Pin_1*%
%TO.N,GND*%
X66965000Y-118712500D03*
%TD*%
D15*
%TO.P,J2,3,Pin_3*%
%TO.N,GND*%
X88900000Y-99060000D03*
%TO.P,J2,2,Pin_2*%
%TO.N,Net-(J2-Pin_2)*%
X86360000Y-99060000D03*
D16*
%TO.P,J2,1,Pin_1*%
%TO.N,+3.3V*%
X83820000Y-99060000D03*
%TD*%
D17*
%TO.P,U2,16,TX*%
%TO.N,unconnected-(U2-TX-Pad16)*%
X77955000Y-87630000D03*
%TO.P,U2,15,RX*%
%TO.N,unconnected-(U2-RX-Pad15)*%
X77955000Y-90170000D03*
%TO.P,U2,14,SCL/D1*%
%TO.N,Net-(U1-GPIO12)*%
X77955000Y-92710000D03*
%TO.P,U2,13,SDA/D2*%
%TO.N,unconnected-(U2-SDA{slash}D2-Pad13)*%
X77955000Y-95250000D03*
%TO.P,U2,12,D3*%
%TO.N,unconnected-(U2-D3-Pad12)*%
X77955000Y-97790000D03*
%TO.P,U2,11,D4*%
%TO.N,unconnected-(U2-D4-Pad11)*%
X77955000Y-100330000D03*
%TO.P,U2,10,GND*%
%TO.N,GND*%
X77955000Y-102870000D03*
%TO.P,U2,9,5V*%
%TO.N,+5V*%
X77955000Y-105410000D03*
%TO.P,U2,8,3V3*%
%TO.N,+3.3V*%
X55095000Y-105410000D03*
%TO.P,U2,7,CS/D8*%
%TO.N,unconnected-(U2-CS{slash}D8-Pad7)*%
X55095000Y-102870000D03*
%TO.P,U2,6,MOSI/D7*%
%TO.N,unconnected-(U2-MOSI{slash}D7-Pad6)*%
X55095000Y-100330000D03*
%TO.P,U2,5,MISO/D6*%
%TO.N,unconnected-(U2-MISO{slash}D6-Pad5)*%
X55095000Y-97790000D03*
%TO.P,U2,4,SCK/D5*%
%TO.N,unconnected-(U2-SCK{slash}D5-Pad4)*%
X55095000Y-95250000D03*
%TO.P,U2,3,D0*%
%TO.N,unconnected-(U2-D0-Pad3)*%
X55095000Y-92710000D03*
%TO.P,U2,2,A0*%
%TO.N,unconnected-(U2-A0-Pad2)*%
X55095000Y-90170000D03*
D18*
%TO.P,U2,1,~{RST}*%
%TO.N,unconnected-(U2-~{RST}-Pad1)*%
X55095000Y-87630000D03*
%TD*%
D15*
%TO.P,J4,8,Pin_8*%
%TO.N,Net-(J4-Pin_8)*%
X132080000Y-104140000D03*
%TO.P,J4,7,Pin_7*%
%TO.N,Net-(J4-Pin_7)*%
X132080000Y-101600000D03*
%TO.P,J4,6,Pin_6*%
%TO.N,Net-(J4-Pin_6)*%
X132080000Y-99060000D03*
%TO.P,J4,5,Pin_5*%
%TO.N,Net-(J4-Pin_5)*%
X132080000Y-96520000D03*
%TO.P,J4,4,Pin_4*%
%TO.N,Net-(J4-Pin_4)*%
X132080000Y-93980000D03*
%TO.P,J4,3,Pin_3*%
%TO.N,Net-(J4-Pin_3)*%
X132080000Y-91440000D03*
%TO.P,J4,2,Pin_2*%
%TO.N,GND*%
X132080000Y-88900000D03*
D16*
%TO.P,J4,1,Pin_1*%
%TO.N,Net-(J4-Pin_1)*%
X132080000Y-86360000D03*
%TD*%
D15*
%TO.P,J3,4,Pin_4*%
%TO.N,Net-(J3-Pin_4)*%
X132080000Y-121920000D03*
%TO.P,J3,3,Pin_3*%
%TO.N,Net-(J3-Pin_3)*%
X132080000Y-119380000D03*
%TO.P,J3,2,Pin_2*%
%TO.N,GND*%
X132080000Y-116840000D03*
D16*
%TO.P,J3,1,Pin_1*%
%TO.N,Net-(J3-Pin_1)*%
X132080000Y-114300000D03*
%TD*%
D19*
%TO.N,+3.3V*%
X83820000Y-111760000D02*
X91440000Y-119380000D01*
X91440000Y-119380000D02*
X96520000Y-119380000D01*
X83820000Y-111760000D02*
X83820000Y-99060000D01*
D20*
%TO.N,Net-(J3-Pin_4)*%
X114300000Y-116840000D02*
X127000000Y-116840000D01*
%TO.N,Net-(J2-Pin_2)*%
X93980000Y-99060000D02*
X96520000Y-99060000D01*
D19*
%TO.N,Net-(J3-Pin_1)*%
X129540000Y-111760000D02*
X132080000Y-114300000D01*
X114300000Y-111760000D02*
X129540000Y-111760000D01*
D20*
%TO.N,Net-(J2-Pin_2)*%
X86360000Y-99060000D02*
X88900000Y-96520000D01*
%TO.N,Net-(J3-Pin_3)*%
X114300000Y-114300000D02*
X127000000Y-114300000D01*
%TO.N,Net-(J2-Pin_2)*%
X88900000Y-96520000D02*
X91440000Y-96520000D01*
D19*
%TO.N,+3.3V*%
X61445000Y-111760000D02*
X55095000Y-105410000D01*
D20*
%TO.N,Net-(U1-GPIO12)*%
X92710000Y-92710000D02*
X96520000Y-96520000D01*
%TO.N,Net-(J4-Pin_6)*%
X127000000Y-104140000D02*
X132080000Y-99060000D01*
D19*
%TO.N,Net-(J4-Pin_1)*%
X114300000Y-91440000D02*
X127000000Y-91440000D01*
D20*
%TO.N,Net-(J4-Pin_5)*%
X129540000Y-99060000D02*
X132080000Y-96520000D01*
%TO.N,Net-(J4-Pin_3)*%
X127000000Y-96520000D02*
X132080000Y-91440000D01*
%TO.N,Net-(J3-Pin_4)*%
X127000000Y-116840000D02*
X132080000Y-121920000D01*
%TO.N,Net-(J4-Pin_8)*%
X114300000Y-106680000D02*
X129540000Y-106680000D01*
%TO.N,Net-(J4-Pin_6)*%
X114300000Y-104140000D02*
X127000000Y-104140000D01*
%TO.N,Net-(J2-Pin_2)*%
X91440000Y-96520000D02*
X93980000Y-99060000D01*
D19*
%TO.N,+3.3V*%
X83820000Y-111760000D02*
X61445000Y-111760000D01*
D20*
%TO.N,Net-(J4-Pin_5)*%
X114300000Y-99060000D02*
X129540000Y-99060000D01*
%TO.N,Net-(U1-GPIO12)*%
X77955000Y-92710000D02*
X92710000Y-92710000D01*
D19*
%TO.N,Net-(J4-Pin_1)*%
X127000000Y-91440000D02*
X132080000Y-86360000D01*
D20*
%TO.N,Net-(J3-Pin_3)*%
X127000000Y-114300000D02*
X132080000Y-119380000D01*
%TO.N,Net-(J4-Pin_3)*%
X114300000Y-96520000D02*
X127000000Y-96520000D01*
%TO.N,Net-(J4-Pin_8)*%
X129540000Y-106680000D02*
X132080000Y-104140000D01*
%TD*%
M02*
