M48
; DRILL file {KiCad 9.0.3} date 2025-08-28T14:07:34+0200
; FORMAT={-:-/ absolute / metric / decimal}
; #@! TF.CreationDate,2025-08-28T14:07:34+02:00
; #@! TF.GenerationSoftware,Kicad,Pcbnew,9.0.3
; #@! TF.FileFunction,Plated,1,2,PTH
FMAT,2
METRIC
; #@! TA.AperFunction,Plated,PTH,ViaDrill
T1C0.300
; #@! TA.AperFunction,Plated,PTH,ComponentDrill
T2C0.700
; #@! TA.AperFunction,Plated,PTH,ComponentDrill
T3C0.800
; #@! TA.AperFunction,Plated,PTH,ComponentDrill
T4C0.900
; #@! TA.AperFunction,Plated,PTH,ComponentDrill
T5C1.000
; #@! TA.AperFunction,Plated,PTH,ComponentDrill
T6C1.100
; #@! TA.AperFunction,Plated,PTH,ComponentDrill
T7C1.300
; #@! TA.AperFunction,Plated,PTH,ComponentDrill
T8C1.500
; #@! TA.AperFunction,Plated,PTH,ComponentDrill
T9C1.520
%
G90
G05
T1
X104.55Y-123.825
T2
X146.685Y-111.125
X146.685Y-118.745
X146.86Y-93.345
X146.86Y-100.965
X149.225Y-121.285
X149.225Y-128.905
X149.86Y-83.185
X149.86Y-90.805
X183.015Y-123.92
X183.015Y-131.54
X186.19Y-120.745
X186.19Y-128.365
T3
X153.21Y-90.805
X153.21Y-93.345
X153.21Y-95.885
X153.21Y-100.965
X153.21Y-103.505
X153.21Y-106.045
X153.21Y-111.125
X153.21Y-113.665
X153.21Y-116.205
X153.21Y-121.285
X153.21Y-123.825
X153.21Y-126.365
X163.37Y-90.805
X163.37Y-93.345
X163.37Y-95.885
X163.37Y-100.965
X163.37Y-103.505
X163.37Y-106.045
X163.37Y-111.125
X163.37Y-113.665
X163.37Y-116.205
X163.37Y-121.285
X163.37Y-123.825
X163.37Y-126.365
T4
X69.197Y-87.875
X69.197Y-90.415
X69.197Y-92.955
X69.197Y-95.495
X69.197Y-98.035
X69.197Y-100.575
X69.197Y-103.115
X69.197Y-105.655
X69.197Y-108.195
X69.197Y-110.735
X69.197Y-113.275
X69.197Y-115.815
X69.197Y-118.355
X69.197Y-120.895
X69.197Y-123.435
X69.197Y-125.975
X86.977Y-87.875
X86.977Y-90.415
X86.977Y-92.955
X86.977Y-95.495
X86.977Y-98.035
X86.977Y-100.575
X86.977Y-103.115
X86.977Y-105.655
X86.977Y-108.195
X86.977Y-110.735
X86.977Y-113.275
X86.977Y-115.815
X86.977Y-118.355
X86.977Y-120.895
X86.977Y-123.435
X86.977Y-125.975
X111.125Y-78.065
X111.125Y-83.145
X111.125Y-95.885
X111.125Y-100.925
X111.125Y-111.085
X111.125Y-116.165
X111.125Y-128.905
X111.125Y-133.945
X113.665Y-78.065
X113.665Y-83.145
X113.665Y-95.885
X113.665Y-100.925
X113.665Y-111.085
X113.665Y-116.165
X113.665Y-128.905
X113.665Y-133.945
X116.205Y-78.065
X116.205Y-83.145
X116.205Y-95.885
X116.205Y-100.925
X116.205Y-111.085
X116.205Y-116.165
X116.205Y-128.905
X116.205Y-133.945
X118.745Y-78.065
X118.745Y-83.145
X118.745Y-95.885
X118.745Y-100.925
X118.745Y-111.085
X118.745Y-116.165
X118.745Y-128.905
X118.745Y-133.945
X121.285Y-78.065
X121.285Y-83.145
X121.285Y-95.885
X121.285Y-100.925
X121.285Y-111.085
X121.285Y-116.165
X121.285Y-128.905
X121.285Y-133.945
X123.825Y-78.065
X123.825Y-83.145
X123.825Y-95.885
X123.825Y-100.925
X123.825Y-111.085
X123.825Y-116.165
X123.825Y-128.905
X123.825Y-133.945
X126.365Y-78.065
X126.365Y-83.145
X126.365Y-95.885
X126.365Y-100.925
X126.365Y-111.085
X126.365Y-116.165
X126.365Y-128.905
X126.365Y-133.945
X128.905Y-78.065
X128.905Y-83.145
X128.905Y-95.885
X128.905Y-100.925
X128.905Y-111.085
X128.905Y-116.165
X128.905Y-128.905
X128.905Y-133.945
T5
X48.26Y-101.84
X48.26Y-116.84
X62.865Y-87.63
X62.865Y-90.17
X62.865Y-92.71
X63.5Y-102.87
X63.5Y-105.41
X63.5Y-107.95
X63.5Y-113.665
X63.5Y-116.205
X63.5Y-118.745
X81.28Y-132.715
X83.82Y-132.715
X86.36Y-132.715
X94.597Y-85.335
X94.597Y-87.875
X94.597Y-90.415
X94.597Y-92.955
X94.597Y-95.495
X94.597Y-98.035
X94.597Y-100.575
X94.597Y-103.115
X94.597Y-105.655
X94.597Y-108.195
X94.597Y-110.735
X94.597Y-113.275
X94.597Y-115.815
X94.597Y-118.355
X94.597Y-120.895
X94.597Y-123.435
X94.597Y-125.975
X94.597Y-128.515
X94.597Y-131.055
X94.597Y-133.595
X99.677Y-85.335
X99.677Y-87.875
X99.677Y-90.415
X99.677Y-92.955
X99.677Y-95.495
X99.677Y-98.035
X99.677Y-100.575
X99.677Y-103.115
X99.677Y-105.655
X99.677Y-108.195
X99.677Y-110.735
X99.677Y-113.275
X99.677Y-115.815
X99.677Y-118.355
X99.677Y-120.895
X99.677Y-123.435
X99.677Y-125.975
X99.677Y-128.515
X99.677Y-131.055
X99.677Y-133.595
X113.66Y-106.045
X116.2Y-106.045
X146.86Y-78.272
X146.86Y-134.153
X149.4Y-78.272
X149.4Y-134.153
X151.94Y-78.272
X151.94Y-134.153
X154.48Y-78.272
X154.48Y-134.153
X157.02Y-78.272
X157.02Y-134.153
X159.56Y-78.272
X159.56Y-134.153
X162.1Y-78.272
X162.1Y-134.153
X164.64Y-78.272
X164.64Y-134.153
X185.5Y-113.14
X185.5Y-136.0
X188.04Y-113.14
X188.04Y-136.0
X190.58Y-113.14
X190.58Y-136.0
X193.12Y-113.14
X193.12Y-136.0
X195.66Y-113.14
X195.66Y-136.0
X198.2Y-113.14
X198.2Y-136.0
X199.39Y-88.4
X199.39Y-94.4
X200.74Y-113.14
X200.74Y-136.0
X203.28Y-113.14
X203.28Y-136.0
T6
X191.905Y-120.745
X191.905Y-123.285
X191.905Y-125.825
X197.62Y-125.825
X197.62Y-128.365
X197.62Y-130.905
T7
X48.243Y-106.84
X48.243Y-111.84
X170.355Y-116.285
X170.355Y-121.285
X170.99Y-95.885
X170.99Y-100.885
X187.96Y-88.9
X187.96Y-93.9
T8
X170.99Y-83.82
T9
X205.335Y-120.015
X205.335Y-125.095
X205.335Y-130.175
M30
