%TF.GenerationSoftware,KiCad,Pcbnew,9.0.3*%
%TF.CreationDate,2025-08-28T14:02:24+02:00*%
%TF.ProjectId,luaos,6c75616f-732e-46b6-9963-61645f706362,rev?*%
%TF.SameCoordinates,Original*%
%TF.FileFunction,Copper,L1,Top*%
%TF.FilePolarity,Positive*%
%FSLAX46Y46*%
G04 Gerber Fmt 4.6, Leading zero omitted, Abs format (unit mm)*
G04 Created by KiCad (PCBNEW 9.0.3) date 2025-08-28 14:02:24*
%MOMM*%
%LPD*%
G01*
G04 APERTURE LIST*
G04 Aperture macros list*
%AMRoundRect*
0 Rectangle with rounded corners*
0 $1 Rounding radius*
0 $2 $3 $4 $5 $6 $7 $8 $9 X,Y pos of 4 corners*
0 Add a 4 corners polygon primitive as box body*
4,1,4,$2,$3,$4,$5,$6,$7,$8,$9,$2,$3,0*
0 Add four circle primitives for the rounded corners*
1,1,$1+$1,$2,$3*
1,1,$1+$1,$4,$5*
1,1,$1+$1,$6,$7*
1,1,$1+$1,$8,$9*
0 Add four rect primitives between the rounded corners*
20,1,$1+$1,$2,$3,$4,$5,0*
20,1,$1+$1,$4,$5,$6,$7,0*
20,1,$1+$1,$6,$7,$8,$9,0*
20,1,$1+$1,$8,$9,$2,$3,0*%
G04 Aperture macros list end*
%TA.AperFunction,Conductor*%
%ADD10C,0.200000*%
%TD*%
%TA.AperFunction,ComponentPad*%
%ADD11RoundRect,0.250001X-1.149999X1.149999X-1.149999X-1.149999X1.149999X-1.149999X1.149999X1.149999X0*%
%TD*%
%TA.AperFunction,ComponentPad*%
%ADD12C,2.800000*%
%TD*%
%TA.AperFunction,ComponentPad*%
%ADD13RoundRect,0.250000X-0.600000X-0.750000X0.600000X-0.750000X0.600000X0.750000X-0.600000X0.750000X0*%
%TD*%
%TA.AperFunction,ComponentPad*%
%ADD14O,1.700000X2.000000*%
%TD*%
%TA.AperFunction,ComponentPad*%
%ADD15C,1.400000*%
%TD*%
%TA.AperFunction,ComponentPad*%
%ADD16R,2.000000X1.905000*%
%TD*%
%TA.AperFunction,ComponentPad*%
%ADD17O,2.000000X1.905000*%
%TD*%
%TA.AperFunction,ComponentPad*%
%ADD18C,1.600000*%
%TD*%
%TA.AperFunction,ComponentPad*%
%ADD19RoundRect,0.250000X-0.550000X-0.550000X0.550000X-0.550000X0.550000X0.550000X-0.550000X0.550000X0*%
%TD*%
%TA.AperFunction,ComponentPad*%
%ADD20R,1.700000X1.700000*%
%TD*%
%TA.AperFunction,ComponentPad*%
%ADD21C,1.700000*%
%TD*%
%TA.AperFunction,ComponentPad*%
%ADD22C,3.000000*%
%TD*%
%TA.AperFunction,ComponentPad*%
%ADD23R,1.500000X1.500000*%
%TD*%
%TA.AperFunction,ComponentPad*%
%ADD24C,1.500000*%
%TD*%
%TA.AperFunction,ComponentPad*%
%ADD25R,3.000000X3.000000*%
%TD*%
%TA.AperFunction,ComponentPad*%
%ADD26R,2.000000X2.000000*%
%TD*%
%TA.AperFunction,ComponentPad*%
%ADD27O,1.600000X2.000000*%
%TD*%
%TA.AperFunction,ViaPad*%
%ADD28C,0.600000*%
%TD*%
%TA.AperFunction,Conductor*%
%ADD29C,0.500000*%
%TD*%
%TA.AperFunction,Conductor*%
%ADD30C,1.000000*%
%TD*%
G04 APERTURE END LIST*
D10*
%TO.N,Net-(J8-Pin_9)*%
X86995000Y-105410000D02*
X94615000Y-105410000D01*
%TD*%
D11*
%TO.P,J18,1,Pin_1*%
%TO.N,Net-(J18-Pin_1)*%
X170990000Y-95885000D03*
D12*
%TO.P,J18,2,Pin_2*%
%TO.N,Net-(J18-Pin_2)*%
X170990000Y-100885000D03*
%TD*%
D13*
%TO.P,J20,1,Pin_1*%
%TO.N,Net-(J20-Pin_1)*%
X199390000Y-88400000D03*
D14*
%TO.P,J20,2,Pin_2*%
%TO.N,Net-(J20-Pin_2)*%
X199390000Y-94400000D03*
%TD*%
D11*
%TO.P,J17,1,Pin_1*%
%TO.N,Net-(J17-Pin_1)*%
X170355000Y-116285000D03*
D12*
%TO.P,J17,2,Pin_2*%
%TO.N,Net-(J17-Pin_2)*%
X170355000Y-121285000D03*
%TD*%
D15*
%TO.P,R3,1*%
%TO.N,Net-(J16-Pin_1)*%
X146685000Y-118745000D03*
%TO.P,R3,2*%
%TO.N,Net-(R3-Pad2)*%
X146685000Y-111125000D03*
%TD*%
D16*
%TO.P,Q1,1,G*%
%TO.N,Net-(Q1-G)*%
X197620000Y-130905000D03*
D17*
%TO.P,Q1,2,D*%
%TO.N,Net-(J4-Pin_1)*%
X197620000Y-128365000D03*
%TO.P,Q1,3,S*%
%TO.N,Net-(J1-Pin_7)*%
X197620000Y-125825000D03*
%TD*%
D18*
%TO.P,U6,*%
%TO.N,*%
X153210000Y-116205000D03*
X163370000Y-113665000D03*
D19*
%TO.P,U6,1*%
%TO.N,Net-(R3-Pad2)*%
X153210000Y-111125000D03*
D18*
%TO.P,U6,2*%
%TO.N,Net-(J15-Pin_7)*%
X153210000Y-113665000D03*
%TO.P,U6,3*%
%TO.N,Net-(J19-Pin_1)*%
X163370000Y-116205000D03*
%TO.P,U6,4*%
%TO.N,Net-(J17-Pin_1)*%
X163370000Y-111125000D03*
%TD*%
D15*
%TO.P,R5,1*%
%TO.N,Net-(J1-Pin_1)*%
X183015000Y-123920000D03*
%TO.P,R5,2*%
%TO.N,Net-(Q1-G)*%
X183015000Y-131540000D03*
%TD*%
%TO.P,R2,1*%
%TO.N,Net-(J15-Pin_1)*%
X146860000Y-93345000D03*
%TO.P,R2,2*%
%TO.N,Net-(R2-Pad2)*%
X146860000Y-100965000D03*
%TD*%
D20*
%TO.P,J2,1,Pin_1*%
%TO.N,GND*%
X81280000Y-132715000D03*
D21*
%TO.P,J2,2,Pin_2*%
%TO.N,Net-(J2-Pin_2)*%
X83820000Y-132715000D03*
%TO.P,J2,3,Pin_3*%
%TO.N,+3.3V*%
X86360000Y-132715000D03*
%TD*%
D20*
%TO.P,J6,1,Pin_1*%
%TO.N,GND*%
X63500000Y-102870000D03*
D21*
%TO.P,J6,2,Pin_2*%
%TO.N,Net-(J6-Pin_2)*%
X63500000Y-105410000D03*
%TO.P,J6,3,Pin_3*%
%TO.N,Net-(J6-Pin_3)*%
X63500000Y-107950000D03*
%TD*%
D15*
%TO.P,R4,1*%
%TO.N,Net-(J16-Pin_2)*%
X149225000Y-128905000D03*
%TO.P,R4,2*%
%TO.N,Net-(R4-Pad2)*%
X149225000Y-121285000D03*
%TD*%
D20*
%TO.P,J9,1,Pin_1*%
%TO.N,Net-(J9-Pin_1)*%
X63500000Y-113665000D03*
D21*
%TO.P,J9,2,Pin_2*%
%TO.N,GND*%
X63500000Y-116205000D03*
%TO.P,J9,3,Pin_3*%
%TO.N,Net-(J9-Pin_3)*%
X63500000Y-118745000D03*
%TD*%
D11*
%TO.P,J5,1,Pin_1*%
%TO.N,GND*%
X48242600Y-106840000D03*
D14*
X48260000Y-101840000D03*
D12*
%TO.P,J5,2,Pin_2*%
%TO.N,+5V*%
X48242600Y-111840000D03*
D14*
X48260000Y-116840000D03*
%TD*%
D18*
%TO.P,U5,*%
%TO.N,*%
X153210000Y-106045000D03*
X163370000Y-103505000D03*
D19*
%TO.P,U5,1*%
%TO.N,Net-(R2-Pad2)*%
X153210000Y-100965000D03*
D18*
%TO.P,U5,2*%
%TO.N,Net-(J15-Pin_7)*%
X153210000Y-103505000D03*
%TO.P,U5,3*%
%TO.N,Net-(J19-Pin_1)*%
X163370000Y-106045000D03*
%TO.P,U5,4*%
%TO.N,Net-(J18-Pin_2)*%
X163370000Y-100965000D03*
%TD*%
D11*
%TO.P,J21,1,Pin_1*%
%TO.N,Net-(J20-Pin_1)*%
X187960000Y-88900000D03*
D12*
%TO.P,J21,2,Pin_2*%
%TO.N,Net-(J20-Pin_2)*%
X187960000Y-93900000D03*
%TD*%
D15*
%TO.P,R1,1*%
%TO.N,Net-(R1-Pad1)*%
X149860000Y-90805000D03*
%TO.P,R1,2*%
%TO.N,Net-(J15-Pin_3)*%
X149860000Y-83185000D03*
%TD*%
D22*
%TO.P,J19,1,Pin_1*%
%TO.N,Net-(J19-Pin_1)*%
X170990000Y-83820000D03*
%TD*%
D20*
%TO.P,J15,1,Pin_1*%
%TO.N,Net-(J15-Pin_1)*%
X146860000Y-78272500D03*
D21*
%TO.P,J15,2,Pin_2*%
%TO.N,unconnected-(J15-Pin_2-Pad2)*%
X149400000Y-78272500D03*
%TO.P,J15,3,Pin_3*%
%TO.N,Net-(J15-Pin_3)*%
X151940000Y-78272500D03*
%TO.P,J15,4,Pin_4*%
%TO.N,unconnected-(J15-Pin_4-Pad4)*%
X154480000Y-78272500D03*
%TO.P,J15,5,Pin_5*%
%TO.N,unconnected-(J15-Pin_5-Pad5)*%
X157020000Y-78272500D03*
%TO.P,J15,6,Pin_6*%
%TO.N,unconnected-(J15-Pin_6-Pad6)*%
X159560000Y-78272500D03*
%TO.P,J15,7,Pin_7*%
%TO.N,Net-(J15-Pin_7)*%
X162100000Y-78272500D03*
%TO.P,J15,8,Pin_8*%
%TO.N,unconnected-(J15-Pin_8-Pad8)*%
X164640000Y-78272500D03*
%TD*%
D20*
%TO.P,J1,1,Pin_1*%
%TO.N,Net-(J1-Pin_1)*%
X185500000Y-113140000D03*
D21*
%TO.P,J1,2,Pin_2*%
%TO.N,unconnected-(J1-Pin_2-Pad2)*%
X188040000Y-113140000D03*
%TO.P,J1,3,Pin_3*%
%TO.N,Net-(J1-Pin_3)*%
X190580000Y-113140000D03*
%TO.P,J1,4,Pin_4*%
%TO.N,unconnected-(J1-Pin_4-Pad4)*%
X193120000Y-113140000D03*
%TO.P,J1,5,Pin_5*%
%TO.N,unconnected-(J1-Pin_5-Pad5)*%
X195660000Y-113140000D03*
%TO.P,J1,6,Pin_6*%
%TO.N,unconnected-(J1-Pin_6-Pad6)*%
X198200000Y-113140000D03*
%TO.P,J1,7,Pin_7*%
%TO.N,Net-(J1-Pin_7)*%
X200740000Y-113140000D03*
%TO.P,J1,8,Pin_8*%
%TO.N,unconnected-(J1-Pin_8-Pad8)*%
X203280000Y-113140000D03*
%TD*%
D16*
%TO.P,Q2,1,G*%
%TO.N,Net-(Q2-G)*%
X191905000Y-125825000D03*
D17*
%TO.P,Q2,2,D*%
%TO.N,Net-(J4-Pin_2)*%
X191905000Y-123285000D03*
%TO.P,Q2,3,S*%
%TO.N,Net-(J1-Pin_7)*%
X191905000Y-120745000D03*
%TD*%
D20*
%TO.P,J3,1,Pin_1*%
%TO.N,unconnected-(J3-Pin_1-Pad1)*%
X185500000Y-136000000D03*
D21*
%TO.P,J3,2,Pin_2*%
%TO.N,unconnected-(J3-Pin_2-Pad2)*%
X188040000Y-136000000D03*
%TO.P,J3,3,Pin_3*%
%TO.N,unconnected-(J3-Pin_3-Pad3)*%
X190580000Y-136000000D03*
%TO.P,J3,4,Pin_4*%
%TO.N,unconnected-(J3-Pin_4-Pad4)*%
X193120000Y-136000000D03*
%TO.P,J3,5,Pin_5*%
%TO.N,unconnected-(J3-Pin_5-Pad5)*%
X195660000Y-136000000D03*
%TO.P,J3,6,Pin_6*%
%TO.N,unconnected-(J3-Pin_6-Pad6)*%
X198200000Y-136000000D03*
%TO.P,J3,7,Pin_7*%
%TO.N,unconnected-(J3-Pin_7-Pad7)*%
X200740000Y-136000000D03*
%TO.P,J3,8,Pin_8*%
%TO.N,unconnected-(J3-Pin_8-Pad8)*%
X203280000Y-136000000D03*
%TD*%
D23*
%TO.P,U1,1,GND*%
%TO.N,GND*%
X69197500Y-87875000D03*
D24*
%TO.P,U1,2,GPIO0*%
%TO.N,Net-(J2-Pin_2)*%
X69197500Y-90415000D03*
%TO.P,U1,3,GPIO1*%
%TO.N,Net-(J7-Pin_3)*%
X69197500Y-92955000D03*
%TO.P,U1,4,GPIO12*%
%TO.N,Net-(J12-Pin_1)*%
X69197500Y-95495000D03*
%TO.P,U1,5,GPIO18*%
%TO.N,Net-(J8-Pin_15)*%
X69197500Y-98035000D03*
%TO.P,U1,6,GPIO19*%
%TO.N,Net-(J8-Pin_16)*%
X69197500Y-100575000D03*
%TO.P,U1,7,GND*%
%TO.N,GND*%
X69197500Y-103115000D03*
%TO.P,U1,8,U0RXD*%
%TO.N,Net-(J6-Pin_2)*%
X69197500Y-105655000D03*
%TO.P,U1,9,U0TXD*%
%TO.N,Net-(J6-Pin_3)*%
X69197500Y-108195000D03*
%TO.P,U1,10,GPIO13*%
%TO.N,Net-(U1-GPIO13)*%
X69197500Y-110735000D03*
%TO.P,U1,11*%
%TO.N,N/C*%
X69197500Y-113275000D03*
%TO.P,U1,12,REST*%
%TO.N,Net-(J9-Pin_1)*%
X69197500Y-115815000D03*
%TO.P,U1,13,VDD3P3*%
%TO.N,+3.3V*%
X69197500Y-118355000D03*
%TO.P,U1,14,GND*%
%TO.N,GND*%
X69197500Y-120895000D03*
%TO.P,U1,15,PWB*%
%TO.N,Net-(J9-Pin_3)*%
X69197500Y-123435000D03*
%TO.P,U1,16,VDD5*%
%TO.N,+5V*%
X69197500Y-125975000D03*
%TO.P,U1,17,GND*%
%TO.N,GND*%
X86977500Y-87875000D03*
%TO.P,U1,18,VDD3P3*%
%TO.N,+3.3V*%
X86977500Y-90415000D03*
%TO.P,U1,19,SPI_CK*%
%TO.N,Net-(J8-Pin_4)*%
X86977500Y-92955000D03*
%TO.P,U1,20,SPI_MOSI*%
%TO.N,Net-(J8-Pin_3)*%
X86977500Y-95495000D03*
%TO.P,U1,21,SPI_MISO*%
%TO.N,Net-(J8-Pin_5)*%
X86977500Y-98035000D03*
%TO.P,U1,22,GPIO6*%
%TO.N,Net-(J8-Pin_7)*%
X86977500Y-100575000D03*
%TO.P,U1,23,GPIO7*%
%TO.N,Net-(J8-Pin_6)*%
X86977500Y-103115000D03*
%TO.P,U1,24,GPIO11*%
%TO.N,Net-(J8-Pin_9)*%
X86977500Y-105655000D03*
%TO.P,U1,25,GND*%
%TO.N,GND*%
X86977500Y-108195000D03*
%TO.P,U1,26,VDD3P3*%
%TO.N,+3.3V*%
X86977500Y-110735000D03*
%TO.P,U1,27,I2C_SCL*%
%TO.N,Net-(J8-Pin_12)*%
X86977500Y-113275000D03*
%TO.P,U1,28,I2C_SDA*%
%TO.N,Net-(J8-Pin_13)*%
X86977500Y-115815000D03*
%TO.P,U1,29,GPIO8*%
%TO.N,Net-(J8-Pin_8)*%
X86977500Y-118355000D03*
%TO.P,U1,30,GPIO9*%
%TO.N,Net-(J8-Pin_14)*%
X86977500Y-120895000D03*
%TO.P,U1,31,VDD5*%
%TO.N,+5V*%
X86977500Y-123435000D03*
%TO.P,U1,32,GND*%
%TO.N,GND*%
X86977500Y-125975000D03*
%TD*%
D18*
%TO.P,U7,*%
%TO.N,*%
X153210000Y-126365000D03*
X163370000Y-123825000D03*
D19*
%TO.P,U7,1*%
%TO.N,Net-(R4-Pad2)*%
X153210000Y-121285000D03*
D18*
%TO.P,U7,2*%
%TO.N,Net-(J15-Pin_7)*%
X153210000Y-123825000D03*
%TO.P,U7,3*%
%TO.N,Net-(J19-Pin_1)*%
X163370000Y-126365000D03*
%TO.P,U7,4*%
%TO.N,Net-(J17-Pin_2)*%
X163370000Y-121285000D03*
%TD*%
D20*
%TO.P,J12,1,Pin_1*%
%TO.N,Net-(J12-Pin_1)*%
X113660000Y-106045000D03*
D21*
%TO.P,J12,2,Pin_2*%
%TO.N,Net-(J12-Pin_2)*%
X116200000Y-106045000D03*
%TD*%
D25*
%TO.P,J4,1,Pin_1*%
%TO.N,Net-(J4-Pin_1)*%
X205335000Y-130175000D03*
D22*
%TO.P,J4,2,Pin_2*%
%TO.N,Net-(J4-Pin_2)*%
X205335000Y-125095000D03*
%TO.P,J4,3,Pin_3*%
%TO.N,Net-(J1-Pin_7)*%
X205335000Y-120015000D03*
%TD*%
D20*
%TO.P,J16,1,Pin_1*%
%TO.N,Net-(J16-Pin_1)*%
X146860000Y-134152500D03*
D21*
%TO.P,J16,2,Pin_2*%
%TO.N,Net-(J16-Pin_2)*%
X149400000Y-134152500D03*
%TO.P,J16,3,Pin_3*%
%TO.N,unconnected-(J16-Pin_3-Pad3)*%
X151940000Y-134152500D03*
%TO.P,J16,4,Pin_4*%
%TO.N,unconnected-(J16-Pin_4-Pad4)*%
X154480000Y-134152500D03*
%TO.P,J16,5,Pin_5*%
%TO.N,unconnected-(J16-Pin_5-Pad5)*%
X157020000Y-134152500D03*
%TO.P,J16,6,Pin_6*%
%TO.N,unconnected-(J16-Pin_6-Pad6)*%
X159560000Y-134152500D03*
%TO.P,J16,7,Pin_7*%
%TO.N,unconnected-(J16-Pin_7-Pad7)*%
X162100000Y-134152500D03*
%TO.P,J16,8,Pin_8*%
%TO.N,unconnected-(J16-Pin_8-Pad8)*%
X164640000Y-134152500D03*
%TD*%
D15*
%TO.P,R6,1*%
%TO.N,Net-(J1-Pin_3)*%
X186190000Y-120745000D03*
%TO.P,R6,2*%
%TO.N,Net-(Q2-G)*%
X186190000Y-128365000D03*
%TD*%
D20*
%TO.P,J7,1,Pin_1*%
%TO.N,GND*%
X62865000Y-87630000D03*
D21*
%TO.P,J7,2,Pin_2*%
%TO.N,Net-(J2-Pin_2)*%
X62865000Y-90170000D03*
%TO.P,J7,3,Pin_3*%
%TO.N,Net-(J7-Pin_3)*%
X62865000Y-92710000D03*
%TD*%
D18*
%TO.P,U4,*%
%TO.N,*%
X153210000Y-95885000D03*
X163370000Y-93345000D03*
D19*
%TO.P,U4,1*%
%TO.N,Net-(R1-Pad1)*%
X153210000Y-90805000D03*
D18*
%TO.P,U4,2*%
%TO.N,Net-(J15-Pin_7)*%
X153210000Y-93345000D03*
%TO.P,U4,3*%
%TO.N,Net-(J19-Pin_1)*%
X163370000Y-95885000D03*
%TO.P,U4,4*%
%TO.N,Net-(J18-Pin_1)*%
X163370000Y-90805000D03*
%TD*%
D20*
%TO.P,J8,1,Pin_1*%
%TO.N,+3.3V*%
X94597500Y-85335000D03*
D21*
X99677500Y-85335000D03*
%TO.P,J8,2,Pin_2*%
%TO.N,GND*%
X94597500Y-87875000D03*
X99677500Y-87875000D03*
%TO.P,J8,3,Pin_3*%
%TO.N,Net-(J8-Pin_3)*%
X94597500Y-90415000D03*
X99677500Y-90415000D03*
%TO.P,J8,4,Pin_4*%
%TO.N,Net-(J8-Pin_4)*%
X94597500Y-92955000D03*
X99677500Y-92955000D03*
%TO.P,J8,5,Pin_5*%
%TO.N,Net-(J8-Pin_5)*%
X94597500Y-95495000D03*
X99677500Y-95495000D03*
%TO.P,J8,6,Pin_6*%
%TO.N,Net-(J8-Pin_6)*%
X94597500Y-98035000D03*
X99677500Y-98035000D03*
%TO.P,J8,7,Pin_7*%
%TO.N,Net-(J8-Pin_7)*%
X94597500Y-100575000D03*
X99677500Y-100575000D03*
%TO.P,J8,8,Pin_8*%
%TO.N,Net-(J8-Pin_8)*%
X94597500Y-103115000D03*
X99677500Y-103115000D03*
%TO.P,J8,9,Pin_9*%
%TO.N,Net-(J8-Pin_9)*%
X94597500Y-105655000D03*
X99677500Y-105655000D03*
%TO.P,J8,10,Pin_10*%
%TO.N,+3.3V*%
X94597500Y-108195000D03*
X99677500Y-108195000D03*
%TO.P,J8,11,Pin_11*%
%TO.N,GND*%
X94597500Y-110735000D03*
X99677500Y-110735000D03*
%TO.P,J8,12,Pin_12*%
%TO.N,Net-(J8-Pin_12)*%
X94597500Y-113275000D03*
X99677500Y-113275000D03*
%TO.P,J8,13,Pin_13*%
%TO.N,Net-(J8-Pin_13)*%
X94597500Y-115815000D03*
X99677500Y-115815000D03*
%TO.P,J8,14,Pin_14*%
%TO.N,Net-(J8-Pin_14)*%
X94597500Y-118355000D03*
X99677500Y-118355000D03*
%TO.P,J8,15,Pin_15*%
%TO.N,Net-(J8-Pin_15)*%
X94597500Y-120895000D03*
X99677500Y-120895000D03*
%TO.P,J8,16,Pin_16*%
%TO.N,Net-(J8-Pin_16)*%
X94597500Y-123435000D03*
X99677500Y-123435000D03*
%TO.P,J8,17,Pin_17*%
%TO.N,Net-(J7-Pin_3)*%
X94597500Y-125975000D03*
X99677500Y-125975000D03*
%TO.P,J8,18,Pin_18*%
%TO.N,GND*%
X94597500Y-128515000D03*
X99677500Y-128515000D03*
%TO.P,J8,19,Pin_19*%
%TO.N,Net-(J2-Pin_2)*%
X94597500Y-131055000D03*
X99677500Y-131055000D03*
%TO.P,J8,20,Pin_20*%
%TO.N,+3.3V*%
X94597500Y-133595000D03*
X99677500Y-133595000D03*
%TD*%
D26*
%TO.P,U2,1,~{RST}*%
%TO.N,unconnected-(U2-~{RST}-Pad1)*%
X111125000Y-100925000D03*
D27*
X111125000Y-95885000D03*
%TO.P,U2,2,A0*%
%TO.N,unconnected-(U2-A0-Pad2)*%
X113665000Y-100925000D03*
X113665000Y-95885000D03*
%TO.P,U2,3,D0*%
%TO.N,unconnected-(U2-D0-Pad3)*%
X116205000Y-100925000D03*
X116205000Y-95885000D03*
%TO.P,U2,4,SCK/D5*%
%TO.N,unconnected-(U2-SCK{slash}D5-Pad4)*%
X118745000Y-100925000D03*
X118745000Y-95885000D03*
%TO.P,U2,5,MISO/D6*%
%TO.N,unconnected-(U2-MISO{slash}D6-Pad5)*%
X121285000Y-100925000D03*
X121285000Y-95885000D03*
%TO.P,U2,6,MOSI/D7*%
%TO.N,unconnected-(U2-MOSI{slash}D7-Pad6)*%
X123825000Y-100925000D03*
X123825000Y-95885000D03*
%TO.P,U2,7,CS/D8*%
%TO.N,unconnected-(U2-CS{slash}D8-Pad7)*%
X126365000Y-100925000D03*
X126365000Y-95885000D03*
%TO.P,U2,8,3V3*%
%TO.N,+3.3V*%
X128905000Y-100925000D03*
X128905000Y-95885000D03*
%TO.P,U2,9,5V*%
%TO.N,+5V*%
X128905000Y-83145000D03*
X128905000Y-78065000D03*
%TO.P,U2,10,GND*%
%TO.N,GND*%
X126365000Y-83145000D03*
X126365000Y-78065000D03*
%TO.P,U2,11,D4*%
%TO.N,unconnected-(U2-D4-Pad11)*%
X123825000Y-83145000D03*
X123825000Y-78065000D03*
%TO.P,U2,12,D3*%
%TO.N,unconnected-(U2-D3-Pad12)*%
X121285000Y-83145000D03*
X121285000Y-78065000D03*
%TO.P,U2,13,SDA/D2*%
%TO.N,unconnected-(U2-SDA{slash}D2-Pad13)*%
X118745000Y-83145000D03*
X118745000Y-78065000D03*
%TO.P,U2,14,SCL/D1*%
%TO.N,Net-(U1-GPIO13)*%
X116205000Y-83145000D03*
X116205000Y-78065000D03*
%TO.P,U2,15,RX*%
%TO.N,unconnected-(U2-RX-Pad15)*%
X113665000Y-83145000D03*
X113665000Y-78065000D03*
%TO.P,U2,16,TX*%
%TO.N,unconnected-(U2-TX-Pad16)*%
X111125000Y-83145000D03*
X111125000Y-78065000D03*
%TD*%
D26*
%TO.P,U3,1,~{RST}*%
%TO.N,unconnected-(U3-~{RST}-Pad1)*%
X111125000Y-133945000D03*
D27*
X111125000Y-128905000D03*
%TO.P,U3,2,A0*%
%TO.N,unconnected-(U3-A0-Pad2)*%
X113665000Y-133945000D03*
X113665000Y-128905000D03*
%TO.P,U3,3,D0*%
%TO.N,unconnected-(U3-D0-Pad3)*%
X116205000Y-133945000D03*
X116205000Y-128905000D03*
%TO.P,U3,4,SCK/D5*%
%TO.N,unconnected-(U3-SCK{slash}D5-Pad4)*%
X118745000Y-133945000D03*
X118745000Y-128905000D03*
%TO.P,U3,5,MISO/D6*%
%TO.N,unconnected-(U3-MISO{slash}D6-Pad5)*%
X121285000Y-133945000D03*
X121285000Y-128905000D03*
%TO.P,U3,6,MOSI/D7*%
%TO.N,unconnected-(U3-MOSI{slash}D7-Pad6)*%
X123825000Y-133945000D03*
X123825000Y-128905000D03*
%TO.P,U3,7,CS/D8*%
%TO.N,unconnected-(U3-CS{slash}D8-Pad7)*%
X126365000Y-133945000D03*
X126365000Y-128905000D03*
%TO.P,U3,8,3V3*%
%TO.N,+3.3V*%
X128905000Y-133945000D03*
X128905000Y-128905000D03*
%TO.P,U3,9,5V*%
%TO.N,+5V*%
X128905000Y-116165000D03*
X128905000Y-111085000D03*
%TO.P,U3,10,GND*%
%TO.N,GND*%
X126365000Y-116165000D03*
X126365000Y-111085000D03*
%TO.P,U3,11,D4*%
%TO.N,unconnected-(U3-D4-Pad11)*%
X123825000Y-116165000D03*
X123825000Y-111085000D03*
%TO.P,U3,12,D3*%
%TO.N,unconnected-(U3-D3-Pad12)*%
X121285000Y-116165000D03*
X121285000Y-111085000D03*
%TO.P,U3,13,SDA/D2*%
%TO.N,unconnected-(U3-SDA{slash}D2-Pad13)*%
X118745000Y-116165000D03*
X118745000Y-111085000D03*
%TO.P,U3,14,SCL/D1*%
%TO.N,Net-(J12-Pin_2)*%
X116205000Y-116165000D03*
X116205000Y-111085000D03*
%TO.P,U3,15,RX*%
%TO.N,unconnected-(U3-RX-Pad15)*%
X113665000Y-116165000D03*
X113665000Y-111085000D03*
%TO.P,U3,16,TX*%
%TO.N,unconnected-(U3-TX-Pad16)*%
X111125000Y-116165000D03*
X111125000Y-111085000D03*
%TD*%
D28*
%TO.N,Net-(J7-Pin_3)*%
X104550000Y-123825000D03*
%TD*%
D10*
%TO.N,GND*%
X48260000Y-102870000D02*
X48242600Y-102887400D01*
X48260000Y-101840000D02*
X48260000Y-102870000D01*
X64380000Y-103115000D02*
X69197500Y-103115000D01*
X92057500Y-125975000D02*
X94597500Y-128515000D01*
D29*
X94597500Y-87875000D02*
X99677500Y-87875000D01*
X94597500Y-110735000D02*
X99677500Y-110735000D01*
D10*
X63500000Y-102870000D02*
X64135000Y-102870000D01*
X69197500Y-102887500D02*
X69215000Y-102870000D01*
X64135000Y-102870000D02*
X64380000Y-103115000D01*
X69197500Y-103115000D02*
X69197500Y-102887500D01*
X126365000Y-116840000D02*
X126365000Y-114467500D01*
X69197500Y-87647500D02*
X69215000Y-87630000D01*
X126365000Y-111085000D02*
X126365000Y-116165000D01*
X126365000Y-78065000D02*
X126365000Y-83145000D01*
X86977500Y-125975000D02*
X92057500Y-125975000D01*
X69215000Y-102870000D02*
X69215000Y-102905000D01*
D29*
X94597500Y-128515000D02*
X99677500Y-128515000D01*
D10*
X69197500Y-87875000D02*
X69197500Y-87647500D01*
X63500000Y-87630000D02*
X63745000Y-87875000D01*
X62865000Y-87630000D02*
X63500000Y-87630000D01*
D29*
%TO.N,+5V*%
X132080000Y-105410000D02*
X128905000Y-108585000D01*
D10*
X69197500Y-135872500D02*
X69215000Y-135890000D01*
D29*
X83820000Y-125095000D02*
X71755000Y-125095000D01*
X130810000Y-134620000D02*
X130810000Y-118070000D01*
X69197500Y-125975000D02*
X69197500Y-135872500D01*
X128905000Y-78065000D02*
X128905000Y-83145000D01*
X86977500Y-123435000D02*
X85480000Y-123435000D01*
X129540000Y-135890000D02*
X130810000Y-134620000D01*
X128905000Y-111085000D02*
X128905000Y-116165000D01*
X54610000Y-135890000D02*
X69215000Y-135890000D01*
X128905000Y-83145000D02*
X130252445Y-83145000D01*
D10*
X48242600Y-116822600D02*
X48260000Y-116840000D01*
X132197445Y-85090000D02*
X132080000Y-85207445D01*
D29*
X71755000Y-125095000D02*
X70875000Y-125975000D01*
X130810000Y-118070000D02*
X128905000Y-116165000D01*
X109220000Y-135890000D02*
X129540000Y-135890000D01*
X69215000Y-135890000D02*
X105410000Y-135890000D01*
X128905000Y-111085000D02*
X128905000Y-108585000D01*
X53975000Y-135255000D02*
X54610000Y-135890000D01*
X132080000Y-85207445D02*
X132080000Y-105410000D01*
X130252445Y-83145000D02*
X132197445Y-85090000D01*
X70875000Y-125975000D02*
X69197500Y-125975000D01*
X85480000Y-123435000D02*
X83820000Y-125095000D01*
X48260000Y-116840000D02*
X52705000Y-116840000D01*
X52705000Y-116840000D02*
X53975000Y-118110000D01*
X105410000Y-135890000D02*
X109220000Y-135890000D01*
X53975000Y-118110000D02*
X53975000Y-125095000D01*
X48242600Y-111840000D02*
X48242600Y-116822600D01*
X53975000Y-125095000D02*
X53975000Y-135255000D01*
D10*
%TO.N,Net-(J2-Pin_2)*%
X62865000Y-90170000D02*
X60035000Y-90170000D01*
X101990000Y-131055000D02*
X99677500Y-131055000D01*
X102850000Y-130195000D02*
X101990000Y-131055000D01*
X83820000Y-132715000D02*
X85030825Y-131504175D01*
X62865000Y-90170000D02*
X63500000Y-90170000D01*
X59400000Y-79590000D02*
X59690000Y-79300000D01*
X59400000Y-89535000D02*
X59400000Y-79590000D01*
X102850000Y-79915000D02*
X102850000Y-130195000D01*
X85030825Y-131504175D02*
X94148325Y-131504175D01*
X102235000Y-79300000D02*
X102850000Y-79915000D01*
X94597500Y-131055000D02*
X99677500Y-131055000D01*
X63745000Y-90415000D02*
X69197500Y-90415000D01*
X60035000Y-90170000D02*
X59400000Y-89535000D01*
X59690000Y-79300000D02*
X102235000Y-79300000D01*
X63500000Y-90170000D02*
X63745000Y-90415000D01*
%TO.N,+3.3V*%
X128905000Y-95885000D02*
X128905000Y-100925000D01*
X86360000Y-132715000D02*
X87240000Y-133595000D01*
X128905000Y-128905000D02*
X128905000Y-133945000D01*
D29*
X92057500Y-110735000D02*
X94597500Y-108195000D01*
X89517500Y-90415000D02*
X94597500Y-85335000D01*
D10*
X87240000Y-133595000D02*
X94597500Y-133595000D01*
D29*
X86977500Y-110735000D02*
X92057500Y-110735000D01*
X71120000Y-116432500D02*
X69197500Y-118355000D01*
X86977500Y-110735000D02*
X72145000Y-110735000D01*
X72145000Y-110735000D02*
X71120000Y-111760000D01*
X86977500Y-90415000D02*
X89517500Y-90415000D01*
X71120000Y-111760000D02*
X71120000Y-116432500D01*
D10*
X87367500Y-111125000D02*
X86977500Y-110735000D01*
%TO.N,Net-(J6-Pin_2)*%
X63500000Y-105410000D02*
X68952500Y-105410000D01*
X68952500Y-105410000D02*
X69197500Y-105655000D01*
%TO.N,Net-(J7-Pin_3)*%
X63500000Y-92710000D02*
X63745000Y-92955000D01*
X63745000Y-92955000D02*
X69197500Y-92955000D01*
X102775000Y-77600000D02*
X59560000Y-77600000D01*
X94597500Y-125975000D02*
X99677500Y-125975000D01*
X57785000Y-91440000D02*
X59055000Y-92710000D01*
X59560000Y-77600000D02*
X57785000Y-79375000D01*
X57785000Y-79375000D02*
X57785000Y-91440000D01*
X62865000Y-92710000D02*
X63500000Y-92710000D01*
X59055000Y-92710000D02*
X62865000Y-92710000D01*
X104550000Y-119155000D02*
X104550000Y-124050000D01*
X104550000Y-79375000D02*
X104550000Y-119155000D01*
X104550000Y-79375000D02*
X102775000Y-77600000D01*
%TO.N,Net-(J12-Pin_2)*%
X116205000Y-116165000D02*
X116205000Y-111085000D01*
X116200000Y-106045000D02*
X116200000Y-111080000D01*
X116200000Y-111080000D02*
X116205000Y-111085000D01*
%TO.N,Net-(J12-Pin_1)*%
X106250000Y-104980000D02*
X107315000Y-106045000D01*
X104550000Y-75900000D02*
X106250000Y-77600000D01*
X107315000Y-106045000D02*
X113660000Y-106045000D01*
X69197500Y-95495000D02*
X69460000Y-95495000D01*
X69460000Y-95495000D02*
X69850000Y-95885000D01*
X56000000Y-94542500D02*
X56000000Y-77685000D01*
X57785000Y-75900000D02*
X104550000Y-75900000D01*
X69197500Y-95495000D02*
X69197500Y-95267500D01*
X56000000Y-77685000D02*
X57785000Y-75900000D01*
X69197500Y-95267500D02*
X69215000Y-95250000D01*
X56952500Y-95495000D02*
X56000000Y-94542500D01*
X106250000Y-77600000D02*
X106250000Y-104980000D01*
X69197500Y-95495000D02*
X56952500Y-95495000D01*
%TO.N,Net-(J15-Pin_1)*%
X146860000Y-78272500D02*
X146860000Y-93345000D01*
%TO.N,Net-(R1-Pad1)*%
X149860000Y-90805000D02*
X153210000Y-90805000D01*
%TO.N,Net-(R2-Pad2)*%
X146860000Y-100965000D02*
X153210000Y-100965000D01*
%TO.N,Net-(J15-Pin_7)*%
X153210000Y-123825000D02*
X154480000Y-123825000D01*
X155750000Y-103505000D02*
X155750000Y-93345000D01*
X155750000Y-113665000D02*
X155750000Y-103505000D01*
X161465000Y-80645000D02*
X162100000Y-80010000D01*
X156385000Y-80645000D02*
X161465000Y-80645000D01*
X155750000Y-122555000D02*
X155750000Y-113665000D01*
X153210000Y-103505000D02*
X155750000Y-103505000D01*
X153210000Y-93345000D02*
X155750000Y-93345000D01*
X162100000Y-80010000D02*
X162100000Y-78272500D01*
X155750000Y-81280000D02*
X156385000Y-80645000D01*
X154480000Y-123825000D02*
X155750000Y-122555000D01*
X153210000Y-113665000D02*
X155750000Y-113665000D01*
X155750000Y-93345000D02*
X155750000Y-81280000D01*
%TO.N,Net-(J16-Pin_1)*%
X146685000Y-118745000D02*
X146685000Y-119380000D01*
X146685000Y-119380000D02*
X146860000Y-119555000D01*
X146860000Y-119555000D02*
X146860000Y-134152500D01*
%TO.N,Net-(R3-Pad2)*%
X146685000Y-111125000D02*
X153210000Y-111125000D01*
%TO.N,Net-(R4-Pad2)*%
X149225000Y-121285000D02*
X153210000Y-121285000D01*
%TO.N,unconnected-(U3-D0-Pad3)*%
X116205000Y-128905000D02*
X116205000Y-133945000D01*
%TO.N,unconnected-(U3-D3-Pad12)*%
X121285000Y-111085000D02*
X121285000Y-116165000D01*
%TO.N,unconnected-(U3-SDA{slash}D2-Pad13)*%
X118745000Y-111085000D02*
X118745000Y-116165000D01*
%TO.N,unconnected-(U3-D4-Pad11)*%
X123825000Y-111085000D02*
X123825000Y-116165000D01*
%TO.N,unconnected-(U3-RX-Pad15)*%
X113665000Y-111085000D02*
X113665000Y-116165000D01*
%TO.N,unconnected-(U3-MISO{slash}D6-Pad5)*%
X121285000Y-128905000D02*
X121285000Y-133945000D01*
%TO.N,unconnected-(U3-A0-Pad2)*%
X113665000Y-128905000D02*
X113665000Y-133945000D01*
%TO.N,unconnected-(U3-TX-Pad16)*%
X111125000Y-116165000D02*
X111125000Y-111085000D01*
%TO.N,unconnected-(U3-~{RST}-Pad1)*%
X111125000Y-128905000D02*
X111125000Y-133945000D01*
%TO.N,unconnected-(U3-MOSI{slash}D7-Pad6)*%
X123825000Y-128905000D02*
X123825000Y-133945000D01*
%TO.N,unconnected-(U3-CS{slash}D8-Pad7)*%
X126365000Y-128905000D02*
X126365000Y-133945000D01*
%TO.N,unconnected-(U3-SCK{slash}D5-Pad4)*%
X118745000Y-128905000D02*
X118745000Y-133945000D01*
%TO.N,unconnected-(U2-RX-Pad15)*%
X113665000Y-78065000D02*
X113665000Y-83145000D01*
%TO.N,unconnected-(U2-D3-Pad12)*%
X121285000Y-78065000D02*
X121285000Y-83145000D01*
%TO.N,unconnected-(U2-SDA{slash}D2-Pad13)*%
X118745000Y-78065000D02*
X118745000Y-83145000D01*
%TO.N,unconnected-(U2-A0-Pad2)*%
X113665000Y-95885000D02*
X113665000Y-100925000D01*
%TO.N,unconnected-(U2-MISO{slash}D6-Pad5)*%
X121285000Y-95885000D02*
X121285000Y-100925000D01*
%TO.N,unconnected-(U2-MOSI{slash}D7-Pad6)*%
X123825000Y-95885000D02*
X123825000Y-100925000D01*
%TO.N,unconnected-(U2-SCK{slash}D5-Pad4)*%
X118745000Y-95885000D02*
X118745000Y-100925000D01*
%TO.N,unconnected-(U2-TX-Pad16)*%
X111125000Y-78065000D02*
X111125000Y-83145000D01*
%TO.N,unconnected-(U2-~{RST}-Pad1)*%
X111125000Y-95885000D02*
X111125000Y-100925000D01*
%TO.N,unconnected-(U2-D0-Pad3)*%
X116205000Y-95885000D02*
X116205000Y-100925000D01*
%TO.N,unconnected-(U2-CS{slash}D8-Pad7)*%
X126365000Y-95885000D02*
X126365000Y-100925000D01*
%TO.N,unconnected-(U2-D4-Pad11)*%
X123825000Y-78065000D02*
X123825000Y-83145000D01*
%TO.N,Net-(J8-Pin_7)*%
X94597500Y-100575000D02*
X99677500Y-100575000D01*
%TO.N,Net-(J8-Pin_13)*%
X99677500Y-115815000D02*
X94597500Y-115815000D01*
X86977500Y-115815000D02*
X94597500Y-115815000D01*
%TO.N,Net-(J8-Pin_14)*%
X86977500Y-120895000D02*
X92057500Y-120895000D01*
X94597500Y-118355000D02*
X99677500Y-118355000D01*
X92057500Y-120895000D02*
X94597500Y-118355000D01*
%TO.N,Net-(J8-Pin_6)*%
X94597500Y-98035000D02*
X99677500Y-98035000D01*
X86977500Y-103115000D02*
X89517500Y-103115000D01*
X89517500Y-103115000D02*
X94597500Y-98035000D01*
%TO.N,Net-(J8-Pin_3)*%
X86977500Y-95495000D02*
X89517500Y-95495000D01*
X89517500Y-95495000D02*
X94597500Y-90415000D01*
X94597500Y-90415000D02*
X99677500Y-90415000D01*
%TO.N,Net-(J8-Pin_4)*%
X94597500Y-92955000D02*
X99677500Y-92955000D01*
%TO.N,Net-(J8-Pin_5)*%
X94597500Y-95495000D02*
X99677500Y-95495000D01*
X92057500Y-98035000D02*
X94597500Y-95495000D01*
X86977500Y-98035000D02*
X92057500Y-98035000D01*
%TO.N,Net-(J8-Pin_12)*%
X99677500Y-113275000D02*
X94597500Y-113275000D01*
X86977500Y-113275000D02*
X94597500Y-113275000D01*
%TO.N,Net-(J8-Pin_8)*%
X94597500Y-103115000D02*
X99677500Y-103115000D01*
%TO.N,Net-(J6-Pin_3)*%
X63500000Y-107950000D02*
X64135000Y-107950000D01*
X64380000Y-108195000D02*
X69197500Y-108195000D01*
X64135000Y-107950000D02*
X64380000Y-108195000D01*
%TO.N,Net-(J8-Pin_16)*%
X94597500Y-123435000D02*
X99677500Y-123435000D01*
%TO.N,Net-(J8-Pin_15)*%
X94597500Y-120895000D02*
X99677500Y-120895000D01*
%TO.N,Net-(U1-GPIO13)*%
X54300000Y-109220000D02*
X54300000Y-77050000D01*
X107950000Y-74200000D02*
X114935000Y-74200000D01*
X114935000Y-74295000D02*
X116205000Y-75565000D01*
X55815000Y-110735000D02*
X54300000Y-109220000D01*
X54300000Y-77050000D02*
X57150000Y-74200000D01*
X116205000Y-78065000D02*
X116205000Y-83145000D01*
X57150000Y-74200000D02*
X107950000Y-74200000D01*
X69197500Y-110735000D02*
X55815000Y-110735000D01*
X116205000Y-75565000D02*
X116205000Y-78065000D01*
%TO.N,Net-(J9-Pin_1)*%
X67047500Y-113665000D02*
X69197500Y-115815000D01*
X63500000Y-113665000D02*
X67047500Y-113665000D01*
%TO.N,Net-(J9-Pin_3)*%
X68190000Y-123435000D02*
X69197500Y-123435000D01*
X63500000Y-118745000D02*
X68190000Y-123435000D01*
D30*
%TO.N,Net-(J4-Pin_1)*%
X197620000Y-128365000D02*
X203525000Y-128365000D01*
X203525000Y-128365000D02*
X205335000Y-130175000D01*
%TO.N,Net-(J4-Pin_2)*%
X191905000Y-123285000D02*
X203525000Y-123285000D01*
X203525000Y-123285000D02*
X205335000Y-125095000D01*
D10*
%TO.N,Net-(J1-Pin_1)*%
X183015000Y-123920000D02*
X183015000Y-115625000D01*
X183015000Y-115625000D02*
X185500000Y-113140000D01*
%TO.N,Net-(J1-Pin_3)*%
X186190000Y-117530000D02*
X190580000Y-113140000D01*
X186190000Y-120745000D02*
X186190000Y-117530000D01*
%TO.N,Net-(Q1-G)*%
X183015000Y-131540000D02*
X196985000Y-131540000D01*
X196985000Y-131540000D02*
X197620000Y-130905000D01*
%TO.N,Net-(Q2-G)*%
X186190000Y-128365000D02*
X189365000Y-128365000D01*
X189365000Y-128365000D02*
X191905000Y-125825000D01*
%TO.N,Net-(J8-Pin_9)*%
X94597500Y-105655000D02*
X99677500Y-105655000D01*
%TO.N,Net-(J15-Pin_3)*%
X151940000Y-78272500D02*
X149860000Y-80352500D01*
X149860000Y-80352500D02*
X149860000Y-83185000D01*
%TO.N,Net-(J16-Pin_2)*%
X149225000Y-128905000D02*
X149225000Y-133977500D01*
X149225000Y-133977500D02*
X149400000Y-134152500D01*
%TD*%
M02*
